G04 #@! TF.FileFunction,Legend,Top*
%FSLAX46Y46*%
G04 Gerber Fmt 4.6, Leading zero omitted, Abs format (unit mm)*
G04 Created by KiCad (PCBNEW 4.0.1-stable) date 2/21/2016 12:36:31 PM*
%MOMM*%
G01*
G04 APERTURE LIST*
%ADD10C,0.100000*%
%ADD11C,0.150000*%
G04 APERTURE END LIST*
D10*
D11*
X142950000Y-77200000D02*
X142250000Y-77200000D01*
X142250000Y-76000000D02*
X142950000Y-76000000D01*
X144099160Y-78424760D02*
X144050900Y-78424760D01*
X141300180Y-79125800D02*
X141300180Y-78424760D01*
X141300180Y-78424760D02*
X141549100Y-78424760D01*
X144099160Y-78424760D02*
X144299820Y-78424760D01*
X144299820Y-78424760D02*
X144299820Y-79125800D01*
X131920000Y-69755000D02*
X144620000Y-69755000D01*
X144620000Y-69755000D02*
X144620000Y-72295000D01*
X144620000Y-72295000D02*
X131920000Y-72295000D01*
X129100000Y-69475000D02*
X130650000Y-69475000D01*
X131920000Y-69755000D02*
X131920000Y-72295000D01*
X130650000Y-72575000D02*
X129100000Y-72575000D01*
X129100000Y-72575000D02*
X129100000Y-69475000D01*
X132025000Y-76550000D02*
X132025000Y-75550000D01*
X133375000Y-75550000D02*
X133375000Y-76550000D01*
X132025000Y-79475000D02*
X132025000Y-78475000D01*
X133375000Y-78475000D02*
X133375000Y-79475000D01*
X132025000Y-82400000D02*
X132025000Y-81400000D01*
X133375000Y-81400000D02*
X133375000Y-82400000D01*
X143650000Y-82275000D02*
X142650000Y-82275000D01*
X142650000Y-80925000D02*
X143650000Y-80925000D01*
X135250000Y-74525000D02*
X135250000Y-74640000D01*
X139400000Y-74525000D02*
X139400000Y-74640000D01*
X139400000Y-83425000D02*
X139400000Y-83310000D01*
X135250000Y-83425000D02*
X135250000Y-83310000D01*
X135250000Y-74525000D02*
X139400000Y-74525000D01*
X135250000Y-83425000D02*
X139400000Y-83425000D01*
X135250000Y-74640000D02*
X133875000Y-74640000D01*
X129911905Y-73977381D02*
X129911905Y-72977381D01*
X130292858Y-72977381D01*
X130388096Y-73025000D01*
X130435715Y-73072619D01*
X130483334Y-73167857D01*
X130483334Y-73310714D01*
X130435715Y-73405952D01*
X130388096Y-73453571D01*
X130292858Y-73501190D01*
X129911905Y-73501190D01*
X131435715Y-73977381D02*
X130864286Y-73977381D01*
X131150000Y-73977381D02*
X131150000Y-72977381D01*
X131054762Y-73120238D01*
X130959524Y-73215476D01*
X130864286Y-73263095D01*
X137777381Y-82094047D02*
X137777381Y-82570238D01*
X136777381Y-82570238D01*
X137777381Y-81760714D02*
X136777381Y-81760714D01*
X137491667Y-81427380D01*
X136777381Y-81094047D01*
X137777381Y-81094047D01*
X136777381Y-80713095D02*
X136777381Y-80094047D01*
X137158333Y-80427381D01*
X137158333Y-80284523D01*
X137205952Y-80189285D01*
X137253571Y-80141666D01*
X137348810Y-80094047D01*
X137586905Y-80094047D01*
X137682143Y-80141666D01*
X137729762Y-80189285D01*
X137777381Y-80284523D01*
X137777381Y-80570238D01*
X137729762Y-80665476D01*
X137682143Y-80713095D01*
X136872619Y-79713095D02*
X136825000Y-79665476D01*
X136777381Y-79570238D01*
X136777381Y-79332142D01*
X136825000Y-79236904D01*
X136872619Y-79189285D01*
X136967857Y-79141666D01*
X137063095Y-79141666D01*
X137205952Y-79189285D01*
X137777381Y-79760714D01*
X137777381Y-79141666D01*
X137110714Y-78284523D02*
X137777381Y-78284523D01*
X136729762Y-78522619D02*
X137444048Y-78760714D01*
X137444048Y-78141666D01*
X137491667Y-77808333D02*
X137491667Y-77332142D01*
X137777381Y-77903571D02*
X136777381Y-77570238D01*
X137777381Y-77236904D01*
X137777381Y-76903571D02*
X136777381Y-76903571D01*
X136777381Y-76665476D01*
X136825000Y-76522618D01*
X136920238Y-76427380D01*
X137015476Y-76379761D01*
X137205952Y-76332142D01*
X137348810Y-76332142D01*
X137539286Y-76379761D01*
X137634524Y-76427380D01*
X137729762Y-76522618D01*
X137777381Y-76665476D01*
X137777381Y-76903571D01*
X137777381Y-75332142D02*
X137301190Y-75665476D01*
X137777381Y-75903571D02*
X136777381Y-75903571D01*
X136777381Y-75522618D01*
X136825000Y-75427380D01*
X136872619Y-75379761D01*
X136967857Y-75332142D01*
X137110714Y-75332142D01*
X137205952Y-75379761D01*
X137253571Y-75427380D01*
X137301190Y-75522618D01*
X137301190Y-75903571D01*
M02*
