G04 #@! TF.FileFunction,Copper,L1,Top,Signal*
%FSLAX46Y46*%
G04 Gerber Fmt 4.6, Leading zero omitted, Abs format (unit mm)*
G04 Created by KiCad (PCBNEW 4.0.1-stable) date 2/21/2016 12:36:31 PM*
%MOMM*%
G01*
G04 APERTURE LIST*
%ADD10C,0.100000*%
%ADD11R,0.800000X0.750000*%
%ADD12R,0.800100X0.800100*%
%ADD13R,1.727200X2.032000*%
%ADD14O,1.727200X2.032000*%
%ADD15R,0.900000X0.500000*%
%ADD16R,0.500000X0.900000*%
%ADD17R,1.500000X0.600000*%
%ADD18C,0.700000*%
%ADD19C,0.250000*%
%ADD20C,0.254000*%
G04 APERTURE END LIST*
D10*
D11*
X143350000Y-76600000D03*
X141850000Y-76600000D03*
D12*
X141850000Y-80075760D03*
X143750000Y-80075760D03*
X142800000Y-78076780D03*
D13*
X130650000Y-71025000D03*
D14*
X133190000Y-71025000D03*
X135730000Y-71025000D03*
X138270000Y-71025000D03*
X140810000Y-71025000D03*
X143350000Y-71025000D03*
D15*
X132700000Y-75300000D03*
X132700000Y-76800000D03*
X132700000Y-78225000D03*
X132700000Y-79725000D03*
X132700000Y-81150000D03*
X132700000Y-82650000D03*
D16*
X142400000Y-81600000D03*
X143900000Y-81600000D03*
D17*
X134625000Y-75165000D03*
X134625000Y-76435000D03*
X134625000Y-77705000D03*
X134625000Y-78975000D03*
X134625000Y-80245000D03*
X134625000Y-81515000D03*
X134625000Y-82785000D03*
X140025000Y-82785000D03*
X140025000Y-81515000D03*
X140025000Y-80245000D03*
X140025000Y-78975000D03*
X140025000Y-77705000D03*
X140025000Y-76435000D03*
X140025000Y-75165000D03*
D18*
X142625000Y-75075000D03*
X138625000Y-78300000D03*
X138225000Y-83375000D03*
X131525000Y-80425000D03*
X131550000Y-77500000D03*
X136050000Y-78975000D03*
X136425000Y-83400000D03*
X136700000Y-79650000D03*
X134625000Y-83775000D03*
X141475000Y-81725000D03*
D19*
X143350000Y-76600000D02*
X143350000Y-75800000D01*
X143350000Y-75800000D02*
X142625000Y-75075000D01*
X143350000Y-76600000D02*
X143350000Y-77526780D01*
X143350000Y-77526780D02*
X142800000Y-78076780D01*
X138225000Y-84450000D02*
X142800000Y-84450000D01*
X144775000Y-72450000D02*
X143350000Y-71025000D01*
X144775000Y-82475000D02*
X144775000Y-72450000D01*
X142800000Y-84450000D02*
X144775000Y-82475000D01*
X132700000Y-82650000D02*
X132700000Y-83700000D01*
X133450000Y-84450000D02*
X138225000Y-84450000D01*
X132700000Y-83700000D02*
X133450000Y-84450000D01*
X138625000Y-78300000D02*
X139300000Y-78975000D01*
X139300000Y-78975000D02*
X140025000Y-78975000D01*
X138225000Y-83375000D02*
X138225000Y-84450000D01*
X138225000Y-84450000D02*
X138225000Y-84400000D01*
X138225000Y-84400000D02*
X138225000Y-84450000D01*
X141850000Y-76600000D02*
X141850000Y-78150000D01*
X141025000Y-78975000D02*
X140025000Y-78975000D01*
X141850000Y-78150000D02*
X141025000Y-78975000D01*
X141850000Y-76600000D02*
X141850000Y-72525000D01*
X141850000Y-72525000D02*
X143350000Y-71025000D01*
X141850000Y-80075760D02*
X141850000Y-81050000D01*
X141850000Y-81050000D02*
X142400000Y-81600000D01*
X140025000Y-82785000D02*
X142715000Y-82785000D01*
X142715000Y-82785000D02*
X143900000Y-81600000D01*
X143750000Y-80075760D02*
X143750000Y-81450000D01*
X143750000Y-81450000D02*
X143900000Y-81600000D01*
X134625000Y-80245000D02*
X133705000Y-80245000D01*
X133525000Y-80425000D02*
X131525000Y-80425000D01*
X133705000Y-80245000D02*
X133525000Y-80425000D01*
X134625000Y-77705000D02*
X133730000Y-77705000D01*
X133525000Y-77500000D02*
X131550000Y-77500000D01*
X133730000Y-77705000D02*
X133525000Y-77500000D01*
X134625000Y-78975000D02*
X131500000Y-78975000D01*
X132200000Y-75300000D02*
X132700000Y-75300000D01*
X130475000Y-77025000D02*
X132200000Y-75300000D01*
X130475000Y-77950000D02*
X130475000Y-77025000D01*
X131500000Y-78975000D02*
X130475000Y-77950000D01*
X132700000Y-75300000D02*
X132700000Y-74055000D01*
X132700000Y-74055000D02*
X135730000Y-71025000D01*
X134625000Y-78975000D02*
X136050000Y-78975000D01*
X132700000Y-76800000D02*
X134260000Y-76800000D01*
X134260000Y-76800000D02*
X134625000Y-76435000D01*
X132700000Y-76800000D02*
X131300000Y-76800000D01*
X131375000Y-78225000D02*
X132700000Y-78225000D01*
X130900000Y-77750000D02*
X131375000Y-78225000D01*
X130900000Y-77200000D02*
X130900000Y-77750000D01*
X131300000Y-76800000D02*
X130900000Y-77200000D01*
X132700000Y-79725000D02*
X131300000Y-79725000D01*
X131350000Y-81150000D02*
X132700000Y-81150000D01*
X130875000Y-80675000D02*
X131350000Y-81150000D01*
X130875000Y-80150000D02*
X130875000Y-80675000D01*
X131300000Y-79725000D02*
X130875000Y-80150000D01*
X134625000Y-81515000D02*
X133065000Y-81515000D01*
X133065000Y-81515000D02*
X132700000Y-81150000D01*
X136425000Y-83400000D02*
X139580000Y-80245000D01*
X139580000Y-80245000D02*
X140025000Y-80245000D01*
X134625000Y-75165000D02*
X135515000Y-75165000D01*
X136700000Y-76350000D02*
X136700000Y-79650000D01*
X135515000Y-75165000D02*
X136700000Y-76350000D01*
X134625000Y-82785000D02*
X134625000Y-83775000D01*
X141265000Y-81515000D02*
X140025000Y-81515000D01*
X141475000Y-81725000D02*
X141265000Y-81515000D01*
D20*
G36*
X149544000Y-92919000D02*
X125456000Y-92919000D01*
X125456000Y-90247513D01*
X126618674Y-90247513D01*
X126904436Y-90939109D01*
X127433108Y-91468704D01*
X128124204Y-91755673D01*
X128872513Y-91756326D01*
X129564109Y-91470564D01*
X130093704Y-90941892D01*
X130380673Y-90250796D01*
X130380675Y-90247513D01*
X144593674Y-90247513D01*
X144879436Y-90939109D01*
X145408108Y-91468704D01*
X146099204Y-91755673D01*
X146847513Y-91756326D01*
X147539109Y-91470564D01*
X148068704Y-90941892D01*
X148355673Y-90250796D01*
X148356326Y-89502487D01*
X148070564Y-88810891D01*
X147541892Y-88281296D01*
X146850796Y-87994327D01*
X146102487Y-87993674D01*
X145410891Y-88279436D01*
X144881296Y-88808108D01*
X144594327Y-89499204D01*
X144593674Y-90247513D01*
X130380675Y-90247513D01*
X130381326Y-89502487D01*
X130095564Y-88810891D01*
X129566892Y-88281296D01*
X128875796Y-87994327D01*
X128127487Y-87993674D01*
X127435891Y-88279436D01*
X126906296Y-88808108D01*
X126619327Y-89499204D01*
X126618674Y-90247513D01*
X125456000Y-90247513D01*
X125456000Y-82933750D01*
X131615000Y-82933750D01*
X131615000Y-83026309D01*
X131711673Y-83259698D01*
X131890301Y-83438327D01*
X132123690Y-83535000D01*
X132414250Y-83535000D01*
X132573000Y-83376250D01*
X132573000Y-82775000D01*
X131773750Y-82775000D01*
X131615000Y-82933750D01*
X125456000Y-82933750D01*
X125456000Y-77025000D01*
X129969000Y-77025000D01*
X129969000Y-77950000D01*
X130007517Y-78143638D01*
X130117204Y-78307796D01*
X131082721Y-79273313D01*
X131016066Y-79317851D01*
X130942204Y-79367204D01*
X130517204Y-79792204D01*
X130407517Y-79956362D01*
X130369000Y-80150000D01*
X130369000Y-80675000D01*
X130407517Y-80868638D01*
X130517204Y-81032796D01*
X130992204Y-81507796D01*
X131156362Y-81617483D01*
X131350000Y-81656000D01*
X131961981Y-81656000D01*
X131971546Y-81670865D01*
X132098866Y-81757859D01*
X132134130Y-81765000D01*
X132123690Y-81765000D01*
X131890301Y-81861673D01*
X131711673Y-82040302D01*
X131615000Y-82273691D01*
X131615000Y-82366250D01*
X131773750Y-82525000D01*
X132573000Y-82525000D01*
X132573000Y-82503000D01*
X132827000Y-82503000D01*
X132827000Y-82525000D01*
X132847000Y-82525000D01*
X132847000Y-82775000D01*
X132827000Y-82775000D01*
X132827000Y-83376250D01*
X132985750Y-83535000D01*
X133276310Y-83535000D01*
X133509699Y-83438327D01*
X133594829Y-83353197D01*
X133596546Y-83355865D01*
X133723866Y-83442859D01*
X133875000Y-83473464D01*
X133958694Y-83473464D01*
X133894127Y-83628957D01*
X133893874Y-83919767D01*
X134004927Y-84188537D01*
X134210381Y-84394350D01*
X134478957Y-84505873D01*
X134769767Y-84506126D01*
X135038537Y-84395073D01*
X135244350Y-84189619D01*
X135355873Y-83921043D01*
X135356126Y-83630233D01*
X135291351Y-83473464D01*
X135375000Y-83473464D01*
X135516190Y-83446897D01*
X135645865Y-83363454D01*
X135694093Y-83292870D01*
X135693874Y-83544767D01*
X135804927Y-83813537D01*
X136010381Y-84019350D01*
X136278957Y-84130873D01*
X136569767Y-84131126D01*
X136838537Y-84020073D01*
X137044350Y-83814619D01*
X137155873Y-83546043D01*
X137156013Y-83384579D01*
X138886536Y-81654056D01*
X138886536Y-81815000D01*
X138913103Y-81956190D01*
X138996546Y-82085865D01*
X139091187Y-82150530D01*
X139004135Y-82206546D01*
X138917141Y-82333866D01*
X138886536Y-82485000D01*
X138886536Y-83085000D01*
X138913103Y-83226190D01*
X138996546Y-83355865D01*
X139123866Y-83442859D01*
X139275000Y-83473464D01*
X140775000Y-83473464D01*
X140916190Y-83446897D01*
X141045865Y-83363454D01*
X141095371Y-83291000D01*
X142715000Y-83291000D01*
X142908638Y-83252483D01*
X143072796Y-83142796D01*
X143777128Y-82438464D01*
X144150000Y-82438464D01*
X144291190Y-82411897D01*
X144420865Y-82328454D01*
X144507859Y-82201134D01*
X144538464Y-82050000D01*
X144538464Y-81150000D01*
X144511897Y-81008810D01*
X144428454Y-80879135D01*
X144330679Y-80812329D01*
X144420915Y-80754264D01*
X144507909Y-80626944D01*
X144538514Y-80475810D01*
X144538514Y-79675710D01*
X144511947Y-79534520D01*
X144428504Y-79404845D01*
X144301184Y-79317851D01*
X144150050Y-79287246D01*
X143349950Y-79287246D01*
X143208760Y-79313813D01*
X143079085Y-79397256D01*
X142992091Y-79524576D01*
X142961486Y-79675710D01*
X142961486Y-80475810D01*
X142988053Y-80617000D01*
X143071496Y-80746675D01*
X143198816Y-80833669D01*
X143244000Y-80842819D01*
X143244000Y-81450000D01*
X143259000Y-81525408D01*
X143038464Y-81745944D01*
X143038464Y-81150000D01*
X143011897Y-81008810D01*
X142928454Y-80879135D01*
X142801134Y-80792141D01*
X142650000Y-80761536D01*
X142509614Y-80761536D01*
X142520915Y-80754264D01*
X142607909Y-80626944D01*
X142638514Y-80475810D01*
X142638514Y-79675710D01*
X142611947Y-79534520D01*
X142528504Y-79404845D01*
X142401184Y-79317851D01*
X142250050Y-79287246D01*
X141449950Y-79287246D01*
X141410000Y-79294763D01*
X141410000Y-79260750D01*
X141251250Y-79102000D01*
X140152000Y-79102000D01*
X140152000Y-79122000D01*
X139898000Y-79122000D01*
X139898000Y-79102000D01*
X138798750Y-79102000D01*
X138640000Y-79260750D01*
X138640000Y-79401310D01*
X138736673Y-79634699D01*
X138913554Y-79811579D01*
X138886536Y-79945000D01*
X138886536Y-80222872D01*
X136440395Y-82669013D01*
X136280233Y-82668874D01*
X136011463Y-82779927D01*
X135805650Y-82985381D01*
X135762683Y-83088856D01*
X135763464Y-83085000D01*
X135763464Y-82485000D01*
X135736897Y-82343810D01*
X135653454Y-82214135D01*
X135558813Y-82149470D01*
X135645865Y-82093454D01*
X135732859Y-81966134D01*
X135763464Y-81815000D01*
X135763464Y-81215000D01*
X135736897Y-81073810D01*
X135653454Y-80944135D01*
X135558813Y-80879470D01*
X135645865Y-80823454D01*
X135732859Y-80696134D01*
X135763464Y-80545000D01*
X135763464Y-79945000D01*
X135736897Y-79803810D01*
X135653454Y-79674135D01*
X135558813Y-79609470D01*
X135614624Y-79573557D01*
X135635381Y-79594350D01*
X135903957Y-79705873D01*
X135968951Y-79705930D01*
X135968874Y-79794767D01*
X136079927Y-80063537D01*
X136285381Y-80269350D01*
X136553957Y-80380873D01*
X136844767Y-80381126D01*
X137113537Y-80270073D01*
X137319350Y-80064619D01*
X137430873Y-79796043D01*
X137431126Y-79505233D01*
X137320073Y-79236463D01*
X137206000Y-79122191D01*
X137206000Y-78548690D01*
X138640000Y-78548690D01*
X138640000Y-78689250D01*
X138798750Y-78848000D01*
X139898000Y-78848000D01*
X139898000Y-78828000D01*
X140152000Y-78828000D01*
X140152000Y-78848000D01*
X141251250Y-78848000D01*
X141410000Y-78689250D01*
X141410000Y-78548690D01*
X141313327Y-78315301D01*
X141136446Y-78138421D01*
X141163464Y-78005000D01*
X141163464Y-77543632D01*
X141323691Y-77610000D01*
X141564250Y-77610000D01*
X141723000Y-77451250D01*
X141723000Y-76727000D01*
X141703000Y-76727000D01*
X141703000Y-76473000D01*
X141723000Y-76473000D01*
X141723000Y-75748750D01*
X141564250Y-75590000D01*
X141323691Y-75590000D01*
X141090302Y-75686673D01*
X141072495Y-75704480D01*
X141132859Y-75616134D01*
X141163464Y-75465000D01*
X141163464Y-75219767D01*
X141893874Y-75219767D01*
X142004927Y-75488537D01*
X142120969Y-75604781D01*
X141977000Y-75748750D01*
X141977000Y-76473000D01*
X141997000Y-76473000D01*
X141997000Y-76727000D01*
X141977000Y-76727000D01*
X141977000Y-77451250D01*
X142045848Y-77520098D01*
X142042091Y-77525596D01*
X142011486Y-77676730D01*
X142011486Y-78476830D01*
X142038053Y-78618020D01*
X142121496Y-78747695D01*
X142248816Y-78834689D01*
X142399950Y-78865294D01*
X143200050Y-78865294D01*
X143341240Y-78838727D01*
X143470915Y-78755284D01*
X143557909Y-78627964D01*
X143588514Y-78476830D01*
X143588514Y-78003858D01*
X143707796Y-77884576D01*
X143817483Y-77720418D01*
X143856000Y-77526780D01*
X143856000Y-77343519D01*
X143891190Y-77336897D01*
X144020865Y-77253454D01*
X144107859Y-77126134D01*
X144138464Y-76975000D01*
X144138464Y-76225000D01*
X144111897Y-76083810D01*
X144028454Y-75954135D01*
X143901134Y-75867141D01*
X143856000Y-75858001D01*
X143856000Y-75800000D01*
X143817483Y-75606362D01*
X143707796Y-75442204D01*
X143355987Y-75090395D01*
X143356126Y-74930233D01*
X143245073Y-74661463D01*
X143039619Y-74455650D01*
X142771043Y-74344127D01*
X142480233Y-74343874D01*
X142211463Y-74454927D01*
X142005650Y-74660381D01*
X141894127Y-74928957D01*
X141893874Y-75219767D01*
X141163464Y-75219767D01*
X141163464Y-74865000D01*
X141136897Y-74723810D01*
X141053454Y-74594135D01*
X140926134Y-74507141D01*
X140775000Y-74476536D01*
X139275000Y-74476536D01*
X139133810Y-74503103D01*
X139004135Y-74586546D01*
X138917141Y-74713866D01*
X138886536Y-74865000D01*
X138886536Y-75465000D01*
X138913103Y-75606190D01*
X138996546Y-75735865D01*
X139091187Y-75800530D01*
X139004135Y-75856546D01*
X138917141Y-75983866D01*
X138886536Y-76135000D01*
X138886536Y-76735000D01*
X138913103Y-76876190D01*
X138996546Y-77005865D01*
X139091187Y-77070530D01*
X139004135Y-77126546D01*
X138917141Y-77253866D01*
X138886536Y-77405000D01*
X138886536Y-78005000D01*
X138911944Y-78140031D01*
X138736673Y-78315301D01*
X138640000Y-78548690D01*
X137206000Y-78548690D01*
X137206000Y-76350000D01*
X137167483Y-76156362D01*
X137057796Y-75992204D01*
X135872796Y-74807204D01*
X135728531Y-74710809D01*
X135653454Y-74594135D01*
X135526134Y-74507141D01*
X135375000Y-74476536D01*
X133875000Y-74476536D01*
X133733810Y-74503103D01*
X133604135Y-74586546D01*
X133517141Y-74713866D01*
X133486536Y-74865000D01*
X133486536Y-74869398D01*
X133428454Y-74779135D01*
X133301134Y-74692141D01*
X133206000Y-74672876D01*
X133206000Y-74264592D01*
X135171137Y-72299455D01*
X135253712Y-72354629D01*
X135730000Y-72449369D01*
X136206288Y-72354629D01*
X136610065Y-72084834D01*
X136879860Y-71681057D01*
X136974600Y-71204769D01*
X136974600Y-70845231D01*
X137025400Y-70845231D01*
X137025400Y-71204769D01*
X137120140Y-71681057D01*
X137389935Y-72084834D01*
X137793712Y-72354629D01*
X138270000Y-72449369D01*
X138746288Y-72354629D01*
X139150065Y-72084834D01*
X139419860Y-71681057D01*
X139514600Y-71204769D01*
X139514600Y-70845231D01*
X139565400Y-70845231D01*
X139565400Y-71204769D01*
X139660140Y-71681057D01*
X139929935Y-72084834D01*
X140333712Y-72354629D01*
X140810000Y-72449369D01*
X141286288Y-72354629D01*
X141690065Y-72084834D01*
X141959860Y-71681057D01*
X141962704Y-71666757D01*
X142058046Y-71939320D01*
X142447964Y-72375732D01*
X142975209Y-72629709D01*
X142990974Y-72632358D01*
X143223000Y-72511217D01*
X143223000Y-71152000D01*
X143477000Y-71152000D01*
X143477000Y-72511217D01*
X143709026Y-72632358D01*
X143724791Y-72629709D01*
X144252036Y-72375732D01*
X144641954Y-71939320D01*
X144835184Y-71386913D01*
X144690924Y-71152000D01*
X143477000Y-71152000D01*
X143223000Y-71152000D01*
X143203000Y-71152000D01*
X143203000Y-70898000D01*
X143223000Y-70898000D01*
X143223000Y-69538783D01*
X143477000Y-69538783D01*
X143477000Y-70898000D01*
X144690924Y-70898000D01*
X144835184Y-70663087D01*
X144641954Y-70110680D01*
X144252036Y-69674268D01*
X143724791Y-69420291D01*
X143709026Y-69417642D01*
X143477000Y-69538783D01*
X143223000Y-69538783D01*
X142990974Y-69417642D01*
X142975209Y-69420291D01*
X142447964Y-69674268D01*
X142058046Y-70110680D01*
X141962704Y-70383243D01*
X141959860Y-70368943D01*
X141690065Y-69965166D01*
X141286288Y-69695371D01*
X140810000Y-69600631D01*
X140333712Y-69695371D01*
X139929935Y-69965166D01*
X139660140Y-70368943D01*
X139565400Y-70845231D01*
X139514600Y-70845231D01*
X139419860Y-70368943D01*
X139150065Y-69965166D01*
X138746288Y-69695371D01*
X138270000Y-69600631D01*
X137793712Y-69695371D01*
X137389935Y-69965166D01*
X137120140Y-70368943D01*
X137025400Y-70845231D01*
X136974600Y-70845231D01*
X136879860Y-70368943D01*
X136610065Y-69965166D01*
X136206288Y-69695371D01*
X135730000Y-69600631D01*
X135253712Y-69695371D01*
X134849935Y-69965166D01*
X134580140Y-70368943D01*
X134485400Y-70845231D01*
X134485400Y-71204769D01*
X134543343Y-71496065D01*
X134302625Y-71736783D01*
X134339860Y-71681057D01*
X134434600Y-71204769D01*
X134434600Y-70845231D01*
X134339860Y-70368943D01*
X134070065Y-69965166D01*
X133666288Y-69695371D01*
X133190000Y-69600631D01*
X132713712Y-69695371D01*
X132309935Y-69965166D01*
X132040140Y-70368943D01*
X131945400Y-70845231D01*
X131945400Y-71204769D01*
X132040140Y-71681057D01*
X132309935Y-72084834D01*
X132713712Y-72354629D01*
X133190000Y-72449369D01*
X133666288Y-72354629D01*
X133722014Y-72317394D01*
X132342204Y-73697204D01*
X132232517Y-73861362D01*
X132194000Y-74055000D01*
X132194000Y-74672073D01*
X132108810Y-74688103D01*
X131979135Y-74771546D01*
X131892141Y-74898866D01*
X131889806Y-74910397D01*
X131842204Y-74942204D01*
X130117204Y-76667204D01*
X130007517Y-76831362D01*
X129969000Y-77025000D01*
X125456000Y-77025000D01*
X125456000Y-70009000D01*
X129397936Y-70009000D01*
X129397936Y-72041000D01*
X129424503Y-72182190D01*
X129507946Y-72311865D01*
X129635266Y-72398859D01*
X129786400Y-72429464D01*
X131513600Y-72429464D01*
X131654790Y-72402897D01*
X131784465Y-72319454D01*
X131871459Y-72192134D01*
X131902064Y-72041000D01*
X131902064Y-70009000D01*
X131875497Y-69867810D01*
X131792054Y-69738135D01*
X131664734Y-69651141D01*
X131513600Y-69620536D01*
X129786400Y-69620536D01*
X129645210Y-69647103D01*
X129515535Y-69730546D01*
X129428541Y-69857866D01*
X129397936Y-70009000D01*
X125456000Y-70009000D01*
X125456000Y-68806000D01*
X149544000Y-68806000D01*
X149544000Y-92919000D01*
X149544000Y-92919000D01*
G37*
X149544000Y-92919000D02*
X125456000Y-92919000D01*
X125456000Y-90247513D01*
X126618674Y-90247513D01*
X126904436Y-90939109D01*
X127433108Y-91468704D01*
X128124204Y-91755673D01*
X128872513Y-91756326D01*
X129564109Y-91470564D01*
X130093704Y-90941892D01*
X130380673Y-90250796D01*
X130380675Y-90247513D01*
X144593674Y-90247513D01*
X144879436Y-90939109D01*
X145408108Y-91468704D01*
X146099204Y-91755673D01*
X146847513Y-91756326D01*
X147539109Y-91470564D01*
X148068704Y-90941892D01*
X148355673Y-90250796D01*
X148356326Y-89502487D01*
X148070564Y-88810891D01*
X147541892Y-88281296D01*
X146850796Y-87994327D01*
X146102487Y-87993674D01*
X145410891Y-88279436D01*
X144881296Y-88808108D01*
X144594327Y-89499204D01*
X144593674Y-90247513D01*
X130380675Y-90247513D01*
X130381326Y-89502487D01*
X130095564Y-88810891D01*
X129566892Y-88281296D01*
X128875796Y-87994327D01*
X128127487Y-87993674D01*
X127435891Y-88279436D01*
X126906296Y-88808108D01*
X126619327Y-89499204D01*
X126618674Y-90247513D01*
X125456000Y-90247513D01*
X125456000Y-82933750D01*
X131615000Y-82933750D01*
X131615000Y-83026309D01*
X131711673Y-83259698D01*
X131890301Y-83438327D01*
X132123690Y-83535000D01*
X132414250Y-83535000D01*
X132573000Y-83376250D01*
X132573000Y-82775000D01*
X131773750Y-82775000D01*
X131615000Y-82933750D01*
X125456000Y-82933750D01*
X125456000Y-77025000D01*
X129969000Y-77025000D01*
X129969000Y-77950000D01*
X130007517Y-78143638D01*
X130117204Y-78307796D01*
X131082721Y-79273313D01*
X131016066Y-79317851D01*
X130942204Y-79367204D01*
X130517204Y-79792204D01*
X130407517Y-79956362D01*
X130369000Y-80150000D01*
X130369000Y-80675000D01*
X130407517Y-80868638D01*
X130517204Y-81032796D01*
X130992204Y-81507796D01*
X131156362Y-81617483D01*
X131350000Y-81656000D01*
X131961981Y-81656000D01*
X131971546Y-81670865D01*
X132098866Y-81757859D01*
X132134130Y-81765000D01*
X132123690Y-81765000D01*
X131890301Y-81861673D01*
X131711673Y-82040302D01*
X131615000Y-82273691D01*
X131615000Y-82366250D01*
X131773750Y-82525000D01*
X132573000Y-82525000D01*
X132573000Y-82503000D01*
X132827000Y-82503000D01*
X132827000Y-82525000D01*
X132847000Y-82525000D01*
X132847000Y-82775000D01*
X132827000Y-82775000D01*
X132827000Y-83376250D01*
X132985750Y-83535000D01*
X133276310Y-83535000D01*
X133509699Y-83438327D01*
X133594829Y-83353197D01*
X133596546Y-83355865D01*
X133723866Y-83442859D01*
X133875000Y-83473464D01*
X133958694Y-83473464D01*
X133894127Y-83628957D01*
X133893874Y-83919767D01*
X134004927Y-84188537D01*
X134210381Y-84394350D01*
X134478957Y-84505873D01*
X134769767Y-84506126D01*
X135038537Y-84395073D01*
X135244350Y-84189619D01*
X135355873Y-83921043D01*
X135356126Y-83630233D01*
X135291351Y-83473464D01*
X135375000Y-83473464D01*
X135516190Y-83446897D01*
X135645865Y-83363454D01*
X135694093Y-83292870D01*
X135693874Y-83544767D01*
X135804927Y-83813537D01*
X136010381Y-84019350D01*
X136278957Y-84130873D01*
X136569767Y-84131126D01*
X136838537Y-84020073D01*
X137044350Y-83814619D01*
X137155873Y-83546043D01*
X137156013Y-83384579D01*
X138886536Y-81654056D01*
X138886536Y-81815000D01*
X138913103Y-81956190D01*
X138996546Y-82085865D01*
X139091187Y-82150530D01*
X139004135Y-82206546D01*
X138917141Y-82333866D01*
X138886536Y-82485000D01*
X138886536Y-83085000D01*
X138913103Y-83226190D01*
X138996546Y-83355865D01*
X139123866Y-83442859D01*
X139275000Y-83473464D01*
X140775000Y-83473464D01*
X140916190Y-83446897D01*
X141045865Y-83363454D01*
X141095371Y-83291000D01*
X142715000Y-83291000D01*
X142908638Y-83252483D01*
X143072796Y-83142796D01*
X143777128Y-82438464D01*
X144150000Y-82438464D01*
X144291190Y-82411897D01*
X144420865Y-82328454D01*
X144507859Y-82201134D01*
X144538464Y-82050000D01*
X144538464Y-81150000D01*
X144511897Y-81008810D01*
X144428454Y-80879135D01*
X144330679Y-80812329D01*
X144420915Y-80754264D01*
X144507909Y-80626944D01*
X144538514Y-80475810D01*
X144538514Y-79675710D01*
X144511947Y-79534520D01*
X144428504Y-79404845D01*
X144301184Y-79317851D01*
X144150050Y-79287246D01*
X143349950Y-79287246D01*
X143208760Y-79313813D01*
X143079085Y-79397256D01*
X142992091Y-79524576D01*
X142961486Y-79675710D01*
X142961486Y-80475810D01*
X142988053Y-80617000D01*
X143071496Y-80746675D01*
X143198816Y-80833669D01*
X143244000Y-80842819D01*
X143244000Y-81450000D01*
X143259000Y-81525408D01*
X143038464Y-81745944D01*
X143038464Y-81150000D01*
X143011897Y-81008810D01*
X142928454Y-80879135D01*
X142801134Y-80792141D01*
X142650000Y-80761536D01*
X142509614Y-80761536D01*
X142520915Y-80754264D01*
X142607909Y-80626944D01*
X142638514Y-80475810D01*
X142638514Y-79675710D01*
X142611947Y-79534520D01*
X142528504Y-79404845D01*
X142401184Y-79317851D01*
X142250050Y-79287246D01*
X141449950Y-79287246D01*
X141410000Y-79294763D01*
X141410000Y-79260750D01*
X141251250Y-79102000D01*
X140152000Y-79102000D01*
X140152000Y-79122000D01*
X139898000Y-79122000D01*
X139898000Y-79102000D01*
X138798750Y-79102000D01*
X138640000Y-79260750D01*
X138640000Y-79401310D01*
X138736673Y-79634699D01*
X138913554Y-79811579D01*
X138886536Y-79945000D01*
X138886536Y-80222872D01*
X136440395Y-82669013D01*
X136280233Y-82668874D01*
X136011463Y-82779927D01*
X135805650Y-82985381D01*
X135762683Y-83088856D01*
X135763464Y-83085000D01*
X135763464Y-82485000D01*
X135736897Y-82343810D01*
X135653454Y-82214135D01*
X135558813Y-82149470D01*
X135645865Y-82093454D01*
X135732859Y-81966134D01*
X135763464Y-81815000D01*
X135763464Y-81215000D01*
X135736897Y-81073810D01*
X135653454Y-80944135D01*
X135558813Y-80879470D01*
X135645865Y-80823454D01*
X135732859Y-80696134D01*
X135763464Y-80545000D01*
X135763464Y-79945000D01*
X135736897Y-79803810D01*
X135653454Y-79674135D01*
X135558813Y-79609470D01*
X135614624Y-79573557D01*
X135635381Y-79594350D01*
X135903957Y-79705873D01*
X135968951Y-79705930D01*
X135968874Y-79794767D01*
X136079927Y-80063537D01*
X136285381Y-80269350D01*
X136553957Y-80380873D01*
X136844767Y-80381126D01*
X137113537Y-80270073D01*
X137319350Y-80064619D01*
X137430873Y-79796043D01*
X137431126Y-79505233D01*
X137320073Y-79236463D01*
X137206000Y-79122191D01*
X137206000Y-78548690D01*
X138640000Y-78548690D01*
X138640000Y-78689250D01*
X138798750Y-78848000D01*
X139898000Y-78848000D01*
X139898000Y-78828000D01*
X140152000Y-78828000D01*
X140152000Y-78848000D01*
X141251250Y-78848000D01*
X141410000Y-78689250D01*
X141410000Y-78548690D01*
X141313327Y-78315301D01*
X141136446Y-78138421D01*
X141163464Y-78005000D01*
X141163464Y-77543632D01*
X141323691Y-77610000D01*
X141564250Y-77610000D01*
X141723000Y-77451250D01*
X141723000Y-76727000D01*
X141703000Y-76727000D01*
X141703000Y-76473000D01*
X141723000Y-76473000D01*
X141723000Y-75748750D01*
X141564250Y-75590000D01*
X141323691Y-75590000D01*
X141090302Y-75686673D01*
X141072495Y-75704480D01*
X141132859Y-75616134D01*
X141163464Y-75465000D01*
X141163464Y-75219767D01*
X141893874Y-75219767D01*
X142004927Y-75488537D01*
X142120969Y-75604781D01*
X141977000Y-75748750D01*
X141977000Y-76473000D01*
X141997000Y-76473000D01*
X141997000Y-76727000D01*
X141977000Y-76727000D01*
X141977000Y-77451250D01*
X142045848Y-77520098D01*
X142042091Y-77525596D01*
X142011486Y-77676730D01*
X142011486Y-78476830D01*
X142038053Y-78618020D01*
X142121496Y-78747695D01*
X142248816Y-78834689D01*
X142399950Y-78865294D01*
X143200050Y-78865294D01*
X143341240Y-78838727D01*
X143470915Y-78755284D01*
X143557909Y-78627964D01*
X143588514Y-78476830D01*
X143588514Y-78003858D01*
X143707796Y-77884576D01*
X143817483Y-77720418D01*
X143856000Y-77526780D01*
X143856000Y-77343519D01*
X143891190Y-77336897D01*
X144020865Y-77253454D01*
X144107859Y-77126134D01*
X144138464Y-76975000D01*
X144138464Y-76225000D01*
X144111897Y-76083810D01*
X144028454Y-75954135D01*
X143901134Y-75867141D01*
X143856000Y-75858001D01*
X143856000Y-75800000D01*
X143817483Y-75606362D01*
X143707796Y-75442204D01*
X143355987Y-75090395D01*
X143356126Y-74930233D01*
X143245073Y-74661463D01*
X143039619Y-74455650D01*
X142771043Y-74344127D01*
X142480233Y-74343874D01*
X142211463Y-74454927D01*
X142005650Y-74660381D01*
X141894127Y-74928957D01*
X141893874Y-75219767D01*
X141163464Y-75219767D01*
X141163464Y-74865000D01*
X141136897Y-74723810D01*
X141053454Y-74594135D01*
X140926134Y-74507141D01*
X140775000Y-74476536D01*
X139275000Y-74476536D01*
X139133810Y-74503103D01*
X139004135Y-74586546D01*
X138917141Y-74713866D01*
X138886536Y-74865000D01*
X138886536Y-75465000D01*
X138913103Y-75606190D01*
X138996546Y-75735865D01*
X139091187Y-75800530D01*
X139004135Y-75856546D01*
X138917141Y-75983866D01*
X138886536Y-76135000D01*
X138886536Y-76735000D01*
X138913103Y-76876190D01*
X138996546Y-77005865D01*
X139091187Y-77070530D01*
X139004135Y-77126546D01*
X138917141Y-77253866D01*
X138886536Y-77405000D01*
X138886536Y-78005000D01*
X138911944Y-78140031D01*
X138736673Y-78315301D01*
X138640000Y-78548690D01*
X137206000Y-78548690D01*
X137206000Y-76350000D01*
X137167483Y-76156362D01*
X137057796Y-75992204D01*
X135872796Y-74807204D01*
X135728531Y-74710809D01*
X135653454Y-74594135D01*
X135526134Y-74507141D01*
X135375000Y-74476536D01*
X133875000Y-74476536D01*
X133733810Y-74503103D01*
X133604135Y-74586546D01*
X133517141Y-74713866D01*
X133486536Y-74865000D01*
X133486536Y-74869398D01*
X133428454Y-74779135D01*
X133301134Y-74692141D01*
X133206000Y-74672876D01*
X133206000Y-74264592D01*
X135171137Y-72299455D01*
X135253712Y-72354629D01*
X135730000Y-72449369D01*
X136206288Y-72354629D01*
X136610065Y-72084834D01*
X136879860Y-71681057D01*
X136974600Y-71204769D01*
X136974600Y-70845231D01*
X137025400Y-70845231D01*
X137025400Y-71204769D01*
X137120140Y-71681057D01*
X137389935Y-72084834D01*
X137793712Y-72354629D01*
X138270000Y-72449369D01*
X138746288Y-72354629D01*
X139150065Y-72084834D01*
X139419860Y-71681057D01*
X139514600Y-71204769D01*
X139514600Y-70845231D01*
X139565400Y-70845231D01*
X139565400Y-71204769D01*
X139660140Y-71681057D01*
X139929935Y-72084834D01*
X140333712Y-72354629D01*
X140810000Y-72449369D01*
X141286288Y-72354629D01*
X141690065Y-72084834D01*
X141959860Y-71681057D01*
X141962704Y-71666757D01*
X142058046Y-71939320D01*
X142447964Y-72375732D01*
X142975209Y-72629709D01*
X142990974Y-72632358D01*
X143223000Y-72511217D01*
X143223000Y-71152000D01*
X143477000Y-71152000D01*
X143477000Y-72511217D01*
X143709026Y-72632358D01*
X143724791Y-72629709D01*
X144252036Y-72375732D01*
X144641954Y-71939320D01*
X144835184Y-71386913D01*
X144690924Y-71152000D01*
X143477000Y-71152000D01*
X143223000Y-71152000D01*
X143203000Y-71152000D01*
X143203000Y-70898000D01*
X143223000Y-70898000D01*
X143223000Y-69538783D01*
X143477000Y-69538783D01*
X143477000Y-70898000D01*
X144690924Y-70898000D01*
X144835184Y-70663087D01*
X144641954Y-70110680D01*
X144252036Y-69674268D01*
X143724791Y-69420291D01*
X143709026Y-69417642D01*
X143477000Y-69538783D01*
X143223000Y-69538783D01*
X142990974Y-69417642D01*
X142975209Y-69420291D01*
X142447964Y-69674268D01*
X142058046Y-70110680D01*
X141962704Y-70383243D01*
X141959860Y-70368943D01*
X141690065Y-69965166D01*
X141286288Y-69695371D01*
X140810000Y-69600631D01*
X140333712Y-69695371D01*
X139929935Y-69965166D01*
X139660140Y-70368943D01*
X139565400Y-70845231D01*
X139514600Y-70845231D01*
X139419860Y-70368943D01*
X139150065Y-69965166D01*
X138746288Y-69695371D01*
X138270000Y-69600631D01*
X137793712Y-69695371D01*
X137389935Y-69965166D01*
X137120140Y-70368943D01*
X137025400Y-70845231D01*
X136974600Y-70845231D01*
X136879860Y-70368943D01*
X136610065Y-69965166D01*
X136206288Y-69695371D01*
X135730000Y-69600631D01*
X135253712Y-69695371D01*
X134849935Y-69965166D01*
X134580140Y-70368943D01*
X134485400Y-70845231D01*
X134485400Y-71204769D01*
X134543343Y-71496065D01*
X134302625Y-71736783D01*
X134339860Y-71681057D01*
X134434600Y-71204769D01*
X134434600Y-70845231D01*
X134339860Y-70368943D01*
X134070065Y-69965166D01*
X133666288Y-69695371D01*
X133190000Y-69600631D01*
X132713712Y-69695371D01*
X132309935Y-69965166D01*
X132040140Y-70368943D01*
X131945400Y-70845231D01*
X131945400Y-71204769D01*
X132040140Y-71681057D01*
X132309935Y-72084834D01*
X132713712Y-72354629D01*
X133190000Y-72449369D01*
X133666288Y-72354629D01*
X133722014Y-72317394D01*
X132342204Y-73697204D01*
X132232517Y-73861362D01*
X132194000Y-74055000D01*
X132194000Y-74672073D01*
X132108810Y-74688103D01*
X131979135Y-74771546D01*
X131892141Y-74898866D01*
X131889806Y-74910397D01*
X131842204Y-74942204D01*
X130117204Y-76667204D01*
X130007517Y-76831362D01*
X129969000Y-77025000D01*
X125456000Y-77025000D01*
X125456000Y-70009000D01*
X129397936Y-70009000D01*
X129397936Y-72041000D01*
X129424503Y-72182190D01*
X129507946Y-72311865D01*
X129635266Y-72398859D01*
X129786400Y-72429464D01*
X131513600Y-72429464D01*
X131654790Y-72402897D01*
X131784465Y-72319454D01*
X131871459Y-72192134D01*
X131902064Y-72041000D01*
X131902064Y-70009000D01*
X131875497Y-69867810D01*
X131792054Y-69738135D01*
X131664734Y-69651141D01*
X131513600Y-69620536D01*
X129786400Y-69620536D01*
X129645210Y-69647103D01*
X129515535Y-69730546D01*
X129428541Y-69857866D01*
X129397936Y-70009000D01*
X125456000Y-70009000D01*
X125456000Y-68806000D01*
X149544000Y-68806000D01*
X149544000Y-92919000D01*
M02*
