G04 #@! TF.FileFunction,Copper,L2,Bot,Signal*
%FSLAX46Y46*%
G04 Gerber Fmt 4.6, Leading zero omitted, Abs format (unit mm)*
G04 Created by KiCad (PCBNEW 4.0.1-stable) date 3/2/2016 10:49:52 AM*
%MOMM*%
G01*
G04 APERTURE LIST*
%ADD10C,0.100000*%
%ADD11R,1.727200X2.032000*%
%ADD12O,1.727200X2.032000*%
%ADD13C,0.600000*%
%ADD14C,0.250000*%
%ADD15C,0.254000*%
G04 APERTURE END LIST*
D10*
D11*
X133875000Y-100275000D03*
D12*
X136415000Y-100275000D03*
X138955000Y-100275000D03*
X141495000Y-100275000D03*
X144035000Y-100275000D03*
X146575000Y-100275000D03*
D13*
X137625000Y-103200000D03*
X132150000Y-108250000D03*
X133600000Y-105700000D03*
D14*
X146575000Y-100275000D02*
X144150000Y-102700000D01*
X138125000Y-102700000D02*
X137625000Y-103200000D01*
X144150000Y-102700000D02*
X138125000Y-102700000D01*
X133875000Y-100275000D02*
X133875000Y-102750000D01*
X132150000Y-104475000D02*
X132150000Y-108250000D01*
X133875000Y-102750000D02*
X132150000Y-104475000D01*
X136415000Y-100275000D02*
X136415000Y-102885000D01*
X136415000Y-102885000D02*
X133600000Y-105700000D01*
D15*
G36*
X150394000Y-121794000D02*
X126256000Y-121794000D01*
X126256000Y-118447513D01*
X128693674Y-118447513D01*
X128979436Y-119139109D01*
X129508108Y-119668704D01*
X130199204Y-119955673D01*
X130947513Y-119956326D01*
X131639109Y-119670564D01*
X132168704Y-119141892D01*
X132455673Y-118450796D01*
X132455675Y-118447513D01*
X136693674Y-118447513D01*
X136979436Y-119139109D01*
X137508108Y-119668704D01*
X138199204Y-119955673D01*
X138947513Y-119956326D01*
X139639109Y-119670564D01*
X140168704Y-119141892D01*
X140455673Y-118450796D01*
X140455675Y-118447513D01*
X144668674Y-118447513D01*
X144954436Y-119139109D01*
X145483108Y-119668704D01*
X146174204Y-119955673D01*
X146922513Y-119956326D01*
X147614109Y-119670564D01*
X148143704Y-119141892D01*
X148430673Y-118450796D01*
X148431326Y-117702487D01*
X148145564Y-117010891D01*
X147616892Y-116481296D01*
X146925796Y-116194327D01*
X146177487Y-116193674D01*
X145485891Y-116479436D01*
X144956296Y-117008108D01*
X144669327Y-117699204D01*
X144668674Y-118447513D01*
X140455675Y-118447513D01*
X140456326Y-117702487D01*
X140170564Y-117010891D01*
X139641892Y-116481296D01*
X138950796Y-116194327D01*
X138202487Y-116193674D01*
X137510891Y-116479436D01*
X136981296Y-117008108D01*
X136694327Y-117699204D01*
X136693674Y-118447513D01*
X132455675Y-118447513D01*
X132456326Y-117702487D01*
X132170564Y-117010891D01*
X131641892Y-116481296D01*
X130950796Y-116194327D01*
X130202487Y-116193674D01*
X129510891Y-116479436D01*
X128981296Y-117008108D01*
X128694327Y-117699204D01*
X128693674Y-118447513D01*
X126256000Y-118447513D01*
X126256000Y-108384865D01*
X131468882Y-108384865D01*
X131572339Y-108635252D01*
X131763741Y-108826987D01*
X132013946Y-108930882D01*
X132284865Y-108931118D01*
X132535252Y-108827661D01*
X132726987Y-108636259D01*
X132830882Y-108386054D01*
X132831118Y-108115135D01*
X132727661Y-107864748D01*
X132656000Y-107792962D01*
X132656000Y-105834865D01*
X132918882Y-105834865D01*
X133022339Y-106085252D01*
X133213741Y-106276987D01*
X133463946Y-106380882D01*
X133734865Y-106381118D01*
X133985252Y-106277661D01*
X134176987Y-106086259D01*
X134280882Y-105836054D01*
X134280970Y-105734622D01*
X136772796Y-103242796D01*
X136882483Y-103078638D01*
X136921000Y-102885000D01*
X136921000Y-101584776D01*
X137295065Y-101334834D01*
X137564860Y-100931057D01*
X137659600Y-100454769D01*
X137659600Y-100095231D01*
X137710400Y-100095231D01*
X137710400Y-100454769D01*
X137805140Y-100931057D01*
X138074935Y-101334834D01*
X138478712Y-101604629D01*
X138955000Y-101699369D01*
X139431288Y-101604629D01*
X139835065Y-101334834D01*
X140104860Y-100931057D01*
X140199600Y-100454769D01*
X140199600Y-100095231D01*
X140250400Y-100095231D01*
X140250400Y-100454769D01*
X140345140Y-100931057D01*
X140614935Y-101334834D01*
X141018712Y-101604629D01*
X141495000Y-101699369D01*
X141971288Y-101604629D01*
X142375065Y-101334834D01*
X142644860Y-100931057D01*
X142739600Y-100454769D01*
X142739600Y-100095231D01*
X142790400Y-100095231D01*
X142790400Y-100454769D01*
X142885140Y-100931057D01*
X143154935Y-101334834D01*
X143558712Y-101604629D01*
X144035000Y-101699369D01*
X144511288Y-101604629D01*
X144915065Y-101334834D01*
X145184860Y-100931057D01*
X145187704Y-100916757D01*
X145283046Y-101189320D01*
X145672964Y-101625732D01*
X146200209Y-101879709D01*
X146215974Y-101882358D01*
X146448000Y-101761217D01*
X146448000Y-100402000D01*
X146702000Y-100402000D01*
X146702000Y-101761217D01*
X146934026Y-101882358D01*
X146949791Y-101879709D01*
X147477036Y-101625732D01*
X147866954Y-101189320D01*
X148060184Y-100636913D01*
X147915924Y-100402000D01*
X146702000Y-100402000D01*
X146448000Y-100402000D01*
X146428000Y-100402000D01*
X146428000Y-100148000D01*
X146448000Y-100148000D01*
X146448000Y-98788783D01*
X146702000Y-98788783D01*
X146702000Y-100148000D01*
X147915924Y-100148000D01*
X148060184Y-99913087D01*
X147866954Y-99360680D01*
X147477036Y-98924268D01*
X146949791Y-98670291D01*
X146934026Y-98667642D01*
X146702000Y-98788783D01*
X146448000Y-98788783D01*
X146215974Y-98667642D01*
X146200209Y-98670291D01*
X145672964Y-98924268D01*
X145283046Y-99360680D01*
X145187704Y-99633243D01*
X145184860Y-99618943D01*
X144915065Y-99215166D01*
X144511288Y-98945371D01*
X144035000Y-98850631D01*
X143558712Y-98945371D01*
X143154935Y-99215166D01*
X142885140Y-99618943D01*
X142790400Y-100095231D01*
X142739600Y-100095231D01*
X142644860Y-99618943D01*
X142375065Y-99215166D01*
X141971288Y-98945371D01*
X141495000Y-98850631D01*
X141018712Y-98945371D01*
X140614935Y-99215166D01*
X140345140Y-99618943D01*
X140250400Y-100095231D01*
X140199600Y-100095231D01*
X140104860Y-99618943D01*
X139835065Y-99215166D01*
X139431288Y-98945371D01*
X138955000Y-98850631D01*
X138478712Y-98945371D01*
X138074935Y-99215166D01*
X137805140Y-99618943D01*
X137710400Y-100095231D01*
X137659600Y-100095231D01*
X137564860Y-99618943D01*
X137295065Y-99215166D01*
X136891288Y-98945371D01*
X136415000Y-98850631D01*
X135938712Y-98945371D01*
X135534935Y-99215166D01*
X135265140Y-99618943D01*
X135170400Y-100095231D01*
X135170400Y-100454769D01*
X135265140Y-100931057D01*
X135534935Y-101334834D01*
X135909000Y-101584776D01*
X135909000Y-102675408D01*
X133565439Y-105018969D01*
X133465135Y-105018882D01*
X133214748Y-105122339D01*
X133023013Y-105313741D01*
X132919118Y-105563946D01*
X132918882Y-105834865D01*
X132656000Y-105834865D01*
X132656000Y-104684592D01*
X134232796Y-103107796D01*
X134342483Y-102943638D01*
X134381000Y-102750000D01*
X134381000Y-101679464D01*
X134738600Y-101679464D01*
X134879790Y-101652897D01*
X135009465Y-101569454D01*
X135096459Y-101442134D01*
X135127064Y-101291000D01*
X135127064Y-99259000D01*
X135100497Y-99117810D01*
X135017054Y-98988135D01*
X134889734Y-98901141D01*
X134738600Y-98870536D01*
X133011400Y-98870536D01*
X132870210Y-98897103D01*
X132740535Y-98980546D01*
X132653541Y-99107866D01*
X132622936Y-99259000D01*
X132622936Y-101291000D01*
X132649503Y-101432190D01*
X132732946Y-101561865D01*
X132860266Y-101648859D01*
X133011400Y-101679464D01*
X133369000Y-101679464D01*
X133369000Y-102540408D01*
X131792204Y-104117204D01*
X131682517Y-104281362D01*
X131644000Y-104475000D01*
X131644000Y-107792877D01*
X131573013Y-107863741D01*
X131469118Y-108113946D01*
X131468882Y-108384865D01*
X126256000Y-108384865D01*
X126256000Y-97656000D01*
X150394000Y-97656000D01*
X150394000Y-121794000D01*
X150394000Y-121794000D01*
G37*
X150394000Y-121794000D02*
X126256000Y-121794000D01*
X126256000Y-118447513D01*
X128693674Y-118447513D01*
X128979436Y-119139109D01*
X129508108Y-119668704D01*
X130199204Y-119955673D01*
X130947513Y-119956326D01*
X131639109Y-119670564D01*
X132168704Y-119141892D01*
X132455673Y-118450796D01*
X132455675Y-118447513D01*
X136693674Y-118447513D01*
X136979436Y-119139109D01*
X137508108Y-119668704D01*
X138199204Y-119955673D01*
X138947513Y-119956326D01*
X139639109Y-119670564D01*
X140168704Y-119141892D01*
X140455673Y-118450796D01*
X140455675Y-118447513D01*
X144668674Y-118447513D01*
X144954436Y-119139109D01*
X145483108Y-119668704D01*
X146174204Y-119955673D01*
X146922513Y-119956326D01*
X147614109Y-119670564D01*
X148143704Y-119141892D01*
X148430673Y-118450796D01*
X148431326Y-117702487D01*
X148145564Y-117010891D01*
X147616892Y-116481296D01*
X146925796Y-116194327D01*
X146177487Y-116193674D01*
X145485891Y-116479436D01*
X144956296Y-117008108D01*
X144669327Y-117699204D01*
X144668674Y-118447513D01*
X140455675Y-118447513D01*
X140456326Y-117702487D01*
X140170564Y-117010891D01*
X139641892Y-116481296D01*
X138950796Y-116194327D01*
X138202487Y-116193674D01*
X137510891Y-116479436D01*
X136981296Y-117008108D01*
X136694327Y-117699204D01*
X136693674Y-118447513D01*
X132455675Y-118447513D01*
X132456326Y-117702487D01*
X132170564Y-117010891D01*
X131641892Y-116481296D01*
X130950796Y-116194327D01*
X130202487Y-116193674D01*
X129510891Y-116479436D01*
X128981296Y-117008108D01*
X128694327Y-117699204D01*
X128693674Y-118447513D01*
X126256000Y-118447513D01*
X126256000Y-108384865D01*
X131468882Y-108384865D01*
X131572339Y-108635252D01*
X131763741Y-108826987D01*
X132013946Y-108930882D01*
X132284865Y-108931118D01*
X132535252Y-108827661D01*
X132726987Y-108636259D01*
X132830882Y-108386054D01*
X132831118Y-108115135D01*
X132727661Y-107864748D01*
X132656000Y-107792962D01*
X132656000Y-105834865D01*
X132918882Y-105834865D01*
X133022339Y-106085252D01*
X133213741Y-106276987D01*
X133463946Y-106380882D01*
X133734865Y-106381118D01*
X133985252Y-106277661D01*
X134176987Y-106086259D01*
X134280882Y-105836054D01*
X134280970Y-105734622D01*
X136772796Y-103242796D01*
X136882483Y-103078638D01*
X136921000Y-102885000D01*
X136921000Y-101584776D01*
X137295065Y-101334834D01*
X137564860Y-100931057D01*
X137659600Y-100454769D01*
X137659600Y-100095231D01*
X137710400Y-100095231D01*
X137710400Y-100454769D01*
X137805140Y-100931057D01*
X138074935Y-101334834D01*
X138478712Y-101604629D01*
X138955000Y-101699369D01*
X139431288Y-101604629D01*
X139835065Y-101334834D01*
X140104860Y-100931057D01*
X140199600Y-100454769D01*
X140199600Y-100095231D01*
X140250400Y-100095231D01*
X140250400Y-100454769D01*
X140345140Y-100931057D01*
X140614935Y-101334834D01*
X141018712Y-101604629D01*
X141495000Y-101699369D01*
X141971288Y-101604629D01*
X142375065Y-101334834D01*
X142644860Y-100931057D01*
X142739600Y-100454769D01*
X142739600Y-100095231D01*
X142790400Y-100095231D01*
X142790400Y-100454769D01*
X142885140Y-100931057D01*
X143154935Y-101334834D01*
X143558712Y-101604629D01*
X144035000Y-101699369D01*
X144511288Y-101604629D01*
X144915065Y-101334834D01*
X145184860Y-100931057D01*
X145187704Y-100916757D01*
X145283046Y-101189320D01*
X145672964Y-101625732D01*
X146200209Y-101879709D01*
X146215974Y-101882358D01*
X146448000Y-101761217D01*
X146448000Y-100402000D01*
X146702000Y-100402000D01*
X146702000Y-101761217D01*
X146934026Y-101882358D01*
X146949791Y-101879709D01*
X147477036Y-101625732D01*
X147866954Y-101189320D01*
X148060184Y-100636913D01*
X147915924Y-100402000D01*
X146702000Y-100402000D01*
X146448000Y-100402000D01*
X146428000Y-100402000D01*
X146428000Y-100148000D01*
X146448000Y-100148000D01*
X146448000Y-98788783D01*
X146702000Y-98788783D01*
X146702000Y-100148000D01*
X147915924Y-100148000D01*
X148060184Y-99913087D01*
X147866954Y-99360680D01*
X147477036Y-98924268D01*
X146949791Y-98670291D01*
X146934026Y-98667642D01*
X146702000Y-98788783D01*
X146448000Y-98788783D01*
X146215974Y-98667642D01*
X146200209Y-98670291D01*
X145672964Y-98924268D01*
X145283046Y-99360680D01*
X145187704Y-99633243D01*
X145184860Y-99618943D01*
X144915065Y-99215166D01*
X144511288Y-98945371D01*
X144035000Y-98850631D01*
X143558712Y-98945371D01*
X143154935Y-99215166D01*
X142885140Y-99618943D01*
X142790400Y-100095231D01*
X142739600Y-100095231D01*
X142644860Y-99618943D01*
X142375065Y-99215166D01*
X141971288Y-98945371D01*
X141495000Y-98850631D01*
X141018712Y-98945371D01*
X140614935Y-99215166D01*
X140345140Y-99618943D01*
X140250400Y-100095231D01*
X140199600Y-100095231D01*
X140104860Y-99618943D01*
X139835065Y-99215166D01*
X139431288Y-98945371D01*
X138955000Y-98850631D01*
X138478712Y-98945371D01*
X138074935Y-99215166D01*
X137805140Y-99618943D01*
X137710400Y-100095231D01*
X137659600Y-100095231D01*
X137564860Y-99618943D01*
X137295065Y-99215166D01*
X136891288Y-98945371D01*
X136415000Y-98850631D01*
X135938712Y-98945371D01*
X135534935Y-99215166D01*
X135265140Y-99618943D01*
X135170400Y-100095231D01*
X135170400Y-100454769D01*
X135265140Y-100931057D01*
X135534935Y-101334834D01*
X135909000Y-101584776D01*
X135909000Y-102675408D01*
X133565439Y-105018969D01*
X133465135Y-105018882D01*
X133214748Y-105122339D01*
X133023013Y-105313741D01*
X132919118Y-105563946D01*
X132918882Y-105834865D01*
X132656000Y-105834865D01*
X132656000Y-104684592D01*
X134232796Y-103107796D01*
X134342483Y-102943638D01*
X134381000Y-102750000D01*
X134381000Y-101679464D01*
X134738600Y-101679464D01*
X134879790Y-101652897D01*
X135009465Y-101569454D01*
X135096459Y-101442134D01*
X135127064Y-101291000D01*
X135127064Y-99259000D01*
X135100497Y-99117810D01*
X135017054Y-98988135D01*
X134889734Y-98901141D01*
X134738600Y-98870536D01*
X133011400Y-98870536D01*
X132870210Y-98897103D01*
X132740535Y-98980546D01*
X132653541Y-99107866D01*
X132622936Y-99259000D01*
X132622936Y-101291000D01*
X132649503Y-101432190D01*
X132732946Y-101561865D01*
X132860266Y-101648859D01*
X133011400Y-101679464D01*
X133369000Y-101679464D01*
X133369000Y-102540408D01*
X131792204Y-104117204D01*
X131682517Y-104281362D01*
X131644000Y-104475000D01*
X131644000Y-107792877D01*
X131573013Y-107863741D01*
X131469118Y-108113946D01*
X131468882Y-108384865D01*
X126256000Y-108384865D01*
X126256000Y-97656000D01*
X150394000Y-97656000D01*
X150394000Y-121794000D01*
M02*
