G04 #@! TF.FileFunction,Copper,L1,Top,Signal*
%FSLAX46Y46*%
G04 Gerber Fmt 4.6, Leading zero omitted, Abs format (unit mm)*
G04 Created by KiCad (PCBNEW 4.0.1-stable) date 2/16/2016 5:46:20 PM*
%MOMM*%
G01*
G04 APERTURE LIST*
%ADD10C,0.100000*%
%ADD11R,0.500000X0.900000*%
%ADD12R,0.900000X0.500000*%
%ADD13R,1.500000X0.600000*%
%ADD14R,0.800100X0.800100*%
%ADD15R,0.800000X0.750000*%
%ADD16R,1.727200X2.032000*%
%ADD17O,1.727200X2.032000*%
%ADD18C,0.700000*%
%ADD19C,0.250000*%
G04 APERTURE END LIST*
D10*
D11*
X141200000Y-83550000D03*
X142700000Y-83550000D03*
D12*
X131350000Y-82800000D03*
X131350000Y-84300000D03*
X131350000Y-77200000D03*
X131350000Y-78700000D03*
X131350000Y-80000000D03*
X131350000Y-81500000D03*
D13*
X133350000Y-76940000D03*
X133350000Y-78210000D03*
X133350000Y-79480000D03*
X133350000Y-80750000D03*
X133350000Y-82020000D03*
X133350000Y-83290000D03*
X133350000Y-84560000D03*
X138750000Y-84560000D03*
X138750000Y-83290000D03*
X138750000Y-82020000D03*
X138750000Y-80750000D03*
X138750000Y-79480000D03*
X138750000Y-78210000D03*
X138750000Y-76940000D03*
D14*
X140650000Y-81950760D03*
X142550000Y-81950760D03*
X141600000Y-79951780D03*
D15*
X140650000Y-78400000D03*
X142150000Y-78400000D03*
D16*
X129100000Y-72750000D03*
D17*
X131640000Y-72750000D03*
X134180000Y-72750000D03*
X136720000Y-72750000D03*
X139260000Y-72750000D03*
X141800000Y-72750000D03*
D18*
X136250000Y-78100000D03*
X134750000Y-80100000D03*
X141400000Y-77250000D03*
X134950000Y-78950000D03*
X136250000Y-78950000D03*
X135600000Y-81400000D03*
X131950000Y-75550000D03*
X134750000Y-81400000D03*
X136950000Y-85150000D03*
X130000000Y-78550000D03*
X140300000Y-83300000D03*
X135150000Y-85150000D03*
X133350000Y-85400000D03*
X137350000Y-80750000D03*
X129350000Y-82300000D03*
D19*
X138750000Y-78210000D02*
X139190000Y-78210000D01*
X139190000Y-78210000D02*
X140150000Y-77250000D01*
X140150000Y-77250000D02*
X140150000Y-73640000D01*
X140150000Y-73640000D02*
X139260000Y-72750000D01*
X140650000Y-78400000D02*
X140650000Y-73900000D01*
X140650000Y-73900000D02*
X141800000Y-72750000D01*
X137410000Y-76940000D02*
X138750000Y-76940000D01*
X136250000Y-78100000D02*
X137410000Y-76940000D01*
X134130000Y-79480000D02*
X134750000Y-80100000D01*
X134130000Y-79480000D02*
X133350000Y-79480000D01*
X142150000Y-78400000D02*
X142150000Y-78000000D01*
X142150000Y-78000000D02*
X141400000Y-77250000D01*
X142150000Y-78400000D02*
X142150000Y-79401780D01*
X142150000Y-79401780D02*
X141600000Y-79951780D01*
X138750000Y-80750000D02*
X139700000Y-80750000D01*
X140650000Y-79800000D02*
X140650000Y-78400000D01*
X139700000Y-80750000D02*
X140650000Y-79800000D01*
X138750000Y-79480000D02*
X136780000Y-79480000D01*
X134210000Y-78210000D02*
X134950000Y-78950000D01*
X134210000Y-78210000D02*
X133350000Y-78210000D01*
X136780000Y-79480000D02*
X136250000Y-78950000D01*
X133890000Y-76940000D02*
X135600000Y-78650000D01*
X135600000Y-78650000D02*
X135600000Y-81400000D01*
X133350000Y-76940000D02*
X133890000Y-76940000D01*
X131350000Y-77200000D02*
X131350000Y-76150000D01*
X131350000Y-76150000D02*
X131950000Y-75550000D01*
X141200000Y-83550000D02*
X141200000Y-82500760D01*
X141200000Y-82500760D02*
X140650000Y-81950760D01*
X142700000Y-83550000D02*
X142700000Y-82100760D01*
X142700000Y-82100760D02*
X142550000Y-81950760D01*
X138750000Y-84560000D02*
X141690000Y-84560000D01*
X141690000Y-84560000D02*
X142700000Y-83550000D01*
X133350000Y-82020000D02*
X134130000Y-82020000D01*
X134130000Y-82020000D02*
X134750000Y-81400000D01*
X130550000Y-80750000D02*
X130000000Y-80750000D01*
X130000000Y-80750000D02*
X129350000Y-81400000D01*
X129350000Y-81400000D02*
X128700000Y-82050000D01*
X136050000Y-86050000D02*
X136950000Y-85150000D01*
X131550000Y-86050000D02*
X136050000Y-86050000D01*
X128700000Y-83200000D02*
X131550000Y-86050000D01*
X128700000Y-82050000D02*
X128700000Y-83200000D01*
X133350000Y-80750000D02*
X130550000Y-80750000D01*
X130000000Y-78550000D02*
X131350000Y-77200000D01*
X130000000Y-80200000D02*
X130000000Y-78550000D01*
X130550000Y-80750000D02*
X130000000Y-80200000D01*
X140290000Y-83290000D02*
X138750000Y-83290000D01*
X140300000Y-83300000D02*
X140290000Y-83290000D01*
X137180000Y-82020000D02*
X138750000Y-82020000D01*
X135150000Y-84050000D02*
X137180000Y-82020000D01*
X135150000Y-85150000D02*
X135150000Y-84050000D01*
X133350000Y-84560000D02*
X133350000Y-85400000D01*
X138750000Y-80750000D02*
X137350000Y-80750000D01*
X129350000Y-82300000D02*
X131350000Y-84300000D01*
X133350000Y-78210000D02*
X131840000Y-78210000D01*
X131840000Y-78210000D02*
X131350000Y-78700000D01*
X133350000Y-83290000D02*
X131840000Y-83290000D01*
X131840000Y-83290000D02*
X131350000Y-82800000D01*
X131350000Y-82800000D02*
X131350000Y-81500000D01*
X131350000Y-80000000D02*
X131350000Y-78700000D01*
M02*
