G04 #@! TF.FileFunction,Soldermask,Top*
%FSLAX46Y46*%
G04 Gerber Fmt 4.6, Leading zero omitted, Abs format (unit mm)*
G04 Created by KiCad (PCBNEW 4.0.1-stable) date 3/2/2016 10:49:52 AM*
%MOMM*%
G01*
G04 APERTURE LIST*
%ADD10C,0.100000*%
%ADD11R,0.800000X0.750000*%
%ADD12R,0.800100X0.800100*%
%ADD13R,1.727200X2.032000*%
%ADD14O,1.727200X2.032000*%
%ADD15R,0.900000X0.500000*%
%ADD16R,0.500000X0.900000*%
%ADD17R,1.500000X0.600000*%
%ADD18R,0.600000X1.550000*%
G04 APERTURE END LIST*
D10*
D11*
X139125000Y-104500000D03*
X137625000Y-104500000D03*
D12*
X137625000Y-108150760D03*
X139525000Y-108150760D03*
X138575000Y-106151780D03*
D13*
X133875000Y-100275000D03*
D14*
X136415000Y-100275000D03*
X138955000Y-100275000D03*
X141495000Y-100275000D03*
X144035000Y-100275000D03*
X146575000Y-100275000D03*
D15*
X128125000Y-102875000D03*
X128125000Y-104375000D03*
X128125000Y-106225000D03*
X128125000Y-107725000D03*
X128125000Y-109575000D03*
X128125000Y-111075000D03*
D16*
X131275000Y-101225000D03*
X129775000Y-101225000D03*
X129775000Y-112725000D03*
X131275000Y-112725000D03*
X132675000Y-112725000D03*
X134175000Y-112725000D03*
X143975000Y-112350000D03*
X145475000Y-112350000D03*
D15*
X137725000Y-109600000D03*
X137725000Y-111100000D03*
D17*
X130225000Y-103165000D03*
X130225000Y-104435000D03*
X130225000Y-105705000D03*
X130225000Y-106975000D03*
X130225000Y-108245000D03*
X130225000Y-109515000D03*
X130225000Y-110785000D03*
X135625000Y-110785000D03*
X135625000Y-109515000D03*
X135625000Y-108245000D03*
X135625000Y-106975000D03*
X135625000Y-105705000D03*
X135625000Y-104435000D03*
X135625000Y-103165000D03*
D18*
X145180000Y-104800000D03*
X143910000Y-104800000D03*
X142640000Y-104800000D03*
X141370000Y-104800000D03*
X141370000Y-110200000D03*
X142640000Y-110200000D03*
X143910000Y-110200000D03*
X145180000Y-110200000D03*
M02*
