G04 #@! TF.FileFunction,Copper,L2,Bot,Signal*
%FSLAX46Y46*%
G04 Gerber Fmt 4.6, Leading zero omitted, Abs format (unit mm)*
G04 Created by KiCad (PCBNEW 4.0.1-stable) date 2/16/2016 5:46:20 PM*
%MOMM*%
G01*
G04 APERTURE LIST*
%ADD10C,0.100000*%
%ADD11R,0.900000X0.500000*%
%ADD12R,1.550000X0.600000*%
%ADD13R,1.727200X2.032000*%
%ADD14O,1.727200X2.032000*%
%ADD15C,0.700000*%
%ADD16C,0.250000*%
G04 APERTURE END LIST*
D10*
D11*
X136950000Y-82550000D03*
X136950000Y-84050000D03*
X138750000Y-82550000D03*
X138750000Y-84050000D03*
X135150000Y-82550000D03*
X135150000Y-84050000D03*
D12*
X133350000Y-79355000D03*
X133350000Y-78085000D03*
X133350000Y-76815000D03*
X133350000Y-75545000D03*
X138750000Y-75545000D03*
X138750000Y-76815000D03*
X138750000Y-78085000D03*
X138750000Y-79355000D03*
D11*
X133350000Y-82550000D03*
X133350000Y-84050000D03*
D13*
X129100000Y-72750000D03*
D14*
X131640000Y-72750000D03*
X134180000Y-72750000D03*
X136720000Y-72750000D03*
X139260000Y-72750000D03*
X141800000Y-72750000D03*
D15*
X136250000Y-78100000D03*
X134750000Y-80100000D03*
X141400000Y-77250000D03*
X134950000Y-78950000D03*
X136250000Y-78950000D03*
X135600000Y-81400000D03*
X131950000Y-75550000D03*
X134750000Y-81400000D03*
X136950000Y-85150000D03*
X130000000Y-78550000D03*
X140300000Y-83300000D03*
X135150000Y-85150000D03*
X133350000Y-85400000D03*
X137350000Y-80750000D03*
X129350000Y-82300000D03*
D16*
X133350000Y-78085000D02*
X136235000Y-78085000D01*
X136235000Y-78085000D02*
X136250000Y-78100000D01*
X131350000Y-81400000D02*
X129500000Y-83250000D01*
X128550000Y-82850000D02*
X128550000Y-73300000D01*
X128950000Y-83250000D02*
X128550000Y-82850000D01*
X129500000Y-83250000D02*
X128950000Y-83250000D01*
X128550000Y-73300000D02*
X129100000Y-72750000D01*
X129950000Y-80100000D02*
X129900000Y-80100000D01*
X129900000Y-80100000D02*
X129300000Y-79500000D01*
X131640000Y-72750000D02*
X131640000Y-74860000D01*
X131640000Y-74860000D02*
X129300000Y-77200000D01*
X129300000Y-77200000D02*
X129300000Y-79500000D01*
X134750000Y-80100000D02*
X129950000Y-80100000D01*
X133350000Y-76815000D02*
X134635000Y-76815000D01*
X136720000Y-74730000D02*
X136720000Y-72750000D01*
X134635000Y-76815000D02*
X136720000Y-74730000D01*
X134180000Y-72750000D02*
X134180000Y-74715000D01*
X134180000Y-74715000D02*
X133350000Y-75545000D01*
X140965000Y-76815000D02*
X138750000Y-76815000D01*
X141400000Y-77250000D02*
X140965000Y-76815000D01*
X134950000Y-78950000D02*
X136250000Y-78950000D01*
X135600000Y-82100000D02*
X135150000Y-82550000D01*
X135600000Y-82050000D02*
X135600000Y-82100000D01*
X135600000Y-82000000D02*
X135600000Y-82050000D01*
X135600000Y-81400000D02*
X135600000Y-82000000D01*
X131955000Y-75545000D02*
X133350000Y-75545000D01*
X131950000Y-75550000D02*
X131955000Y-75545000D01*
X138750000Y-78085000D02*
X139835000Y-78085000D01*
X140300000Y-78550000D02*
X140300000Y-83300000D01*
X139835000Y-78085000D02*
X140300000Y-78550000D01*
X134750000Y-81400000D02*
X131350000Y-81400000D01*
X136950000Y-85150000D02*
X136950000Y-84050000D01*
X133350000Y-79355000D02*
X130805000Y-79355000D01*
X130805000Y-79355000D02*
X130000000Y-78550000D01*
X137350000Y-80750000D02*
X137355000Y-80750000D01*
X137355000Y-80750000D02*
X138750000Y-79355000D01*
X138750000Y-84050000D02*
X139550000Y-84050000D01*
X139550000Y-84050000D02*
X140300000Y-83300000D01*
X135150000Y-84050000D02*
X135150000Y-85150000D01*
X138750000Y-84050000D02*
X138450000Y-84050000D01*
X138450000Y-84050000D02*
X136950000Y-82550000D01*
X133350000Y-82550000D02*
X133650000Y-82550000D01*
X133650000Y-82550000D02*
X135150000Y-84050000D01*
X133350000Y-85400000D02*
X133350000Y-84050000D01*
X138750000Y-82550000D02*
X138750000Y-82150000D01*
X138750000Y-82150000D02*
X137350000Y-80750000D01*
X130050000Y-80750000D02*
X130000000Y-80750000D01*
X137350000Y-80750000D02*
X130050000Y-80750000D01*
X129350000Y-81400000D02*
X129350000Y-82300000D01*
X130000000Y-80750000D02*
X129350000Y-81400000D01*
M02*
