G04 #@! TF.FileFunction,Legend,Top*
%FSLAX46Y46*%
G04 Gerber Fmt 4.6, Leading zero omitted, Abs format (unit mm)*
G04 Created by KiCad (PCBNEW 4.0.1-stable) date 3/2/2016 10:49:52 AM*
%MOMM*%
G01*
G04 APERTURE LIST*
%ADD10C,0.100000*%
%ADD11C,0.150000*%
G04 APERTURE END LIST*
D10*
D11*
X138725000Y-105100000D02*
X138025000Y-105100000D01*
X138025000Y-103900000D02*
X138725000Y-103900000D01*
X139874160Y-106499760D02*
X139825900Y-106499760D01*
X137075180Y-107200800D02*
X137075180Y-106499760D01*
X137075180Y-106499760D02*
X137324100Y-106499760D01*
X139874160Y-106499760D02*
X140074820Y-106499760D01*
X140074820Y-106499760D02*
X140074820Y-107200800D01*
X135145000Y-99005000D02*
X147845000Y-99005000D01*
X147845000Y-99005000D02*
X147845000Y-101545000D01*
X147845000Y-101545000D02*
X135145000Y-101545000D01*
X132325000Y-98725000D02*
X133875000Y-98725000D01*
X135145000Y-99005000D02*
X135145000Y-101545000D01*
X133875000Y-101825000D02*
X132325000Y-101825000D01*
X132325000Y-101825000D02*
X132325000Y-98725000D01*
X127450000Y-104125000D02*
X127450000Y-103125000D01*
X128800000Y-103125000D02*
X128800000Y-104125000D01*
X127450000Y-107475000D02*
X127450000Y-106475000D01*
X128800000Y-106475000D02*
X128800000Y-107475000D01*
X127450000Y-110825000D02*
X127450000Y-109825000D01*
X128800000Y-109825000D02*
X128800000Y-110825000D01*
X130025000Y-100550000D02*
X131025000Y-100550000D01*
X131025000Y-101900000D02*
X130025000Y-101900000D01*
X131025000Y-113400000D02*
X130025000Y-113400000D01*
X130025000Y-112050000D02*
X131025000Y-112050000D01*
X133925000Y-113400000D02*
X132925000Y-113400000D01*
X132925000Y-112050000D02*
X133925000Y-112050000D01*
X145225000Y-113025000D02*
X144225000Y-113025000D01*
X144225000Y-111675000D02*
X145225000Y-111675000D01*
X137050000Y-110850000D02*
X137050000Y-109850000D01*
X138400000Y-109850000D02*
X138400000Y-110850000D01*
X130850000Y-102525000D02*
X130850000Y-102640000D01*
X135000000Y-102525000D02*
X135000000Y-102640000D01*
X135000000Y-111425000D02*
X135000000Y-111310000D01*
X130850000Y-111425000D02*
X130850000Y-111310000D01*
X130850000Y-102525000D02*
X135000000Y-102525000D01*
X130850000Y-111425000D02*
X135000000Y-111425000D01*
X130850000Y-102640000D02*
X129475000Y-102640000D01*
X145850000Y-105425000D02*
X145705000Y-105425000D01*
X145850000Y-109575000D02*
X145705000Y-109575000D01*
X140700000Y-109575000D02*
X140845000Y-109575000D01*
X140700000Y-105425000D02*
X140845000Y-105425000D01*
X145850000Y-105425000D02*
X145850000Y-109575000D01*
X140700000Y-105425000D02*
X140700000Y-109575000D01*
X145705000Y-105425000D02*
X145705000Y-104025000D01*
X129861905Y-99852381D02*
X129861905Y-98852381D01*
X130242858Y-98852381D01*
X130338096Y-98900000D01*
X130385715Y-98947619D01*
X130433334Y-99042857D01*
X130433334Y-99185714D01*
X130385715Y-99280952D01*
X130338096Y-99328571D01*
X130242858Y-99376190D01*
X129861905Y-99376190D01*
X131385715Y-99852381D02*
X130814286Y-99852381D01*
X131100000Y-99852381D02*
X131100000Y-98852381D01*
X131004762Y-98995238D01*
X130909524Y-99090476D01*
X130814286Y-99138095D01*
X133377381Y-110094047D02*
X133377381Y-110570238D01*
X132377381Y-110570238D01*
X133377381Y-109760714D02*
X132377381Y-109760714D01*
X133091667Y-109427380D01*
X132377381Y-109094047D01*
X133377381Y-109094047D01*
X132377381Y-108713095D02*
X132377381Y-108094047D01*
X132758333Y-108427381D01*
X132758333Y-108284523D01*
X132805952Y-108189285D01*
X132853571Y-108141666D01*
X132948810Y-108094047D01*
X133186905Y-108094047D01*
X133282143Y-108141666D01*
X133329762Y-108189285D01*
X133377381Y-108284523D01*
X133377381Y-108570238D01*
X133329762Y-108665476D01*
X133282143Y-108713095D01*
X132472619Y-107713095D02*
X132425000Y-107665476D01*
X132377381Y-107570238D01*
X132377381Y-107332142D01*
X132425000Y-107236904D01*
X132472619Y-107189285D01*
X132567857Y-107141666D01*
X132663095Y-107141666D01*
X132805952Y-107189285D01*
X133377381Y-107760714D01*
X133377381Y-107141666D01*
X132710714Y-106284523D02*
X133377381Y-106284523D01*
X132329762Y-106522619D02*
X133044048Y-106760714D01*
X133044048Y-106141666D01*
X133091667Y-105808333D02*
X133091667Y-105332142D01*
X133377381Y-105903571D02*
X132377381Y-105570238D01*
X133377381Y-105236904D01*
X133377381Y-104903571D02*
X132377381Y-104903571D01*
X132377381Y-104665476D01*
X132425000Y-104522618D01*
X132520238Y-104427380D01*
X132615476Y-104379761D01*
X132805952Y-104332142D01*
X132948810Y-104332142D01*
X133139286Y-104379761D01*
X133234524Y-104427380D01*
X133329762Y-104522618D01*
X133377381Y-104665476D01*
X133377381Y-104903571D01*
X133377381Y-103332142D02*
X132901190Y-103665476D01*
X133377381Y-103903571D02*
X132377381Y-103903571D01*
X132377381Y-103522618D01*
X132425000Y-103427380D01*
X132472619Y-103379761D01*
X132567857Y-103332142D01*
X132710714Y-103332142D01*
X132805952Y-103379761D01*
X132853571Y-103427380D01*
X132901190Y-103522618D01*
X132901190Y-103903571D01*
X141634524Y-107952381D02*
X141158333Y-107952381D01*
X141158333Y-106952381D01*
X141967857Y-107952381D02*
X141967857Y-106952381D01*
X142301191Y-107666667D01*
X142634524Y-106952381D01*
X142634524Y-107952381D01*
X143586905Y-106952381D02*
X143110714Y-106952381D01*
X143063095Y-107428571D01*
X143110714Y-107380952D01*
X143205952Y-107333333D01*
X143444048Y-107333333D01*
X143539286Y-107380952D01*
X143586905Y-107428571D01*
X143634524Y-107523810D01*
X143634524Y-107761905D01*
X143586905Y-107857143D01*
X143539286Y-107904762D01*
X143444048Y-107952381D01*
X143205952Y-107952381D01*
X143110714Y-107904762D01*
X143063095Y-107857143D01*
X144539286Y-106952381D02*
X144063095Y-106952381D01*
X144015476Y-107428571D01*
X144063095Y-107380952D01*
X144158333Y-107333333D01*
X144396429Y-107333333D01*
X144491667Y-107380952D01*
X144539286Y-107428571D01*
X144586905Y-107523810D01*
X144586905Y-107761905D01*
X144539286Y-107857143D01*
X144491667Y-107904762D01*
X144396429Y-107952381D01*
X144158333Y-107952381D01*
X144063095Y-107904762D01*
X144015476Y-107857143D01*
X145491667Y-106952381D02*
X145015476Y-106952381D01*
X144967857Y-107428571D01*
X145015476Y-107380952D01*
X145110714Y-107333333D01*
X145348810Y-107333333D01*
X145444048Y-107380952D01*
X145491667Y-107428571D01*
X145539286Y-107523810D01*
X145539286Y-107761905D01*
X145491667Y-107857143D01*
X145444048Y-107904762D01*
X145348810Y-107952381D01*
X145110714Y-107952381D01*
X145015476Y-107904762D01*
X144967857Y-107857143D01*
M02*
