G04 #@! TF.FileFunction,Copper,L1,Top,Signal*
%FSLAX46Y46*%
G04 Gerber Fmt 4.6, Leading zero omitted, Abs format (unit mm)*
G04 Created by KiCad (PCBNEW 4.0.1-stable) date 2/20/2016 9:56:53 PM*
%MOMM*%
G01*
G04 APERTURE LIST*
%ADD10C,0.100000*%
%ADD11R,0.500000X0.900000*%
%ADD12R,0.900000X0.500000*%
%ADD13R,1.500000X0.600000*%
%ADD14R,0.800100X0.800100*%
%ADD15R,0.800000X0.750000*%
%ADD16R,1.727200X2.032000*%
%ADD17O,1.727200X2.032000*%
%ADD18C,0.700000*%
%ADD19C,0.250000*%
%ADD20C,0.254000*%
G04 APERTURE END LIST*
D10*
D11*
X141200000Y-83550000D03*
X142700000Y-83550000D03*
D12*
X131350000Y-82800000D03*
X131350000Y-84300000D03*
X131350000Y-77200000D03*
X131350000Y-78700000D03*
X131350000Y-80000000D03*
X131350000Y-81500000D03*
D13*
X133350000Y-76940000D03*
X133350000Y-78210000D03*
X133350000Y-79480000D03*
X133350000Y-80750000D03*
X133350000Y-82020000D03*
X133350000Y-83290000D03*
X133350000Y-84560000D03*
X138750000Y-84560000D03*
X138750000Y-83290000D03*
X138750000Y-82020000D03*
X138750000Y-80750000D03*
X138750000Y-79480000D03*
X138750000Y-78210000D03*
X138750000Y-76940000D03*
D14*
X140650000Y-81950760D03*
X142550000Y-81950760D03*
X141600000Y-79951780D03*
D15*
X140650000Y-78400000D03*
X142150000Y-78400000D03*
D16*
X129100000Y-72750000D03*
D17*
X131640000Y-72750000D03*
X134180000Y-72750000D03*
X136720000Y-72750000D03*
X139260000Y-72750000D03*
X141800000Y-72750000D03*
D18*
X136250000Y-78100000D03*
X134750000Y-80100000D03*
X141400000Y-77250000D03*
X135600000Y-81400000D03*
X131950000Y-75550000D03*
X134750000Y-81400000D03*
X136950000Y-85150000D03*
X130000000Y-78550000D03*
X140300000Y-83300000D03*
X135150000Y-85150000D03*
X133350000Y-85400000D03*
X137350000Y-80750000D03*
X129350000Y-82300000D03*
D19*
X137387500Y-76962500D02*
X137387500Y-74622500D01*
X137387500Y-74622500D02*
X139260000Y-72750000D01*
X140650000Y-78400000D02*
X140650000Y-73900000D01*
X140650000Y-73900000D02*
X141800000Y-72750000D01*
X136250000Y-78100000D02*
X137387500Y-76962500D01*
X134130000Y-79480000D02*
X134750000Y-80100000D01*
X134130000Y-79480000D02*
X133350000Y-79480000D01*
X142150000Y-78400000D02*
X142150000Y-78000000D01*
X142150000Y-78000000D02*
X141400000Y-77250000D01*
X142150000Y-78400000D02*
X142150000Y-79401780D01*
X142150000Y-79401780D02*
X141600000Y-79951780D01*
X138750000Y-80750000D02*
X139700000Y-80750000D01*
X140650000Y-79800000D02*
X140650000Y-78400000D01*
X139700000Y-80750000D02*
X140650000Y-79800000D01*
X133890000Y-76940000D02*
X135600000Y-78650000D01*
X135600000Y-78650000D02*
X135600000Y-81400000D01*
X133350000Y-76940000D02*
X133890000Y-76940000D01*
X131350000Y-77200000D02*
X131350000Y-76150000D01*
X131350000Y-76150000D02*
X131950000Y-75550000D01*
X141200000Y-83550000D02*
X141200000Y-82500760D01*
X141200000Y-82500760D02*
X140650000Y-81950760D01*
X142700000Y-83550000D02*
X142700000Y-82100760D01*
X142700000Y-82100760D02*
X142550000Y-81950760D01*
X138750000Y-84560000D02*
X141690000Y-84560000D01*
X141690000Y-84560000D02*
X142700000Y-83550000D01*
X133350000Y-82020000D02*
X134130000Y-82020000D01*
X134130000Y-82020000D02*
X134750000Y-81400000D01*
X130550000Y-80750000D02*
X130000000Y-80750000D01*
X130000000Y-80750000D02*
X129350000Y-81400000D01*
X129350000Y-81400000D02*
X128700000Y-82050000D01*
X136050000Y-86050000D02*
X136950000Y-85150000D01*
X131550000Y-86050000D02*
X136050000Y-86050000D01*
X128700000Y-83200000D02*
X131550000Y-86050000D01*
X128700000Y-82050000D02*
X128700000Y-83200000D01*
X133350000Y-80750000D02*
X130550000Y-80750000D01*
X130000000Y-78550000D02*
X131350000Y-77200000D01*
X130000000Y-80200000D02*
X130000000Y-78550000D01*
X130550000Y-80750000D02*
X130000000Y-80200000D01*
X140290000Y-83290000D02*
X138750000Y-83290000D01*
X140300000Y-83300000D02*
X140290000Y-83290000D01*
X137180000Y-82020000D02*
X138750000Y-82020000D01*
X135150000Y-84050000D02*
X137180000Y-82020000D01*
X135150000Y-85150000D02*
X135150000Y-84050000D01*
X133350000Y-84560000D02*
X133350000Y-85400000D01*
X138750000Y-80750000D02*
X137350000Y-80750000D01*
X129350000Y-82300000D02*
X131350000Y-84300000D01*
X133350000Y-78210000D02*
X131840000Y-78210000D01*
X131840000Y-78210000D02*
X131350000Y-78700000D01*
X133350000Y-83290000D02*
X131840000Y-83290000D01*
X131840000Y-83290000D02*
X131350000Y-82800000D01*
X131350000Y-82800000D02*
X131350000Y-81500000D01*
X131350000Y-80000000D02*
X131350000Y-78700000D01*
D20*
G36*
X144790000Y-87640000D02*
X126210000Y-87640000D01*
X126210000Y-71734000D01*
X127588960Y-71734000D01*
X127588960Y-73766000D01*
X127601400Y-73832113D01*
X127601400Y-73892309D01*
X127622155Y-73942416D01*
X127633238Y-74001317D01*
X127670608Y-74059391D01*
X127698073Y-74125698D01*
X127740714Y-74168339D01*
X127772310Y-74217441D01*
X127827579Y-74255205D01*
X127876701Y-74304327D01*
X127934528Y-74328280D01*
X127984510Y-74362431D01*
X128048031Y-74375294D01*
X128110090Y-74401000D01*
X128174969Y-74401000D01*
X128236400Y-74413440D01*
X129963600Y-74413440D01*
X130029713Y-74401000D01*
X130089910Y-74401000D01*
X130140018Y-74380245D01*
X130198917Y-74369162D01*
X130256990Y-74331793D01*
X130323299Y-74304327D01*
X130365940Y-74261685D01*
X130415041Y-74230090D01*
X130452806Y-74174820D01*
X130501927Y-74125698D01*
X130525879Y-74067874D01*
X130560031Y-74017890D01*
X130568400Y-73976561D01*
X130580330Y-73994415D01*
X130735771Y-74098277D01*
X130737964Y-74100732D01*
X130743269Y-74103287D01*
X131066511Y-74319271D01*
X131640000Y-74433345D01*
X132213489Y-74319271D01*
X132536731Y-74103287D01*
X132542036Y-74100732D01*
X132544229Y-74098277D01*
X132699670Y-73994415D01*
X132885468Y-73716349D01*
X132910000Y-73688892D01*
X132934532Y-73716349D01*
X133120330Y-73994415D01*
X133275771Y-74098277D01*
X133277964Y-74100732D01*
X133283269Y-74103287D01*
X133606511Y-74319271D01*
X134180000Y-74433345D01*
X134753489Y-74319271D01*
X135076731Y-74103287D01*
X135082036Y-74100732D01*
X135084229Y-74098277D01*
X135239670Y-73994415D01*
X135425468Y-73716349D01*
X135450000Y-73688892D01*
X135474532Y-73716349D01*
X135660330Y-73994415D01*
X135815771Y-74098277D01*
X135817964Y-74100732D01*
X135823269Y-74103287D01*
X136146511Y-74319271D01*
X136667214Y-74422845D01*
X136627500Y-74622500D01*
X136627500Y-76647698D01*
X136160276Y-77114922D01*
X136054931Y-77114830D01*
X135692771Y-77264471D01*
X135490846Y-77466044D01*
X134747440Y-76722638D01*
X134747440Y-76640000D01*
X134735000Y-76573887D01*
X134735000Y-76513690D01*
X134714245Y-76463582D01*
X134703162Y-76404683D01*
X134665793Y-76346610D01*
X134638327Y-76280301D01*
X134595685Y-76237660D01*
X134564090Y-76188559D01*
X134508820Y-76150794D01*
X134459698Y-76101673D01*
X134401874Y-76077721D01*
X134351890Y-76043569D01*
X134288367Y-76030705D01*
X134226309Y-76005000D01*
X134161431Y-76005000D01*
X134100000Y-75992560D01*
X132832775Y-75992560D01*
X132934828Y-75746788D01*
X132935170Y-75354931D01*
X132785529Y-74992771D01*
X132508686Y-74715445D01*
X132146788Y-74565172D01*
X131754931Y-74564830D01*
X131392771Y-74714471D01*
X131115445Y-74991314D01*
X130965172Y-75353212D01*
X130965079Y-75460119D01*
X130812599Y-75612599D01*
X130647852Y-75859161D01*
X130590000Y-76150000D01*
X130590000Y-76391087D01*
X130540301Y-76411673D01*
X130497660Y-76454315D01*
X130448559Y-76485910D01*
X130410794Y-76541180D01*
X130361673Y-76590302D01*
X130337721Y-76648126D01*
X130303569Y-76698110D01*
X130290705Y-76761633D01*
X130265000Y-76823691D01*
X130265000Y-76888569D01*
X130252560Y-76950000D01*
X130252560Y-77222638D01*
X129910276Y-77564922D01*
X129804931Y-77564830D01*
X129442771Y-77714471D01*
X129165445Y-77991314D01*
X129015172Y-78353212D01*
X129014830Y-78745069D01*
X129164471Y-79107229D01*
X129240000Y-79182890D01*
X129240000Y-80200000D01*
X129279022Y-80396176D01*
X128162599Y-81512599D01*
X127997852Y-81759161D01*
X127940000Y-82050000D01*
X127940000Y-83200000D01*
X127997852Y-83490839D01*
X128162599Y-83737401D01*
X131012599Y-86587401D01*
X131259161Y-86752148D01*
X131550000Y-86810000D01*
X136050000Y-86810000D01*
X136340839Y-86752148D01*
X136587401Y-86587401D01*
X137039724Y-86135078D01*
X137145069Y-86135170D01*
X137507229Y-85985529D01*
X137784555Y-85708686D01*
X137873345Y-85494857D01*
X137873691Y-85495000D01*
X137938569Y-85495000D01*
X138000000Y-85507440D01*
X139500000Y-85507440D01*
X139566113Y-85495000D01*
X139626309Y-85495000D01*
X139676416Y-85474245D01*
X139735317Y-85463162D01*
X139793391Y-85425792D01*
X139859698Y-85398327D01*
X139902339Y-85355686D01*
X139951441Y-85324090D01*
X139954236Y-85320000D01*
X141690000Y-85320000D01*
X141980839Y-85262148D01*
X142227401Y-85097401D01*
X142677362Y-84647440D01*
X142950000Y-84647440D01*
X143016113Y-84635000D01*
X143076309Y-84635000D01*
X143126416Y-84614245D01*
X143185317Y-84603162D01*
X143243391Y-84565792D01*
X143309698Y-84538327D01*
X143352339Y-84495686D01*
X143401441Y-84464090D01*
X143439205Y-84408821D01*
X143488327Y-84359699D01*
X143512280Y-84301872D01*
X143546431Y-84251890D01*
X143559294Y-84188369D01*
X143585000Y-84126310D01*
X143585000Y-84061431D01*
X143597440Y-84000000D01*
X143597440Y-83100000D01*
X143585000Y-83033887D01*
X143585000Y-82973690D01*
X143564245Y-82923582D01*
X143553162Y-82864683D01*
X143515793Y-82806610D01*
X143488327Y-82740301D01*
X143473456Y-82725430D01*
X143488377Y-82710509D01*
X143512330Y-82652682D01*
X143546481Y-82602700D01*
X143559344Y-82539179D01*
X143585050Y-82477120D01*
X143585050Y-82412241D01*
X143597490Y-82350810D01*
X143597490Y-81550710D01*
X143585050Y-81484597D01*
X143585050Y-81424400D01*
X143564295Y-81374292D01*
X143553212Y-81315393D01*
X143515843Y-81257320D01*
X143488377Y-81191011D01*
X143445735Y-81148370D01*
X143414140Y-81099269D01*
X143358870Y-81061504D01*
X143309748Y-81012383D01*
X143251924Y-80988431D01*
X143201940Y-80954279D01*
X143138417Y-80941415D01*
X143076359Y-80915710D01*
X143011481Y-80915710D01*
X142950050Y-80903270D01*
X142328090Y-80903270D01*
X142359748Y-80890157D01*
X142402389Y-80847516D01*
X142451491Y-80815920D01*
X142489255Y-80760651D01*
X142538377Y-80711529D01*
X142562330Y-80653702D01*
X142596481Y-80603720D01*
X142609344Y-80540199D01*
X142635050Y-80478140D01*
X142635050Y-80413261D01*
X142647490Y-80351830D01*
X142647490Y-79979092D01*
X142687401Y-79939181D01*
X142852148Y-79692620D01*
X142873555Y-79585000D01*
X142910000Y-79401780D01*
X142910000Y-79313025D01*
X142952339Y-79270686D01*
X143001441Y-79239090D01*
X143039205Y-79183821D01*
X143088327Y-79134699D01*
X143112280Y-79076872D01*
X143146431Y-79026890D01*
X143159294Y-78963369D01*
X143185000Y-78901310D01*
X143185000Y-78836431D01*
X143197440Y-78775000D01*
X143197440Y-78025000D01*
X143185000Y-77958887D01*
X143185000Y-77898690D01*
X143164245Y-77848582D01*
X143153162Y-77789683D01*
X143115793Y-77731610D01*
X143088327Y-77665301D01*
X143045685Y-77622660D01*
X143014090Y-77573559D01*
X142958820Y-77535794D01*
X142909698Y-77486673D01*
X142851874Y-77462721D01*
X142801890Y-77428569D01*
X142738367Y-77415705D01*
X142676309Y-77390000D01*
X142614802Y-77390000D01*
X142385078Y-77160276D01*
X142385170Y-77054931D01*
X142235529Y-76692771D01*
X141958686Y-76415445D01*
X141596788Y-76265172D01*
X141410000Y-76265009D01*
X141410000Y-74355769D01*
X141800000Y-74433345D01*
X142373489Y-74319271D01*
X142696731Y-74103287D01*
X142702036Y-74100732D01*
X142704229Y-74098277D01*
X142859670Y-73994415D01*
X143045468Y-73716349D01*
X143091954Y-73664320D01*
X143104832Y-73627505D01*
X143184526Y-73508234D01*
X143234587Y-73256560D01*
X143285184Y-73111913D01*
X143268699Y-73085069D01*
X143298600Y-72934745D01*
X143298600Y-72565255D01*
X143268699Y-72414931D01*
X143285184Y-72388087D01*
X143234587Y-72243440D01*
X143184526Y-71991766D01*
X143104832Y-71872495D01*
X143091954Y-71835680D01*
X143045468Y-71783651D01*
X142859670Y-71505585D01*
X142704229Y-71401723D01*
X142702036Y-71399268D01*
X142696731Y-71396713D01*
X142373489Y-71180729D01*
X141800000Y-71066655D01*
X141226511Y-71180729D01*
X140903269Y-71396713D01*
X140897964Y-71399268D01*
X140895771Y-71401723D01*
X140740330Y-71505585D01*
X140554532Y-71783651D01*
X140530000Y-71811108D01*
X140505468Y-71783651D01*
X140319670Y-71505585D01*
X140164229Y-71401723D01*
X140162036Y-71399268D01*
X140156731Y-71396713D01*
X139833489Y-71180729D01*
X139260000Y-71066655D01*
X138686511Y-71180729D01*
X138363269Y-71396713D01*
X138357964Y-71399268D01*
X138355771Y-71401723D01*
X138200330Y-71505585D01*
X138014532Y-71783651D01*
X137990000Y-71811108D01*
X137965468Y-71783651D01*
X137779670Y-71505585D01*
X137624229Y-71401723D01*
X137622036Y-71399268D01*
X137616731Y-71396713D01*
X137293489Y-71180729D01*
X136720000Y-71066655D01*
X136146511Y-71180729D01*
X135823269Y-71396713D01*
X135817964Y-71399268D01*
X135815771Y-71401723D01*
X135660330Y-71505585D01*
X135474532Y-71783651D01*
X135450000Y-71811108D01*
X135425468Y-71783651D01*
X135239670Y-71505585D01*
X135084229Y-71401723D01*
X135082036Y-71399268D01*
X135076731Y-71396713D01*
X134753489Y-71180729D01*
X134180000Y-71066655D01*
X133606511Y-71180729D01*
X133283269Y-71396713D01*
X133277964Y-71399268D01*
X133275771Y-71401723D01*
X133120330Y-71505585D01*
X132934532Y-71783651D01*
X132910000Y-71811108D01*
X132885468Y-71783651D01*
X132699670Y-71505585D01*
X132544229Y-71401723D01*
X132542036Y-71399268D01*
X132536731Y-71396713D01*
X132213489Y-71180729D01*
X131640000Y-71066655D01*
X131066511Y-71180729D01*
X130743269Y-71396713D01*
X130737964Y-71399268D01*
X130735771Y-71401723D01*
X130580330Y-71505585D01*
X130570757Y-71519913D01*
X130566762Y-71498683D01*
X130529392Y-71440609D01*
X130501927Y-71374302D01*
X130459286Y-71331661D01*
X130427690Y-71282559D01*
X130372421Y-71244795D01*
X130323299Y-71195673D01*
X130265472Y-71171720D01*
X130215490Y-71137569D01*
X130151969Y-71124706D01*
X130089910Y-71099000D01*
X130025031Y-71099000D01*
X129963600Y-71086560D01*
X128236400Y-71086560D01*
X128170287Y-71099000D01*
X128110090Y-71099000D01*
X128059982Y-71119755D01*
X128001083Y-71130838D01*
X127943010Y-71168207D01*
X127876701Y-71195673D01*
X127834060Y-71238315D01*
X127784959Y-71269910D01*
X127747194Y-71325180D01*
X127698073Y-71374302D01*
X127674121Y-71432126D01*
X127639969Y-71482110D01*
X127627105Y-71545633D01*
X127601400Y-71607691D01*
X127601400Y-71672569D01*
X127588960Y-71734000D01*
X126210000Y-71734000D01*
X126210000Y-69060000D01*
X144790000Y-69060000D01*
X144790000Y-87640000D01*
X144790000Y-87640000D01*
G37*
X144790000Y-87640000D02*
X126210000Y-87640000D01*
X126210000Y-71734000D01*
X127588960Y-71734000D01*
X127588960Y-73766000D01*
X127601400Y-73832113D01*
X127601400Y-73892309D01*
X127622155Y-73942416D01*
X127633238Y-74001317D01*
X127670608Y-74059391D01*
X127698073Y-74125698D01*
X127740714Y-74168339D01*
X127772310Y-74217441D01*
X127827579Y-74255205D01*
X127876701Y-74304327D01*
X127934528Y-74328280D01*
X127984510Y-74362431D01*
X128048031Y-74375294D01*
X128110090Y-74401000D01*
X128174969Y-74401000D01*
X128236400Y-74413440D01*
X129963600Y-74413440D01*
X130029713Y-74401000D01*
X130089910Y-74401000D01*
X130140018Y-74380245D01*
X130198917Y-74369162D01*
X130256990Y-74331793D01*
X130323299Y-74304327D01*
X130365940Y-74261685D01*
X130415041Y-74230090D01*
X130452806Y-74174820D01*
X130501927Y-74125698D01*
X130525879Y-74067874D01*
X130560031Y-74017890D01*
X130568400Y-73976561D01*
X130580330Y-73994415D01*
X130735771Y-74098277D01*
X130737964Y-74100732D01*
X130743269Y-74103287D01*
X131066511Y-74319271D01*
X131640000Y-74433345D01*
X132213489Y-74319271D01*
X132536731Y-74103287D01*
X132542036Y-74100732D01*
X132544229Y-74098277D01*
X132699670Y-73994415D01*
X132885468Y-73716349D01*
X132910000Y-73688892D01*
X132934532Y-73716349D01*
X133120330Y-73994415D01*
X133275771Y-74098277D01*
X133277964Y-74100732D01*
X133283269Y-74103287D01*
X133606511Y-74319271D01*
X134180000Y-74433345D01*
X134753489Y-74319271D01*
X135076731Y-74103287D01*
X135082036Y-74100732D01*
X135084229Y-74098277D01*
X135239670Y-73994415D01*
X135425468Y-73716349D01*
X135450000Y-73688892D01*
X135474532Y-73716349D01*
X135660330Y-73994415D01*
X135815771Y-74098277D01*
X135817964Y-74100732D01*
X135823269Y-74103287D01*
X136146511Y-74319271D01*
X136667214Y-74422845D01*
X136627500Y-74622500D01*
X136627500Y-76647698D01*
X136160276Y-77114922D01*
X136054931Y-77114830D01*
X135692771Y-77264471D01*
X135490846Y-77466044D01*
X134747440Y-76722638D01*
X134747440Y-76640000D01*
X134735000Y-76573887D01*
X134735000Y-76513690D01*
X134714245Y-76463582D01*
X134703162Y-76404683D01*
X134665793Y-76346610D01*
X134638327Y-76280301D01*
X134595685Y-76237660D01*
X134564090Y-76188559D01*
X134508820Y-76150794D01*
X134459698Y-76101673D01*
X134401874Y-76077721D01*
X134351890Y-76043569D01*
X134288367Y-76030705D01*
X134226309Y-76005000D01*
X134161431Y-76005000D01*
X134100000Y-75992560D01*
X132832775Y-75992560D01*
X132934828Y-75746788D01*
X132935170Y-75354931D01*
X132785529Y-74992771D01*
X132508686Y-74715445D01*
X132146788Y-74565172D01*
X131754931Y-74564830D01*
X131392771Y-74714471D01*
X131115445Y-74991314D01*
X130965172Y-75353212D01*
X130965079Y-75460119D01*
X130812599Y-75612599D01*
X130647852Y-75859161D01*
X130590000Y-76150000D01*
X130590000Y-76391087D01*
X130540301Y-76411673D01*
X130497660Y-76454315D01*
X130448559Y-76485910D01*
X130410794Y-76541180D01*
X130361673Y-76590302D01*
X130337721Y-76648126D01*
X130303569Y-76698110D01*
X130290705Y-76761633D01*
X130265000Y-76823691D01*
X130265000Y-76888569D01*
X130252560Y-76950000D01*
X130252560Y-77222638D01*
X129910276Y-77564922D01*
X129804931Y-77564830D01*
X129442771Y-77714471D01*
X129165445Y-77991314D01*
X129015172Y-78353212D01*
X129014830Y-78745069D01*
X129164471Y-79107229D01*
X129240000Y-79182890D01*
X129240000Y-80200000D01*
X129279022Y-80396176D01*
X128162599Y-81512599D01*
X127997852Y-81759161D01*
X127940000Y-82050000D01*
X127940000Y-83200000D01*
X127997852Y-83490839D01*
X128162599Y-83737401D01*
X131012599Y-86587401D01*
X131259161Y-86752148D01*
X131550000Y-86810000D01*
X136050000Y-86810000D01*
X136340839Y-86752148D01*
X136587401Y-86587401D01*
X137039724Y-86135078D01*
X137145069Y-86135170D01*
X137507229Y-85985529D01*
X137784555Y-85708686D01*
X137873345Y-85494857D01*
X137873691Y-85495000D01*
X137938569Y-85495000D01*
X138000000Y-85507440D01*
X139500000Y-85507440D01*
X139566113Y-85495000D01*
X139626309Y-85495000D01*
X139676416Y-85474245D01*
X139735317Y-85463162D01*
X139793391Y-85425792D01*
X139859698Y-85398327D01*
X139902339Y-85355686D01*
X139951441Y-85324090D01*
X139954236Y-85320000D01*
X141690000Y-85320000D01*
X141980839Y-85262148D01*
X142227401Y-85097401D01*
X142677362Y-84647440D01*
X142950000Y-84647440D01*
X143016113Y-84635000D01*
X143076309Y-84635000D01*
X143126416Y-84614245D01*
X143185317Y-84603162D01*
X143243391Y-84565792D01*
X143309698Y-84538327D01*
X143352339Y-84495686D01*
X143401441Y-84464090D01*
X143439205Y-84408821D01*
X143488327Y-84359699D01*
X143512280Y-84301872D01*
X143546431Y-84251890D01*
X143559294Y-84188369D01*
X143585000Y-84126310D01*
X143585000Y-84061431D01*
X143597440Y-84000000D01*
X143597440Y-83100000D01*
X143585000Y-83033887D01*
X143585000Y-82973690D01*
X143564245Y-82923582D01*
X143553162Y-82864683D01*
X143515793Y-82806610D01*
X143488327Y-82740301D01*
X143473456Y-82725430D01*
X143488377Y-82710509D01*
X143512330Y-82652682D01*
X143546481Y-82602700D01*
X143559344Y-82539179D01*
X143585050Y-82477120D01*
X143585050Y-82412241D01*
X143597490Y-82350810D01*
X143597490Y-81550710D01*
X143585050Y-81484597D01*
X143585050Y-81424400D01*
X143564295Y-81374292D01*
X143553212Y-81315393D01*
X143515843Y-81257320D01*
X143488377Y-81191011D01*
X143445735Y-81148370D01*
X143414140Y-81099269D01*
X143358870Y-81061504D01*
X143309748Y-81012383D01*
X143251924Y-80988431D01*
X143201940Y-80954279D01*
X143138417Y-80941415D01*
X143076359Y-80915710D01*
X143011481Y-80915710D01*
X142950050Y-80903270D01*
X142328090Y-80903270D01*
X142359748Y-80890157D01*
X142402389Y-80847516D01*
X142451491Y-80815920D01*
X142489255Y-80760651D01*
X142538377Y-80711529D01*
X142562330Y-80653702D01*
X142596481Y-80603720D01*
X142609344Y-80540199D01*
X142635050Y-80478140D01*
X142635050Y-80413261D01*
X142647490Y-80351830D01*
X142647490Y-79979092D01*
X142687401Y-79939181D01*
X142852148Y-79692620D01*
X142873555Y-79585000D01*
X142910000Y-79401780D01*
X142910000Y-79313025D01*
X142952339Y-79270686D01*
X143001441Y-79239090D01*
X143039205Y-79183821D01*
X143088327Y-79134699D01*
X143112280Y-79076872D01*
X143146431Y-79026890D01*
X143159294Y-78963369D01*
X143185000Y-78901310D01*
X143185000Y-78836431D01*
X143197440Y-78775000D01*
X143197440Y-78025000D01*
X143185000Y-77958887D01*
X143185000Y-77898690D01*
X143164245Y-77848582D01*
X143153162Y-77789683D01*
X143115793Y-77731610D01*
X143088327Y-77665301D01*
X143045685Y-77622660D01*
X143014090Y-77573559D01*
X142958820Y-77535794D01*
X142909698Y-77486673D01*
X142851874Y-77462721D01*
X142801890Y-77428569D01*
X142738367Y-77415705D01*
X142676309Y-77390000D01*
X142614802Y-77390000D01*
X142385078Y-77160276D01*
X142385170Y-77054931D01*
X142235529Y-76692771D01*
X141958686Y-76415445D01*
X141596788Y-76265172D01*
X141410000Y-76265009D01*
X141410000Y-74355769D01*
X141800000Y-74433345D01*
X142373489Y-74319271D01*
X142696731Y-74103287D01*
X142702036Y-74100732D01*
X142704229Y-74098277D01*
X142859670Y-73994415D01*
X143045468Y-73716349D01*
X143091954Y-73664320D01*
X143104832Y-73627505D01*
X143184526Y-73508234D01*
X143234587Y-73256560D01*
X143285184Y-73111913D01*
X143268699Y-73085069D01*
X143298600Y-72934745D01*
X143298600Y-72565255D01*
X143268699Y-72414931D01*
X143285184Y-72388087D01*
X143234587Y-72243440D01*
X143184526Y-71991766D01*
X143104832Y-71872495D01*
X143091954Y-71835680D01*
X143045468Y-71783651D01*
X142859670Y-71505585D01*
X142704229Y-71401723D01*
X142702036Y-71399268D01*
X142696731Y-71396713D01*
X142373489Y-71180729D01*
X141800000Y-71066655D01*
X141226511Y-71180729D01*
X140903269Y-71396713D01*
X140897964Y-71399268D01*
X140895771Y-71401723D01*
X140740330Y-71505585D01*
X140554532Y-71783651D01*
X140530000Y-71811108D01*
X140505468Y-71783651D01*
X140319670Y-71505585D01*
X140164229Y-71401723D01*
X140162036Y-71399268D01*
X140156731Y-71396713D01*
X139833489Y-71180729D01*
X139260000Y-71066655D01*
X138686511Y-71180729D01*
X138363269Y-71396713D01*
X138357964Y-71399268D01*
X138355771Y-71401723D01*
X138200330Y-71505585D01*
X138014532Y-71783651D01*
X137990000Y-71811108D01*
X137965468Y-71783651D01*
X137779670Y-71505585D01*
X137624229Y-71401723D01*
X137622036Y-71399268D01*
X137616731Y-71396713D01*
X137293489Y-71180729D01*
X136720000Y-71066655D01*
X136146511Y-71180729D01*
X135823269Y-71396713D01*
X135817964Y-71399268D01*
X135815771Y-71401723D01*
X135660330Y-71505585D01*
X135474532Y-71783651D01*
X135450000Y-71811108D01*
X135425468Y-71783651D01*
X135239670Y-71505585D01*
X135084229Y-71401723D01*
X135082036Y-71399268D01*
X135076731Y-71396713D01*
X134753489Y-71180729D01*
X134180000Y-71066655D01*
X133606511Y-71180729D01*
X133283269Y-71396713D01*
X133277964Y-71399268D01*
X133275771Y-71401723D01*
X133120330Y-71505585D01*
X132934532Y-71783651D01*
X132910000Y-71811108D01*
X132885468Y-71783651D01*
X132699670Y-71505585D01*
X132544229Y-71401723D01*
X132542036Y-71399268D01*
X132536731Y-71396713D01*
X132213489Y-71180729D01*
X131640000Y-71066655D01*
X131066511Y-71180729D01*
X130743269Y-71396713D01*
X130737964Y-71399268D01*
X130735771Y-71401723D01*
X130580330Y-71505585D01*
X130570757Y-71519913D01*
X130566762Y-71498683D01*
X130529392Y-71440609D01*
X130501927Y-71374302D01*
X130459286Y-71331661D01*
X130427690Y-71282559D01*
X130372421Y-71244795D01*
X130323299Y-71195673D01*
X130265472Y-71171720D01*
X130215490Y-71137569D01*
X130151969Y-71124706D01*
X130089910Y-71099000D01*
X130025031Y-71099000D01*
X129963600Y-71086560D01*
X128236400Y-71086560D01*
X128170287Y-71099000D01*
X128110090Y-71099000D01*
X128059982Y-71119755D01*
X128001083Y-71130838D01*
X127943010Y-71168207D01*
X127876701Y-71195673D01*
X127834060Y-71238315D01*
X127784959Y-71269910D01*
X127747194Y-71325180D01*
X127698073Y-71374302D01*
X127674121Y-71432126D01*
X127639969Y-71482110D01*
X127627105Y-71545633D01*
X127601400Y-71607691D01*
X127601400Y-71672569D01*
X127588960Y-71734000D01*
X126210000Y-71734000D01*
X126210000Y-69060000D01*
X144790000Y-69060000D01*
X144790000Y-87640000D01*
G36*
X132034207Y-85153390D02*
X132061673Y-85219699D01*
X132104315Y-85262340D01*
X132122113Y-85290000D01*
X131864802Y-85290000D01*
X131772242Y-85197440D01*
X131800000Y-85197440D01*
X131866113Y-85185000D01*
X131926310Y-85185000D01*
X131976418Y-85164245D01*
X132034196Y-85153373D01*
X132034207Y-85153390D01*
X132034207Y-85153390D01*
G37*
X132034207Y-85153390D02*
X132061673Y-85219699D01*
X132104315Y-85262340D01*
X132122113Y-85290000D01*
X131864802Y-85290000D01*
X131772242Y-85197440D01*
X131800000Y-85197440D01*
X131866113Y-85185000D01*
X131926310Y-85185000D01*
X131976418Y-85164245D01*
X132034196Y-85153373D01*
X132034207Y-85153390D01*
G36*
X137365000Y-82928569D02*
X137352560Y-82990000D01*
X137352560Y-83590000D01*
X137365000Y-83656113D01*
X137365000Y-83716310D01*
X137385755Y-83766418D01*
X137396838Y-83825317D01*
X137434207Y-83883390D01*
X137451442Y-83925000D01*
X137437720Y-83958128D01*
X137403569Y-84008110D01*
X137390706Y-84071631D01*
X137365000Y-84133690D01*
X137365000Y-84198569D01*
X137354313Y-84251344D01*
X137146788Y-84165172D01*
X136754931Y-84164830D01*
X136392771Y-84314471D01*
X136115445Y-84591314D01*
X136050025Y-84748863D01*
X135985529Y-84592771D01*
X135910000Y-84517110D01*
X135910000Y-84364802D01*
X137365000Y-82909802D01*
X137365000Y-82928569D01*
X137365000Y-82928569D01*
G37*
X137365000Y-82928569D02*
X137352560Y-82990000D01*
X137352560Y-83590000D01*
X137365000Y-83656113D01*
X137365000Y-83716310D01*
X137385755Y-83766418D01*
X137396838Y-83825317D01*
X137434207Y-83883390D01*
X137451442Y-83925000D01*
X137437720Y-83958128D01*
X137403569Y-84008110D01*
X137390706Y-84071631D01*
X137365000Y-84133690D01*
X137365000Y-84198569D01*
X137354313Y-84251344D01*
X137146788Y-84165172D01*
X136754931Y-84164830D01*
X136392771Y-84314471D01*
X136115445Y-84591314D01*
X136050025Y-84748863D01*
X135985529Y-84592771D01*
X135910000Y-84517110D01*
X135910000Y-84364802D01*
X137365000Y-82909802D01*
X137365000Y-82928569D01*
G36*
X135403212Y-82384828D02*
X135740076Y-82385122D01*
X134747440Y-83377758D01*
X134747440Y-82990000D01*
X134735000Y-82923887D01*
X134735000Y-82863690D01*
X134714245Y-82813582D01*
X134703162Y-82754683D01*
X134665793Y-82696610D01*
X134648558Y-82655000D01*
X134662280Y-82621872D01*
X134696431Y-82571890D01*
X134707482Y-82517320D01*
X134839724Y-82385078D01*
X134945069Y-82385170D01*
X135175119Y-82290116D01*
X135403212Y-82384828D01*
X135403212Y-82384828D01*
G37*
X135403212Y-82384828D02*
X135740076Y-82385122D01*
X134747440Y-83377758D01*
X134747440Y-82990000D01*
X134735000Y-82923887D01*
X134735000Y-82863690D01*
X134714245Y-82813582D01*
X134703162Y-82754683D01*
X134665793Y-82696610D01*
X134648558Y-82655000D01*
X134662280Y-82621872D01*
X134696431Y-82571890D01*
X134707482Y-82517320D01*
X134839724Y-82385078D01*
X134945069Y-82385170D01*
X135175119Y-82290116D01*
X135403212Y-82384828D01*
G36*
X130252560Y-81750000D02*
X130265000Y-81816113D01*
X130265000Y-81876309D01*
X130285755Y-81926416D01*
X130296838Y-81985317D01*
X130334208Y-82043391D01*
X130361673Y-82109698D01*
X130401975Y-82150000D01*
X130361673Y-82190302D01*
X130348033Y-82223231D01*
X130335078Y-82210276D01*
X130335170Y-82104931D01*
X130185529Y-81742771D01*
X130133825Y-81690977D01*
X130252560Y-81572242D01*
X130252560Y-81750000D01*
X130252560Y-81750000D01*
G37*
X130252560Y-81750000D02*
X130265000Y-81816113D01*
X130265000Y-81876309D01*
X130285755Y-81926416D01*
X130296838Y-81985317D01*
X130334208Y-82043391D01*
X130361673Y-82109698D01*
X130401975Y-82150000D01*
X130361673Y-82190302D01*
X130348033Y-82223231D01*
X130335078Y-82210276D01*
X130335170Y-82104931D01*
X130185529Y-81742771D01*
X130133825Y-81690977D01*
X130252560Y-81572242D01*
X130252560Y-81750000D01*
G36*
X136670755Y-81463786D02*
X136642599Y-81482599D01*
X136584877Y-81540321D01*
X136585019Y-81377900D01*
X136670755Y-81463786D01*
X136670755Y-81463786D01*
G37*
X136670755Y-81463786D02*
X136642599Y-81482599D01*
X136584877Y-81540321D01*
X136585019Y-81377900D01*
X136670755Y-81463786D01*
G36*
X141790252Y-81012383D02*
X141747611Y-81055024D01*
X141698509Y-81086620D01*
X141660745Y-81141889D01*
X141611623Y-81191011D01*
X141600000Y-81219071D01*
X141588377Y-81191011D01*
X141545735Y-81148370D01*
X141514140Y-81099269D01*
X141458870Y-81061504D01*
X141409748Y-81012383D01*
X141378090Y-80999270D01*
X141821910Y-80999270D01*
X141790252Y-81012383D01*
X141790252Y-81012383D01*
G37*
X141790252Y-81012383D02*
X141747611Y-81055024D01*
X141698509Y-81086620D01*
X141660745Y-81141889D01*
X141611623Y-81191011D01*
X141600000Y-81219071D01*
X141588377Y-81191011D01*
X141545735Y-81148370D01*
X141514140Y-81099269D01*
X141458870Y-81061504D01*
X141409748Y-81012383D01*
X141378090Y-80999270D01*
X141821910Y-80999270D01*
X141790252Y-81012383D01*
G36*
X140735860Y-80803271D02*
X140791130Y-80841036D01*
X140840252Y-80890157D01*
X140871910Y-80903270D01*
X140621532Y-80903270D01*
X140730250Y-80794552D01*
X140735860Y-80803271D01*
X140735860Y-80803271D01*
G37*
X140735860Y-80803271D02*
X140791130Y-80841036D01*
X140840252Y-80890157D01*
X140871910Y-80903270D01*
X140621532Y-80903270D01*
X140730250Y-80794552D01*
X140735860Y-80803271D01*
G36*
X137352560Y-78510000D02*
X137365000Y-78576113D01*
X137365000Y-78636310D01*
X137385755Y-78686418D01*
X137396838Y-78745317D01*
X137434207Y-78803390D01*
X137451442Y-78845000D01*
X137437720Y-78878128D01*
X137403569Y-78928110D01*
X137390706Y-78991631D01*
X137365000Y-79053690D01*
X137365000Y-79118569D01*
X137352560Y-79180000D01*
X137352560Y-79765002D01*
X137154931Y-79764830D01*
X136792771Y-79914471D01*
X136515445Y-80191314D01*
X136365172Y-80553212D01*
X136364981Y-80772100D01*
X136360000Y-80767110D01*
X136360000Y-79085096D01*
X136445069Y-79085170D01*
X136807229Y-78935529D01*
X137084555Y-78658686D01*
X137234828Y-78296788D01*
X137234921Y-78189881D01*
X137352560Y-78072242D01*
X137352560Y-78510000D01*
X137352560Y-78510000D01*
G37*
X137352560Y-78510000D02*
X137365000Y-78576113D01*
X137365000Y-78636310D01*
X137385755Y-78686418D01*
X137396838Y-78745317D01*
X137434207Y-78803390D01*
X137451442Y-78845000D01*
X137437720Y-78878128D01*
X137403569Y-78928110D01*
X137390706Y-78991631D01*
X137365000Y-79053690D01*
X137365000Y-79118569D01*
X137352560Y-79180000D01*
X137352560Y-79765002D01*
X137154931Y-79764830D01*
X136792771Y-79914471D01*
X136515445Y-80191314D01*
X136365172Y-80553212D01*
X136364981Y-80772100D01*
X136360000Y-80767110D01*
X136360000Y-79085096D01*
X136445069Y-79085170D01*
X136807229Y-78935529D01*
X137084555Y-78658686D01*
X137234828Y-78296788D01*
X137234921Y-78189881D01*
X137352560Y-78072242D01*
X137352560Y-78510000D01*
G36*
X134840000Y-78964802D02*
X134840000Y-79115079D01*
X134839881Y-79115079D01*
X134710967Y-78986165D01*
X134703162Y-78944683D01*
X134665793Y-78886610D01*
X134648558Y-78845000D01*
X134662280Y-78811872D01*
X134672343Y-78797145D01*
X134840000Y-78964802D01*
X134840000Y-78964802D01*
G37*
X134840000Y-78964802D02*
X134840000Y-79115079D01*
X134839881Y-79115079D01*
X134710967Y-78986165D01*
X134703162Y-78944683D01*
X134665793Y-78886610D01*
X134648558Y-78845000D01*
X134662280Y-78811872D01*
X134672343Y-78797145D01*
X134840000Y-78964802D01*
G36*
X139890000Y-76131975D02*
X139859698Y-76101673D01*
X139801874Y-76077721D01*
X139751890Y-76043569D01*
X139688367Y-76030705D01*
X139626309Y-76005000D01*
X139561431Y-76005000D01*
X139500000Y-75992560D01*
X138147500Y-75992560D01*
X138147500Y-74937302D01*
X138752421Y-74332381D01*
X139260000Y-74433345D01*
X139833489Y-74319271D01*
X139890000Y-74281512D01*
X139890000Y-76131975D01*
X139890000Y-76131975D01*
G37*
X139890000Y-76131975D02*
X139859698Y-76101673D01*
X139801874Y-76077721D01*
X139751890Y-76043569D01*
X139688367Y-76030705D01*
X139626309Y-76005000D01*
X139561431Y-76005000D01*
X139500000Y-75992560D01*
X138147500Y-75992560D01*
X138147500Y-74937302D01*
X138752421Y-74332381D01*
X139260000Y-74433345D01*
X139833489Y-74319271D01*
X139890000Y-74281512D01*
X139890000Y-76131975D01*
M02*
