M48
;DRILL file {KiCad 4.0.1-stable} date 2/16/2016 5:47:23 PM
;FORMAT={-:-/ absolute / inch / decimal}
FMAT,2
INCH,TZ
T1C0.016
T2C0.040
%
G90
G05
M72
T1
X5.0925Y-3.2402
X5.1181Y-3.0925
X5.1949Y-2.9744
X5.25Y-3.3622
X5.3051Y-3.1535
X5.3051Y-3.2047
X5.313Y-3.1083
X5.3209Y-3.3524
X5.3386Y-3.2047
X5.3642Y-3.0748
X5.3642Y-3.1083
X5.3917Y-3.3524
X5.4075Y-3.1791
X5.5236Y-3.2795
X5.5669Y-3.0413
T2
X5.0827Y-2.8642
X5.1827Y-2.8642
X5.2827Y-2.8642
X5.3827Y-2.8642
X5.4827Y-2.8642
X5.5827Y-2.8642
T0
M30
