G04 #@! TF.FileFunction,Copper,L2,Bot,Signal*
%FSLAX46Y46*%
G04 Gerber Fmt 4.6, Leading zero omitted, Abs format (unit mm)*
G04 Created by KiCad (PCBNEW 4.0.1-stable) date 2/20/2016 9:56:53 PM*
%MOMM*%
G01*
G04 APERTURE LIST*
%ADD10C,0.100000*%
%ADD11R,0.900000X0.500000*%
%ADD12R,1.550000X0.600000*%
%ADD13R,1.727200X2.032000*%
%ADD14O,1.727200X2.032000*%
%ADD15C,0.700000*%
%ADD16C,0.250000*%
%ADD17C,0.254000*%
G04 APERTURE END LIST*
D10*
D11*
X136950000Y-82550000D03*
X136950000Y-84050000D03*
X138750000Y-82550000D03*
X138750000Y-84050000D03*
X135150000Y-82550000D03*
X135150000Y-84050000D03*
D12*
X133350000Y-79355000D03*
X133350000Y-78085000D03*
X133350000Y-76815000D03*
X133350000Y-75545000D03*
X138750000Y-75545000D03*
X138750000Y-76815000D03*
X138750000Y-78085000D03*
X138750000Y-79355000D03*
D11*
X133350000Y-82550000D03*
X133350000Y-84050000D03*
D13*
X129100000Y-72750000D03*
D14*
X131640000Y-72750000D03*
X134180000Y-72750000D03*
X136720000Y-72750000D03*
X139260000Y-72750000D03*
X141800000Y-72750000D03*
D15*
X136250000Y-78100000D03*
X134750000Y-80100000D03*
X141400000Y-77250000D03*
X135600000Y-81400000D03*
X131950000Y-75550000D03*
X134750000Y-81400000D03*
X136950000Y-85150000D03*
X130000000Y-78550000D03*
X140300000Y-83300000D03*
X135150000Y-85150000D03*
X133350000Y-85400000D03*
X137350000Y-80750000D03*
X129350000Y-82300000D03*
D16*
X133350000Y-78085000D02*
X136235000Y-78085000D01*
X136235000Y-78085000D02*
X136250000Y-78100000D01*
X131350000Y-81400000D02*
X129500000Y-83250000D01*
X128550000Y-82850000D02*
X128550000Y-73300000D01*
X128950000Y-83250000D02*
X128550000Y-82850000D01*
X129500000Y-83250000D02*
X128950000Y-83250000D01*
X128550000Y-73300000D02*
X129100000Y-72750000D01*
X129950000Y-80100000D02*
X129900000Y-80100000D01*
X129900000Y-80100000D02*
X129300000Y-79500000D01*
X131640000Y-72750000D02*
X131640000Y-74860000D01*
X131640000Y-74860000D02*
X129300000Y-77200000D01*
X129300000Y-77200000D02*
X129300000Y-79500000D01*
X134750000Y-80100000D02*
X129950000Y-80100000D01*
X133350000Y-76815000D02*
X134635000Y-76815000D01*
X136720000Y-74730000D02*
X136720000Y-72750000D01*
X134635000Y-76815000D02*
X136720000Y-74730000D01*
X134180000Y-72750000D02*
X134180000Y-74715000D01*
X134180000Y-74715000D02*
X133350000Y-75545000D01*
X140965000Y-76815000D02*
X138750000Y-76815000D01*
X141400000Y-77250000D02*
X140965000Y-76815000D01*
X135600000Y-82100000D02*
X135150000Y-82550000D01*
X135600000Y-82050000D02*
X135600000Y-82100000D01*
X135600000Y-82000000D02*
X135600000Y-82050000D01*
X135600000Y-81400000D02*
X135600000Y-82000000D01*
X131955000Y-75545000D02*
X133350000Y-75545000D01*
X131950000Y-75550000D02*
X131955000Y-75545000D01*
X138750000Y-78085000D02*
X139835000Y-78085000D01*
X140300000Y-78550000D02*
X140300000Y-83300000D01*
X139835000Y-78085000D02*
X140300000Y-78550000D01*
X134750000Y-81400000D02*
X131350000Y-81400000D01*
X136950000Y-85150000D02*
X136950000Y-84050000D01*
X133350000Y-79355000D02*
X130805000Y-79355000D01*
X130805000Y-79355000D02*
X130000000Y-78550000D01*
X137350000Y-80750000D02*
X137355000Y-80750000D01*
X137355000Y-80750000D02*
X138750000Y-79355000D01*
X138750000Y-84050000D02*
X139550000Y-84050000D01*
X139550000Y-84050000D02*
X140300000Y-83300000D01*
X135150000Y-84050000D02*
X135150000Y-85150000D01*
X138750000Y-84050000D02*
X138450000Y-84050000D01*
X138450000Y-84050000D02*
X136950000Y-82550000D01*
X133350000Y-82550000D02*
X133650000Y-82550000D01*
X133650000Y-82550000D02*
X135150000Y-84050000D01*
X133350000Y-85400000D02*
X133350000Y-84050000D01*
X138750000Y-82550000D02*
X138750000Y-82150000D01*
X138750000Y-82150000D02*
X137350000Y-80750000D01*
X130050000Y-80750000D02*
X130000000Y-80750000D01*
X137350000Y-80750000D02*
X130050000Y-80750000D01*
X129350000Y-81400000D02*
X129350000Y-82300000D01*
X130000000Y-80750000D02*
X129350000Y-81400000D01*
D17*
G36*
X144790000Y-87640000D02*
X126210000Y-87640000D01*
X126210000Y-71734000D01*
X127588960Y-71734000D01*
X127588960Y-73766000D01*
X127601400Y-73832113D01*
X127601400Y-73892309D01*
X127622155Y-73942416D01*
X127633238Y-74001317D01*
X127670608Y-74059391D01*
X127698073Y-74125698D01*
X127740714Y-74168339D01*
X127772310Y-74217441D01*
X127790000Y-74229528D01*
X127790000Y-82850000D01*
X127847852Y-83140839D01*
X128012599Y-83387401D01*
X128412599Y-83787401D01*
X128659160Y-83952148D01*
X128707414Y-83961746D01*
X128950000Y-84010000D01*
X129500000Y-84010000D01*
X129790839Y-83952148D01*
X130037401Y-83787401D01*
X131664802Y-82160000D01*
X132270671Y-82160000D01*
X132265000Y-82173691D01*
X132265000Y-82238569D01*
X132252560Y-82300000D01*
X132252560Y-82800000D01*
X132265000Y-82866113D01*
X132265000Y-82926309D01*
X132285755Y-82976416D01*
X132296838Y-83035317D01*
X132334208Y-83093391D01*
X132361673Y-83159698D01*
X132404314Y-83202339D01*
X132435910Y-83251441D01*
X132491179Y-83289205D01*
X132501974Y-83300000D01*
X132497660Y-83304315D01*
X132448559Y-83335910D01*
X132410794Y-83391180D01*
X132361673Y-83440302D01*
X132337721Y-83498126D01*
X132303569Y-83548110D01*
X132290705Y-83611633D01*
X132265000Y-83673691D01*
X132265000Y-83738569D01*
X132252560Y-83800000D01*
X132252560Y-84300000D01*
X132265000Y-84366113D01*
X132265000Y-84426309D01*
X132285755Y-84476416D01*
X132296838Y-84535317D01*
X132334208Y-84593391D01*
X132361673Y-84659698D01*
X132404314Y-84702339D01*
X132435910Y-84751441D01*
X132491179Y-84789205D01*
X132529379Y-84827405D01*
X132515445Y-84841314D01*
X132365172Y-85203212D01*
X132364830Y-85595069D01*
X132514471Y-85957229D01*
X132791314Y-86234555D01*
X133153212Y-86384828D01*
X133545069Y-86385170D01*
X133907229Y-86235529D01*
X134184555Y-85958686D01*
X134301751Y-85676445D01*
X134314471Y-85707229D01*
X134591314Y-85984555D01*
X134953212Y-86134828D01*
X135345069Y-86135170D01*
X135707229Y-85985529D01*
X135984555Y-85708686D01*
X136049975Y-85551137D01*
X136114471Y-85707229D01*
X136391314Y-85984555D01*
X136753212Y-86134828D01*
X137145069Y-86135170D01*
X137507229Y-85985529D01*
X137784555Y-85708686D01*
X137934828Y-85346788D01*
X137935170Y-84954931D01*
X137857061Y-84765893D01*
X137891179Y-84789205D01*
X137940301Y-84838327D01*
X137998128Y-84862280D01*
X138048110Y-84896431D01*
X138111631Y-84909294D01*
X138173690Y-84935000D01*
X138238569Y-84935000D01*
X138300000Y-84947440D01*
X139200000Y-84947440D01*
X139266113Y-84935000D01*
X139326310Y-84935000D01*
X139376418Y-84914245D01*
X139435317Y-84903162D01*
X139493390Y-84865793D01*
X139559699Y-84838327D01*
X139597468Y-84800558D01*
X139840839Y-84752148D01*
X140087401Y-84587401D01*
X140389724Y-84285078D01*
X140495069Y-84285170D01*
X140857229Y-84135529D01*
X141134555Y-83858686D01*
X141284828Y-83496788D01*
X141285170Y-83104931D01*
X141135529Y-82742771D01*
X141060000Y-82667110D01*
X141060000Y-78550000D01*
X141002148Y-78259161D01*
X141002148Y-78259160D01*
X140902440Y-78109937D01*
X141203212Y-78234828D01*
X141595069Y-78235170D01*
X141957229Y-78085529D01*
X142234555Y-77808686D01*
X142384828Y-77446788D01*
X142385170Y-77054931D01*
X142235529Y-76692771D01*
X141958686Y-76415445D01*
X141596788Y-76265172D01*
X141483655Y-76265073D01*
X141255839Y-76112852D01*
X140965000Y-76055000D01*
X140129914Y-76055000D01*
X140134294Y-76033369D01*
X140160000Y-75971310D01*
X140160000Y-75906431D01*
X140172440Y-75845000D01*
X140172440Y-75245000D01*
X140160000Y-75178887D01*
X140160000Y-75118690D01*
X140139245Y-75068582D01*
X140128162Y-75009683D01*
X140090793Y-74951610D01*
X140063327Y-74885301D01*
X140020685Y-74842660D01*
X139989090Y-74793559D01*
X139933820Y-74755794D01*
X139884698Y-74706673D01*
X139826874Y-74682721D01*
X139776890Y-74648569D01*
X139713367Y-74635705D01*
X139651309Y-74610000D01*
X139586431Y-74610000D01*
X139525000Y-74597560D01*
X137975000Y-74597560D01*
X137908887Y-74610000D01*
X137848691Y-74610000D01*
X137798584Y-74630755D01*
X137739683Y-74641838D01*
X137681609Y-74679208D01*
X137615302Y-74706673D01*
X137572661Y-74749314D01*
X137523559Y-74780910D01*
X137485795Y-74836179D01*
X137452196Y-74869778D01*
X137480000Y-74730000D01*
X137480000Y-74194648D01*
X137616731Y-74103287D01*
X137622036Y-74100732D01*
X137624229Y-74098277D01*
X137779670Y-73994415D01*
X137965468Y-73716349D01*
X137990000Y-73688892D01*
X138014532Y-73716349D01*
X138200330Y-73994415D01*
X138355771Y-74098277D01*
X138357964Y-74100732D01*
X138363269Y-74103287D01*
X138686511Y-74319271D01*
X139260000Y-74433345D01*
X139833489Y-74319271D01*
X140156731Y-74103287D01*
X140162036Y-74100732D01*
X140164229Y-74098277D01*
X140319670Y-73994415D01*
X140505468Y-73716349D01*
X140530000Y-73688892D01*
X140554532Y-73716349D01*
X140740330Y-73994415D01*
X140895771Y-74098277D01*
X140897964Y-74100732D01*
X140903269Y-74103287D01*
X141226511Y-74319271D01*
X141800000Y-74433345D01*
X142373489Y-74319271D01*
X142696731Y-74103287D01*
X142702036Y-74100732D01*
X142704229Y-74098277D01*
X142859670Y-73994415D01*
X143045468Y-73716349D01*
X143091954Y-73664320D01*
X143104832Y-73627505D01*
X143184526Y-73508234D01*
X143234587Y-73256560D01*
X143285184Y-73111913D01*
X143268699Y-73085069D01*
X143298600Y-72934745D01*
X143298600Y-72565255D01*
X143268699Y-72414931D01*
X143285184Y-72388087D01*
X143234587Y-72243440D01*
X143184526Y-71991766D01*
X143104832Y-71872495D01*
X143091954Y-71835680D01*
X143045468Y-71783651D01*
X142859670Y-71505585D01*
X142704229Y-71401723D01*
X142702036Y-71399268D01*
X142696731Y-71396713D01*
X142373489Y-71180729D01*
X141800000Y-71066655D01*
X141226511Y-71180729D01*
X140903269Y-71396713D01*
X140897964Y-71399268D01*
X140895771Y-71401723D01*
X140740330Y-71505585D01*
X140554532Y-71783651D01*
X140530000Y-71811108D01*
X140505468Y-71783651D01*
X140319670Y-71505585D01*
X140164229Y-71401723D01*
X140162036Y-71399268D01*
X140156731Y-71396713D01*
X139833489Y-71180729D01*
X139260000Y-71066655D01*
X138686511Y-71180729D01*
X138363269Y-71396713D01*
X138357964Y-71399268D01*
X138355771Y-71401723D01*
X138200330Y-71505585D01*
X138014532Y-71783651D01*
X137990000Y-71811108D01*
X137965468Y-71783651D01*
X137779670Y-71505585D01*
X137624229Y-71401723D01*
X137622036Y-71399268D01*
X137616731Y-71396713D01*
X137293489Y-71180729D01*
X136720000Y-71066655D01*
X136146511Y-71180729D01*
X135823269Y-71396713D01*
X135817964Y-71399268D01*
X135815771Y-71401723D01*
X135660330Y-71505585D01*
X135474532Y-71783651D01*
X135450000Y-71811108D01*
X135425468Y-71783651D01*
X135239670Y-71505585D01*
X135084229Y-71401723D01*
X135082036Y-71399268D01*
X135076731Y-71396713D01*
X134753489Y-71180729D01*
X134180000Y-71066655D01*
X133606511Y-71180729D01*
X133283269Y-71396713D01*
X133277964Y-71399268D01*
X133275771Y-71401723D01*
X133120330Y-71505585D01*
X132934532Y-71783651D01*
X132910000Y-71811108D01*
X132885468Y-71783651D01*
X132699670Y-71505585D01*
X132544229Y-71401723D01*
X132542036Y-71399268D01*
X132536731Y-71396713D01*
X132213489Y-71180729D01*
X131640000Y-71066655D01*
X131066511Y-71180729D01*
X130743269Y-71396713D01*
X130737964Y-71399268D01*
X130735771Y-71401723D01*
X130580330Y-71505585D01*
X130570757Y-71519913D01*
X130566762Y-71498683D01*
X130529392Y-71440609D01*
X130501927Y-71374302D01*
X130459286Y-71331661D01*
X130427690Y-71282559D01*
X130372421Y-71244795D01*
X130323299Y-71195673D01*
X130265472Y-71171720D01*
X130215490Y-71137569D01*
X130151969Y-71124706D01*
X130089910Y-71099000D01*
X130025031Y-71099000D01*
X129963600Y-71086560D01*
X128236400Y-71086560D01*
X128170287Y-71099000D01*
X128110090Y-71099000D01*
X128059982Y-71119755D01*
X128001083Y-71130838D01*
X127943010Y-71168207D01*
X127876701Y-71195673D01*
X127834060Y-71238315D01*
X127784959Y-71269910D01*
X127747194Y-71325180D01*
X127698073Y-71374302D01*
X127674121Y-71432126D01*
X127639969Y-71482110D01*
X127627105Y-71545633D01*
X127601400Y-71607691D01*
X127601400Y-71672569D01*
X127588960Y-71734000D01*
X126210000Y-71734000D01*
X126210000Y-69060000D01*
X144790000Y-69060000D01*
X144790000Y-87640000D01*
X144790000Y-87640000D01*
G37*
X144790000Y-87640000D02*
X126210000Y-87640000D01*
X126210000Y-71734000D01*
X127588960Y-71734000D01*
X127588960Y-73766000D01*
X127601400Y-73832113D01*
X127601400Y-73892309D01*
X127622155Y-73942416D01*
X127633238Y-74001317D01*
X127670608Y-74059391D01*
X127698073Y-74125698D01*
X127740714Y-74168339D01*
X127772310Y-74217441D01*
X127790000Y-74229528D01*
X127790000Y-82850000D01*
X127847852Y-83140839D01*
X128012599Y-83387401D01*
X128412599Y-83787401D01*
X128659160Y-83952148D01*
X128707414Y-83961746D01*
X128950000Y-84010000D01*
X129500000Y-84010000D01*
X129790839Y-83952148D01*
X130037401Y-83787401D01*
X131664802Y-82160000D01*
X132270671Y-82160000D01*
X132265000Y-82173691D01*
X132265000Y-82238569D01*
X132252560Y-82300000D01*
X132252560Y-82800000D01*
X132265000Y-82866113D01*
X132265000Y-82926309D01*
X132285755Y-82976416D01*
X132296838Y-83035317D01*
X132334208Y-83093391D01*
X132361673Y-83159698D01*
X132404314Y-83202339D01*
X132435910Y-83251441D01*
X132491179Y-83289205D01*
X132501974Y-83300000D01*
X132497660Y-83304315D01*
X132448559Y-83335910D01*
X132410794Y-83391180D01*
X132361673Y-83440302D01*
X132337721Y-83498126D01*
X132303569Y-83548110D01*
X132290705Y-83611633D01*
X132265000Y-83673691D01*
X132265000Y-83738569D01*
X132252560Y-83800000D01*
X132252560Y-84300000D01*
X132265000Y-84366113D01*
X132265000Y-84426309D01*
X132285755Y-84476416D01*
X132296838Y-84535317D01*
X132334208Y-84593391D01*
X132361673Y-84659698D01*
X132404314Y-84702339D01*
X132435910Y-84751441D01*
X132491179Y-84789205D01*
X132529379Y-84827405D01*
X132515445Y-84841314D01*
X132365172Y-85203212D01*
X132364830Y-85595069D01*
X132514471Y-85957229D01*
X132791314Y-86234555D01*
X133153212Y-86384828D01*
X133545069Y-86385170D01*
X133907229Y-86235529D01*
X134184555Y-85958686D01*
X134301751Y-85676445D01*
X134314471Y-85707229D01*
X134591314Y-85984555D01*
X134953212Y-86134828D01*
X135345069Y-86135170D01*
X135707229Y-85985529D01*
X135984555Y-85708686D01*
X136049975Y-85551137D01*
X136114471Y-85707229D01*
X136391314Y-85984555D01*
X136753212Y-86134828D01*
X137145069Y-86135170D01*
X137507229Y-85985529D01*
X137784555Y-85708686D01*
X137934828Y-85346788D01*
X137935170Y-84954931D01*
X137857061Y-84765893D01*
X137891179Y-84789205D01*
X137940301Y-84838327D01*
X137998128Y-84862280D01*
X138048110Y-84896431D01*
X138111631Y-84909294D01*
X138173690Y-84935000D01*
X138238569Y-84935000D01*
X138300000Y-84947440D01*
X139200000Y-84947440D01*
X139266113Y-84935000D01*
X139326310Y-84935000D01*
X139376418Y-84914245D01*
X139435317Y-84903162D01*
X139493390Y-84865793D01*
X139559699Y-84838327D01*
X139597468Y-84800558D01*
X139840839Y-84752148D01*
X140087401Y-84587401D01*
X140389724Y-84285078D01*
X140495069Y-84285170D01*
X140857229Y-84135529D01*
X141134555Y-83858686D01*
X141284828Y-83496788D01*
X141285170Y-83104931D01*
X141135529Y-82742771D01*
X141060000Y-82667110D01*
X141060000Y-78550000D01*
X141002148Y-78259161D01*
X141002148Y-78259160D01*
X140902440Y-78109937D01*
X141203212Y-78234828D01*
X141595069Y-78235170D01*
X141957229Y-78085529D01*
X142234555Y-77808686D01*
X142384828Y-77446788D01*
X142385170Y-77054931D01*
X142235529Y-76692771D01*
X141958686Y-76415445D01*
X141596788Y-76265172D01*
X141483655Y-76265073D01*
X141255839Y-76112852D01*
X140965000Y-76055000D01*
X140129914Y-76055000D01*
X140134294Y-76033369D01*
X140160000Y-75971310D01*
X140160000Y-75906431D01*
X140172440Y-75845000D01*
X140172440Y-75245000D01*
X140160000Y-75178887D01*
X140160000Y-75118690D01*
X140139245Y-75068582D01*
X140128162Y-75009683D01*
X140090793Y-74951610D01*
X140063327Y-74885301D01*
X140020685Y-74842660D01*
X139989090Y-74793559D01*
X139933820Y-74755794D01*
X139884698Y-74706673D01*
X139826874Y-74682721D01*
X139776890Y-74648569D01*
X139713367Y-74635705D01*
X139651309Y-74610000D01*
X139586431Y-74610000D01*
X139525000Y-74597560D01*
X137975000Y-74597560D01*
X137908887Y-74610000D01*
X137848691Y-74610000D01*
X137798584Y-74630755D01*
X137739683Y-74641838D01*
X137681609Y-74679208D01*
X137615302Y-74706673D01*
X137572661Y-74749314D01*
X137523559Y-74780910D01*
X137485795Y-74836179D01*
X137452196Y-74869778D01*
X137480000Y-74730000D01*
X137480000Y-74194648D01*
X137616731Y-74103287D01*
X137622036Y-74100732D01*
X137624229Y-74098277D01*
X137779670Y-73994415D01*
X137965468Y-73716349D01*
X137990000Y-73688892D01*
X138014532Y-73716349D01*
X138200330Y-73994415D01*
X138355771Y-74098277D01*
X138357964Y-74100732D01*
X138363269Y-74103287D01*
X138686511Y-74319271D01*
X139260000Y-74433345D01*
X139833489Y-74319271D01*
X140156731Y-74103287D01*
X140162036Y-74100732D01*
X140164229Y-74098277D01*
X140319670Y-73994415D01*
X140505468Y-73716349D01*
X140530000Y-73688892D01*
X140554532Y-73716349D01*
X140740330Y-73994415D01*
X140895771Y-74098277D01*
X140897964Y-74100732D01*
X140903269Y-74103287D01*
X141226511Y-74319271D01*
X141800000Y-74433345D01*
X142373489Y-74319271D01*
X142696731Y-74103287D01*
X142702036Y-74100732D01*
X142704229Y-74098277D01*
X142859670Y-73994415D01*
X143045468Y-73716349D01*
X143091954Y-73664320D01*
X143104832Y-73627505D01*
X143184526Y-73508234D01*
X143234587Y-73256560D01*
X143285184Y-73111913D01*
X143268699Y-73085069D01*
X143298600Y-72934745D01*
X143298600Y-72565255D01*
X143268699Y-72414931D01*
X143285184Y-72388087D01*
X143234587Y-72243440D01*
X143184526Y-71991766D01*
X143104832Y-71872495D01*
X143091954Y-71835680D01*
X143045468Y-71783651D01*
X142859670Y-71505585D01*
X142704229Y-71401723D01*
X142702036Y-71399268D01*
X142696731Y-71396713D01*
X142373489Y-71180729D01*
X141800000Y-71066655D01*
X141226511Y-71180729D01*
X140903269Y-71396713D01*
X140897964Y-71399268D01*
X140895771Y-71401723D01*
X140740330Y-71505585D01*
X140554532Y-71783651D01*
X140530000Y-71811108D01*
X140505468Y-71783651D01*
X140319670Y-71505585D01*
X140164229Y-71401723D01*
X140162036Y-71399268D01*
X140156731Y-71396713D01*
X139833489Y-71180729D01*
X139260000Y-71066655D01*
X138686511Y-71180729D01*
X138363269Y-71396713D01*
X138357964Y-71399268D01*
X138355771Y-71401723D01*
X138200330Y-71505585D01*
X138014532Y-71783651D01*
X137990000Y-71811108D01*
X137965468Y-71783651D01*
X137779670Y-71505585D01*
X137624229Y-71401723D01*
X137622036Y-71399268D01*
X137616731Y-71396713D01*
X137293489Y-71180729D01*
X136720000Y-71066655D01*
X136146511Y-71180729D01*
X135823269Y-71396713D01*
X135817964Y-71399268D01*
X135815771Y-71401723D01*
X135660330Y-71505585D01*
X135474532Y-71783651D01*
X135450000Y-71811108D01*
X135425468Y-71783651D01*
X135239670Y-71505585D01*
X135084229Y-71401723D01*
X135082036Y-71399268D01*
X135076731Y-71396713D01*
X134753489Y-71180729D01*
X134180000Y-71066655D01*
X133606511Y-71180729D01*
X133283269Y-71396713D01*
X133277964Y-71399268D01*
X133275771Y-71401723D01*
X133120330Y-71505585D01*
X132934532Y-71783651D01*
X132910000Y-71811108D01*
X132885468Y-71783651D01*
X132699670Y-71505585D01*
X132544229Y-71401723D01*
X132542036Y-71399268D01*
X132536731Y-71396713D01*
X132213489Y-71180729D01*
X131640000Y-71066655D01*
X131066511Y-71180729D01*
X130743269Y-71396713D01*
X130737964Y-71399268D01*
X130735771Y-71401723D01*
X130580330Y-71505585D01*
X130570757Y-71519913D01*
X130566762Y-71498683D01*
X130529392Y-71440609D01*
X130501927Y-71374302D01*
X130459286Y-71331661D01*
X130427690Y-71282559D01*
X130372421Y-71244795D01*
X130323299Y-71195673D01*
X130265472Y-71171720D01*
X130215490Y-71137569D01*
X130151969Y-71124706D01*
X130089910Y-71099000D01*
X130025031Y-71099000D01*
X129963600Y-71086560D01*
X128236400Y-71086560D01*
X128170287Y-71099000D01*
X128110090Y-71099000D01*
X128059982Y-71119755D01*
X128001083Y-71130838D01*
X127943010Y-71168207D01*
X127876701Y-71195673D01*
X127834060Y-71238315D01*
X127784959Y-71269910D01*
X127747194Y-71325180D01*
X127698073Y-71374302D01*
X127674121Y-71432126D01*
X127639969Y-71482110D01*
X127627105Y-71545633D01*
X127601400Y-71607691D01*
X127601400Y-71672569D01*
X127588960Y-71734000D01*
X126210000Y-71734000D01*
X126210000Y-69060000D01*
X144790000Y-69060000D01*
X144790000Y-87640000D01*
G36*
X134198249Y-84873555D02*
X134185529Y-84842771D01*
X134170405Y-84827621D01*
X134202340Y-84795685D01*
X134240880Y-84770886D01*
X134198249Y-84873555D01*
X134198249Y-84873555D01*
G37*
X134198249Y-84873555D02*
X134185529Y-84842771D01*
X134170405Y-84827621D01*
X134202340Y-84795685D01*
X134240880Y-84770886D01*
X134198249Y-84873555D01*
G36*
X136091179Y-83289205D02*
X136101974Y-83300000D01*
X136097660Y-83304315D01*
X136048559Y-83335910D01*
X136047610Y-83337299D01*
X136008821Y-83310795D01*
X135998026Y-83300000D01*
X136002340Y-83295685D01*
X136051441Y-83264090D01*
X136052390Y-83262701D01*
X136091179Y-83289205D01*
X136091179Y-83289205D01*
G37*
X136091179Y-83289205D02*
X136101974Y-83300000D01*
X136097660Y-83304315D01*
X136048559Y-83335910D01*
X136047610Y-83337299D01*
X136008821Y-83310795D01*
X135998026Y-83300000D01*
X136002340Y-83295685D01*
X136051441Y-83264090D01*
X136052390Y-83262701D01*
X136091179Y-83289205D01*
G36*
X139540000Y-81753513D02*
X139501872Y-81737720D01*
X139451890Y-81703569D01*
X139388369Y-81690706D01*
X139326310Y-81665000D01*
X139322414Y-81665000D01*
X139287401Y-81612599D01*
X138427302Y-80752500D01*
X138877362Y-80302440D01*
X139525000Y-80302440D01*
X139540000Y-80299618D01*
X139540000Y-81753513D01*
X139540000Y-81753513D01*
G37*
X139540000Y-81753513D02*
X139501872Y-81737720D01*
X139451890Y-81703569D01*
X139388369Y-81690706D01*
X139326310Y-81665000D01*
X139322414Y-81665000D01*
X139287401Y-81612599D01*
X138427302Y-80752500D01*
X138877362Y-80302440D01*
X139525000Y-80302440D01*
X139540000Y-80299618D01*
X139540000Y-81753513D01*
G36*
X136791314Y-81584555D02*
X136955088Y-81652560D01*
X136561669Y-81652560D01*
X136584828Y-81596788D01*
X136584904Y-81510000D01*
X136716889Y-81510000D01*
X136791314Y-81584555D01*
X136791314Y-81584555D01*
G37*
X136791314Y-81584555D02*
X136955088Y-81652560D01*
X136561669Y-81652560D01*
X136584828Y-81596788D01*
X136584904Y-81510000D01*
X136716889Y-81510000D01*
X136791314Y-81584555D01*
G36*
X137340000Y-75183569D02*
X137327560Y-75245000D01*
X137327560Y-75845000D01*
X137340000Y-75911113D01*
X137340000Y-75971310D01*
X137360755Y-76021418D01*
X137371838Y-76080317D01*
X137409207Y-76138390D01*
X137426442Y-76180000D01*
X137412720Y-76213128D01*
X137378569Y-76263110D01*
X137365706Y-76326631D01*
X137340000Y-76388690D01*
X137340000Y-76453569D01*
X137327560Y-76515000D01*
X137327560Y-77115000D01*
X137340000Y-77181113D01*
X137340000Y-77241310D01*
X137360755Y-77291418D01*
X137371838Y-77350317D01*
X137409207Y-77408390D01*
X137426442Y-77450000D01*
X137412720Y-77483128D01*
X137378569Y-77533110D01*
X137365706Y-77596631D01*
X137340000Y-77658690D01*
X137340000Y-77723569D01*
X137327560Y-77785000D01*
X137327560Y-78385000D01*
X137340000Y-78451113D01*
X137340000Y-78511310D01*
X137360755Y-78561418D01*
X137371838Y-78620317D01*
X137409207Y-78678390D01*
X137426442Y-78720000D01*
X137412720Y-78753128D01*
X137378569Y-78803110D01*
X137365706Y-78866631D01*
X137340000Y-78928690D01*
X137340000Y-78993569D01*
X137327560Y-79055000D01*
X137327560Y-79655000D01*
X137335104Y-79695094D01*
X137265272Y-79764926D01*
X137154931Y-79764830D01*
X136792771Y-79914471D01*
X136717110Y-79990000D01*
X135735096Y-79990000D01*
X135735170Y-79904931D01*
X135585529Y-79542771D01*
X135308686Y-79265445D01*
X134946788Y-79115172D01*
X134772440Y-79115020D01*
X134772440Y-79055000D01*
X134760000Y-78988887D01*
X134760000Y-78928690D01*
X134739245Y-78878582D01*
X134732926Y-78845000D01*
X135601915Y-78845000D01*
X135691314Y-78934555D01*
X136053212Y-79084828D01*
X136445069Y-79085170D01*
X136807229Y-78935529D01*
X137084555Y-78658686D01*
X137234828Y-78296788D01*
X137235170Y-77904931D01*
X137085529Y-77542771D01*
X136808686Y-77265445D01*
X136446788Y-77115172D01*
X136054931Y-77114830D01*
X135692771Y-77264471D01*
X135632136Y-77325000D01*
X135199802Y-77325000D01*
X137257401Y-75267401D01*
X137340000Y-75143783D01*
X137340000Y-75183569D01*
X137340000Y-75183569D01*
G37*
X137340000Y-75183569D02*
X137327560Y-75245000D01*
X137327560Y-75845000D01*
X137340000Y-75911113D01*
X137340000Y-75971310D01*
X137360755Y-76021418D01*
X137371838Y-76080317D01*
X137409207Y-76138390D01*
X137426442Y-76180000D01*
X137412720Y-76213128D01*
X137378569Y-76263110D01*
X137365706Y-76326631D01*
X137340000Y-76388690D01*
X137340000Y-76453569D01*
X137327560Y-76515000D01*
X137327560Y-77115000D01*
X137340000Y-77181113D01*
X137340000Y-77241310D01*
X137360755Y-77291418D01*
X137371838Y-77350317D01*
X137409207Y-77408390D01*
X137426442Y-77450000D01*
X137412720Y-77483128D01*
X137378569Y-77533110D01*
X137365706Y-77596631D01*
X137340000Y-77658690D01*
X137340000Y-77723569D01*
X137327560Y-77785000D01*
X137327560Y-78385000D01*
X137340000Y-78451113D01*
X137340000Y-78511310D01*
X137360755Y-78561418D01*
X137371838Y-78620317D01*
X137409207Y-78678390D01*
X137426442Y-78720000D01*
X137412720Y-78753128D01*
X137378569Y-78803110D01*
X137365706Y-78866631D01*
X137340000Y-78928690D01*
X137340000Y-78993569D01*
X137327560Y-79055000D01*
X137327560Y-79655000D01*
X137335104Y-79695094D01*
X137265272Y-79764926D01*
X137154931Y-79764830D01*
X136792771Y-79914471D01*
X136717110Y-79990000D01*
X135735096Y-79990000D01*
X135735170Y-79904931D01*
X135585529Y-79542771D01*
X135308686Y-79265445D01*
X134946788Y-79115172D01*
X134772440Y-79115020D01*
X134772440Y-79055000D01*
X134760000Y-78988887D01*
X134760000Y-78928690D01*
X134739245Y-78878582D01*
X134732926Y-78845000D01*
X135601915Y-78845000D01*
X135691314Y-78934555D01*
X136053212Y-79084828D01*
X136445069Y-79085170D01*
X136807229Y-78935529D01*
X137084555Y-78658686D01*
X137234828Y-78296788D01*
X137235170Y-77904931D01*
X137085529Y-77542771D01*
X136808686Y-77265445D01*
X136446788Y-77115172D01*
X136054931Y-77114830D01*
X135692771Y-77264471D01*
X135632136Y-77325000D01*
X135199802Y-77325000D01*
X137257401Y-75267401D01*
X137340000Y-75143783D01*
X137340000Y-75183569D01*
G36*
X131391314Y-76384555D02*
X131753212Y-76534828D01*
X131927560Y-76534980D01*
X131927560Y-77115000D01*
X131940000Y-77181113D01*
X131940000Y-77241310D01*
X131960755Y-77291418D01*
X131971838Y-77350317D01*
X132009207Y-77408390D01*
X132026442Y-77450000D01*
X132012720Y-77483128D01*
X131978569Y-77533110D01*
X131965706Y-77596631D01*
X131940000Y-77658690D01*
X131940000Y-77723569D01*
X131927560Y-77785000D01*
X131927560Y-78385000D01*
X131940000Y-78451113D01*
X131940000Y-78511310D01*
X131960755Y-78561418D01*
X131967074Y-78595000D01*
X131119802Y-78595000D01*
X130985078Y-78460276D01*
X130985170Y-78354931D01*
X130835529Y-77992771D01*
X130558686Y-77715445D01*
X130196788Y-77565172D01*
X130060000Y-77565053D01*
X130060000Y-77514802D01*
X131290868Y-76283934D01*
X131391314Y-76384555D01*
X131391314Y-76384555D01*
G37*
X131391314Y-76384555D02*
X131753212Y-76534828D01*
X131927560Y-76534980D01*
X131927560Y-77115000D01*
X131940000Y-77181113D01*
X131940000Y-77241310D01*
X131960755Y-77291418D01*
X131971838Y-77350317D01*
X132009207Y-77408390D01*
X132026442Y-77450000D01*
X132012720Y-77483128D01*
X131978569Y-77533110D01*
X131965706Y-77596631D01*
X131940000Y-77658690D01*
X131940000Y-77723569D01*
X131927560Y-77785000D01*
X131927560Y-78385000D01*
X131940000Y-78451113D01*
X131940000Y-78511310D01*
X131960755Y-78561418D01*
X131967074Y-78595000D01*
X131119802Y-78595000D01*
X130985078Y-78460276D01*
X130985170Y-78354931D01*
X130835529Y-77992771D01*
X130558686Y-77715445D01*
X130196788Y-77565172D01*
X130060000Y-77565053D01*
X130060000Y-77514802D01*
X131290868Y-76283934D01*
X131391314Y-76384555D01*
G36*
X140516900Y-77692098D02*
X140399802Y-77575000D01*
X140468516Y-77575000D01*
X140516900Y-77692098D01*
X140516900Y-77692098D01*
G37*
X140516900Y-77692098D02*
X140399802Y-77575000D01*
X140468516Y-77575000D01*
X140516900Y-77692098D01*
G36*
X130580330Y-73994415D02*
X130735771Y-74098277D01*
X130737964Y-74100732D01*
X130743269Y-74103287D01*
X130880000Y-74194648D01*
X130880000Y-74545198D01*
X129310000Y-76115198D01*
X129310000Y-74413440D01*
X129963600Y-74413440D01*
X130029713Y-74401000D01*
X130089910Y-74401000D01*
X130140018Y-74380245D01*
X130198917Y-74369162D01*
X130256990Y-74331793D01*
X130323299Y-74304327D01*
X130365940Y-74261685D01*
X130415041Y-74230090D01*
X130452806Y-74174820D01*
X130501927Y-74125698D01*
X130525879Y-74067874D01*
X130560031Y-74017890D01*
X130568400Y-73976561D01*
X130580330Y-73994415D01*
X130580330Y-73994415D01*
G37*
X130580330Y-73994415D02*
X130735771Y-74098277D01*
X130737964Y-74100732D01*
X130743269Y-74103287D01*
X130880000Y-74194648D01*
X130880000Y-74545198D01*
X129310000Y-76115198D01*
X129310000Y-74413440D01*
X129963600Y-74413440D01*
X130029713Y-74401000D01*
X130089910Y-74401000D01*
X130140018Y-74380245D01*
X130198917Y-74369162D01*
X130256990Y-74331793D01*
X130323299Y-74304327D01*
X130365940Y-74261685D01*
X130415041Y-74230090D01*
X130452806Y-74174820D01*
X130501927Y-74125698D01*
X130525879Y-74067874D01*
X130560031Y-74017890D01*
X130568400Y-73976561D01*
X130580330Y-73994415D01*
G36*
X135474532Y-73716349D02*
X135660330Y-73994415D01*
X135815771Y-74098277D01*
X135817964Y-74100732D01*
X135823269Y-74103287D01*
X135960000Y-74194648D01*
X135960000Y-74415198D01*
X134772440Y-75602758D01*
X134772440Y-75245000D01*
X134761433Y-75186503D01*
X134882148Y-75005840D01*
X134940000Y-74715000D01*
X134940000Y-74194648D01*
X135076731Y-74103287D01*
X135082036Y-74100732D01*
X135084229Y-74098277D01*
X135239670Y-73994415D01*
X135425468Y-73716349D01*
X135450000Y-73688892D01*
X135474532Y-73716349D01*
X135474532Y-73716349D01*
G37*
X135474532Y-73716349D02*
X135660330Y-73994415D01*
X135815771Y-74098277D01*
X135817964Y-74100732D01*
X135823269Y-74103287D01*
X135960000Y-74194648D01*
X135960000Y-74415198D01*
X134772440Y-75602758D01*
X134772440Y-75245000D01*
X134761433Y-75186503D01*
X134882148Y-75005840D01*
X134940000Y-74715000D01*
X134940000Y-74194648D01*
X135076731Y-74103287D01*
X135082036Y-74100732D01*
X135084229Y-74098277D01*
X135239670Y-73994415D01*
X135425468Y-73716349D01*
X135450000Y-73688892D01*
X135474532Y-73716349D01*
G36*
X132934532Y-73716349D02*
X133120330Y-73994415D01*
X133275771Y-74098277D01*
X133277964Y-74100732D01*
X133283269Y-74103287D01*
X133420000Y-74194648D01*
X133420000Y-74400198D01*
X133222638Y-74597560D01*
X132575000Y-74597560D01*
X132508887Y-74610000D01*
X132448691Y-74610000D01*
X132400000Y-74630168D01*
X132400000Y-74194648D01*
X132536731Y-74103287D01*
X132542036Y-74100732D01*
X132544229Y-74098277D01*
X132699670Y-73994415D01*
X132885468Y-73716349D01*
X132910000Y-73688892D01*
X132934532Y-73716349D01*
X132934532Y-73716349D01*
G37*
X132934532Y-73716349D02*
X133120330Y-73994415D01*
X133275771Y-74098277D01*
X133277964Y-74100732D01*
X133283269Y-74103287D01*
X133420000Y-74194648D01*
X133420000Y-74400198D01*
X133222638Y-74597560D01*
X132575000Y-74597560D01*
X132508887Y-74610000D01*
X132448691Y-74610000D01*
X132400000Y-74630168D01*
X132400000Y-74194648D01*
X132536731Y-74103287D01*
X132542036Y-74100732D01*
X132544229Y-74098277D01*
X132699670Y-73994415D01*
X132885468Y-73716349D01*
X132910000Y-73688892D01*
X132934532Y-73716349D01*
M02*
