G04 DipTrace 2.4.0.2*
%INBottom.gbr*%
%MOIN*%
%ADD14C,0.01*%
%ADD16C,0.02*%
%ADD18C,0.03*%
%ADD19C,0.012*%
%ADD20C,0.025*%
%ADD23C,0.05*%
%ADD24R,0.05X0.05*%
%ADD27R,0.0669X0.0669*%
%ADD28C,0.0669*%
%ADD29R,0.0591X0.0591*%
%ADD30C,0.0591*%
%FSLAX44Y44*%
G04*
G70*
G90*
G75*
G01*
%LNBottom*%
%LPD*%
X8827Y5077D2*
D14*
Y4897D1*
X9067Y4657D1*
X11977D1*
X13297Y5977D1*
Y8227D1*
X13717Y8647D1*
X14887D1*
X15067Y8827D1*
Y9187D1*
X14407Y4627D2*
Y4477D1*
X8257D1*
X7890Y4844D1*
Y5460D1*
X14947Y4627D2*
Y4597D1*
X14647Y4297D1*
X7987D1*
X7207Y5077D1*
Y5355D1*
X7103Y5460D1*
X11347Y8947D2*
X11137D1*
X10777Y8587D1*
X11707Y8917D2*
Y10837D1*
X10057D1*
X8467Y9247D1*
X5587D1*
X5497Y9337D1*
X9487Y10687D2*
X7447D1*
X7327Y10567D1*
X12637Y10867D2*
Y9937D1*
X12667D1*
X9307Y15337D2*
Y14977D1*
X10927Y13357D1*
X11617D1*
X12307Y10747D2*
Y9877D1*
X9465Y6247D2*
X9937Y6719D1*
Y9607D1*
X9967Y9637D1*
X11977Y11287D2*
X12007D1*
Y7327D1*
X10927Y6247D1*
X11040D1*
X13687Y10477D2*
X14347D1*
X11107Y10447D2*
X9937D1*
X9667Y10177D1*
Y7087D1*
X9307Y6727D1*
X9157D1*
X8677Y6247D1*
X9667Y5107D2*
Y4837D1*
X11887D1*
X12247Y5197D1*
Y5227D1*
X13057Y6037D1*
Y8377D1*
X13537Y8857D1*
X14647D1*
X14707Y8917D1*
X10252Y6247D2*
X10237D1*
Y9757D1*
X9937Y10057D1*
X14197Y5017D2*
D18*
Y5377D1*
X14527Y5707D1*
X15397D1*
X17377Y7687D1*
X17287D1*
X17317Y7717D1*
X17407D1*
X21503Y11813D1*
X21697Y12007D1*
X21503Y11813D2*
D16*
X20350Y12967D1*
X18730Y14587D1*
X14887D1*
X14107Y15367D1*
X7657Y14077D2*
X9607D1*
X10717Y12967D1*
X18667D1*
X20350D1*
X18667D2*
D3*
X17347Y7717D2*
D18*
X17377Y7687D1*
X17317Y7717D2*
D19*
Y7597D1*
X17227D1*
X15337Y9487D1*
X13927D1*
X13567Y9127D1*
X11827Y6247D2*
D18*
X12157D1*
X12517Y6607D1*
Y8527D1*
X13057Y9067D1*
X12997D1*
X13717Y9787D1*
X18757D1*
X19777Y10807D1*
Y11857D1*
X19957Y12037D1*
X13057Y9067D2*
Y10987D1*
X12397Y11647D1*
X6457D1*
X4687Y9877D1*
Y8167D1*
X17677Y11347D2*
D14*
X16207D1*
X15847Y11707D1*
X7307Y15337D2*
Y13197D1*
X7837Y12667D1*
X8947D1*
X9217Y12397D1*
X9607D1*
X9997Y12787D1*
X8107Y10417D2*
Y9907D1*
X5407D1*
X5227Y9727D1*
Y8917D1*
X20787Y8677D2*
X20647D1*
X18937Y6967D1*
Y6817D1*
X17767Y5647D1*
X12787Y6307D2*
X12674D1*
X11827Y5460D1*
X13687Y6277D2*
X14737D1*
X14947Y6067D1*
X12427Y15397D2*
X13627D1*
X14917Y14107D1*
X18697D1*
X18757Y14047D1*
X9997Y12787D2*
X9607D1*
X9217Y12397D1*
X12427Y15397D2*
Y13717D1*
X12787Y13357D1*
X12277Y12067D2*
X10717D1*
X9997Y12787D1*
X5227Y8917D2*
X8557D1*
X9367Y8107D1*
X10507Y8827D2*
Y8017D1*
X10777Y7747D1*
X11557D1*
X11737Y7567D1*
X10252Y5460D2*
Y5422D1*
X10657Y5017D1*
X11384D1*
X11827Y5460D1*
D20*
X9667Y5107D3*
X9937Y10057D3*
X11107Y10447D3*
X13687Y10477D3*
X14347D3*
X14947Y4627D3*
X19957Y12037D3*
X14197Y5017D3*
X21697Y12007D3*
X11977Y11287D3*
X8827Y5077D3*
X15067Y9187D3*
X14707Y8917D3*
X14407Y4627D3*
X9967Y9637D3*
X9487Y10687D3*
X10777Y8587D3*
X11347Y8947D3*
X5497Y9337D3*
X11707Y8917D3*
X4687Y8167D3*
X12307Y9877D3*
X12667Y9937D3*
X12307Y10747D3*
X12637Y10867D3*
X11617Y13357D3*
X7657Y14077D3*
X14107Y15367D3*
X18667Y12967D3*
X17347Y7717D3*
X13567Y9127D3*
X5077Y15097D3*
X20947Y14497D3*
X9217Y12397D3*
X15847Y11707D3*
X17677Y11347D3*
X9997Y12787D3*
X5227Y8917D3*
X8107Y10417D3*
X9367Y8107D3*
X18937Y6967D3*
X17767Y5647D3*
X12787Y6307D3*
X13687Y6277D3*
X14947Y6067D3*
X12427Y15397D3*
X12787Y13357D3*
X18757Y14047D3*
X12277Y12067D3*
X10507Y8827D3*
X10777Y7747D3*
X11737Y7567D3*
X17527Y12637D3*
X5011Y15534D2*
X4338Y14861D1*
X5719Y15534D2*
X4340Y14155D1*
X5739Y14848D2*
X4340Y13448D1*
X7133Y15534D2*
X6874Y15276D1*
X6369Y14771D2*
X5678Y14080D1*
X4715Y13116D2*
X4340Y12741D1*
X7756Y15450D2*
X6208Y13903D1*
X4891Y12586D2*
X4340Y12034D1*
X7921Y14909D2*
X6515Y13502D1*
X5292Y12279D2*
X4340Y11327D1*
X8562Y14842D2*
X8128Y14408D1*
X7479Y13760D2*
X6490Y12770D1*
X6024Y12304D2*
X4340Y10620D1*
X9151Y14724D2*
X8835Y14408D1*
X8170Y13743D2*
X6457Y12030D1*
X9990Y14856D2*
X9914Y14780D1*
X8877Y13743D2*
X7164Y12030D1*
X11375Y15534D2*
X10269Y14428D1*
X9523Y13682D2*
X7871Y12030D1*
X7107Y11265D2*
X6976Y11135D1*
X5963Y10122D2*
X5534Y9693D1*
X5140Y9299D2*
X5069Y9228D1*
X12083Y15534D2*
X10622Y14074D1*
X9877Y13329D2*
X8578Y12030D1*
X7814Y11265D2*
X7683Y11135D1*
X6758Y10210D2*
X6078Y9530D1*
X5518Y8970D2*
X5070Y8522D1*
X4424Y7876D2*
X4340Y7792D1*
X12790Y15534D2*
X10976Y13720D1*
X10231Y12975D2*
X9285Y12030D1*
X8521Y11265D2*
X8225Y10969D1*
X7256Y10000D2*
X6786Y9530D1*
X6220Y8965D2*
X4340Y7084D1*
X13497Y15534D2*
X11675Y13712D1*
X10609Y12647D2*
X9992Y12030D1*
X9228Y11265D2*
X8932Y10969D1*
X8366Y10404D2*
X7493Y9530D1*
X6927Y8965D2*
X4849Y6887D1*
X13816Y15146D2*
X11970Y13301D1*
X11305Y12635D2*
X10700Y12030D1*
X9935Y11265D2*
X9672Y11002D1*
X9073Y10404D2*
X8200Y9530D1*
X7634Y8965D2*
X5565Y6895D1*
X14911Y15534D2*
X14666Y15289D1*
X14186Y14809D2*
X12677Y13301D1*
X12012Y12635D2*
X11407Y12030D1*
X10642Y11265D2*
X10495Y11119D1*
X8341Y8965D2*
X6269Y6892D1*
X15618Y15534D2*
X15019Y14936D1*
X14539Y14456D2*
X13384Y13301D1*
X12719Y12635D2*
X12114Y12030D1*
X11349Y11265D2*
X11202Y11119D1*
X9385Y9302D2*
X6786Y6702D1*
X4930Y4846D2*
X4424Y4340D1*
X16325Y15534D2*
X15710Y14919D1*
X15045Y14254D2*
X14091Y13301D1*
X13426Y12635D2*
X12694Y11903D1*
X10924Y10133D2*
X10520Y9729D1*
X9385Y8594D2*
X7448Y6658D1*
X5609Y4819D2*
X5131Y4340D1*
X17032Y15534D2*
X16417Y14919D1*
X15752Y14254D2*
X14799Y13301D1*
X14133Y12635D2*
X13047Y11549D1*
X11424Y9926D2*
X10520Y9022D1*
X9385Y7887D2*
X8189Y6691D1*
X6311Y4813D2*
X5838Y4340D1*
X17739Y15534D2*
X17124Y14919D1*
X16459Y14254D2*
X15506Y13301D1*
X14841Y12635D2*
X13393Y11188D1*
X9385Y7180D2*
X9213Y7008D1*
X7040Y4835D2*
X6545Y4340D1*
X18446Y15534D2*
X17831Y14919D1*
X17166Y14254D2*
X16213Y13301D1*
X15548Y12635D2*
X13743Y10831D1*
X12404Y9492D2*
X12291Y9378D1*
X11518Y8606D2*
X10520Y7608D1*
X7394Y4482D2*
X7252Y4340D1*
X19154Y15534D2*
X18538Y14919D1*
X17873Y14254D2*
X16920Y13301D1*
X16255Y12635D2*
X14445Y10826D1*
X11725Y8106D2*
X10520Y6901D1*
X8512Y4893D2*
X8382Y4763D1*
X19861Y15534D2*
X19060Y14734D1*
X18580Y14254D2*
X17627Y13301D1*
X16962Y12635D2*
X14669Y10342D1*
X10073Y5747D2*
X9965Y5638D1*
X20568Y15534D2*
X19414Y14381D1*
X18934Y13901D2*
X18334Y13301D1*
X17669Y12635D2*
X15202Y10168D1*
X10512Y5479D2*
X10153Y5119D1*
X21275Y15534D2*
X19768Y14027D1*
X19288Y13547D2*
X19041Y13301D1*
X18362Y12622D2*
X15909Y10168D1*
X14106Y8365D2*
X13580Y7840D1*
X21982Y15534D2*
X20121Y13673D1*
X19083Y12635D2*
X16616Y10168D1*
X15423Y8976D2*
X15352Y8904D1*
X14813Y8365D2*
X13580Y7133D1*
X12774Y6327D2*
X12354Y5906D1*
X12167Y5719D2*
X11567Y5119D1*
X22534Y15380D2*
X20477Y13323D1*
X19790Y12635D2*
X17323Y10168D1*
X16558Y9404D2*
X16202Y9047D1*
X15777Y8622D2*
X13580Y6426D1*
X22534Y14672D2*
X20831Y12969D1*
X20348Y12486D2*
X20201Y12339D1*
X19395Y11533D2*
X18030Y10168D1*
X17266Y9404D2*
X16555Y8693D1*
X16130Y8268D2*
X12622Y4760D1*
X22534Y13965D2*
X21184Y12615D1*
X20702Y12133D2*
X20160Y11591D1*
X17973Y9404D2*
X16909Y8340D1*
X16484Y7915D2*
X14658Y6089D1*
X13816Y5247D2*
X13329Y4760D1*
X22534Y13258D2*
X21662Y12386D1*
X22534Y12551D2*
X22074Y12091D1*
X15307Y5324D2*
X14967Y4984D1*
X22534Y11844D2*
X15304Y4614D1*
X22534Y11137D2*
X15738Y4340D1*
X22534Y10430D2*
X16445Y4340D1*
X22534Y9723D2*
X21950Y9138D1*
X21326Y8514D2*
X17152Y4340D1*
X22534Y9016D2*
X22267Y8748D1*
X21715Y8197D2*
X17859Y4340D1*
X22534Y8308D2*
X18566Y4340D1*
X22534Y7601D2*
X21546Y6613D1*
X20401Y5468D2*
X19273Y4340D1*
X22534Y6894D2*
X21991Y6351D1*
X20663Y5023D2*
X19980Y4340D1*
X22534Y6187D2*
X22226Y5879D1*
X21135Y4788D2*
X20687Y4340D1*
X22534Y5480D2*
X21394Y4340D1*
X22534Y4773D2*
X22102Y4340D1*
X21863Y15534D2*
X22536Y14861D1*
X21155Y15534D2*
X22536Y14154D1*
X20448Y15534D2*
X22534Y13448D1*
X19741Y15534D2*
X22534Y12741D1*
X19034Y15534D2*
X22534Y12034D1*
X18327Y15534D2*
X21511Y12350D1*
X22038Y11823D2*
X22534Y11327D1*
X17620Y15534D2*
X18235Y14919D1*
X21773Y11381D2*
X22534Y10620D1*
X16913Y15534D2*
X17528Y14919D1*
X18193Y14254D2*
X19147Y13301D1*
X19812Y12635D2*
X20042Y12406D1*
X20325Y12122D2*
X20793Y11654D1*
X21345Y11102D2*
X22534Y9913D1*
X16206Y15534D2*
X16821Y14919D1*
X17486Y14254D2*
X18401Y13339D1*
X19105Y12635D2*
X19555Y12185D1*
X20160Y11580D2*
X20439Y11301D1*
X20991Y10749D2*
X22534Y9206D1*
X15499Y15534D2*
X16114Y14919D1*
X16779Y14254D2*
X17732Y13301D1*
X18450Y12583D2*
X19395Y11638D1*
X20638Y10395D2*
X21889Y9144D1*
X22253Y8780D2*
X22534Y8499D1*
X14792Y15534D2*
X15407Y14919D1*
X16072Y14254D2*
X17025Y13301D1*
X17690Y12635D2*
X19373Y10953D1*
X20284Y10042D2*
X21378Y8947D1*
X22057Y8269D2*
X22534Y7792D1*
X15365Y14254D2*
X16318Y13301D1*
X16983Y12635D2*
X19020Y10599D1*
X19930Y9688D2*
X22534Y7084D1*
X13377Y15534D2*
X15611Y13301D1*
X16276Y12635D2*
X18666Y10246D1*
X19577Y9335D2*
X22534Y6377D1*
X12670Y15534D2*
X14904Y13301D1*
X15569Y12635D2*
X18036Y10168D1*
X19223Y8981D2*
X21632Y6572D1*
X22173Y6031D2*
X22534Y5670D1*
X11963Y15534D2*
X14197Y13301D1*
X14862Y12635D2*
X17329Y10168D1*
X18094Y9404D2*
X18318Y9179D1*
X18870Y8628D2*
X20931Y6567D1*
X22168Y5330D2*
X22534Y4963D1*
X11256Y15534D2*
X13490Y13301D1*
X14155Y12635D2*
X16622Y10168D1*
X17387Y9404D2*
X17964Y8826D1*
X18516Y8274D2*
X20541Y6249D1*
X21850Y4940D2*
X22450Y4340D1*
X10865Y15218D2*
X12783Y13301D1*
X13448Y12635D2*
X15915Y10168D1*
X16679Y9404D2*
X17611Y8472D1*
X18163Y7921D2*
X20376Y5707D1*
X21309Y4774D2*
X21743Y4340D1*
X10556Y14820D2*
X11669Y13707D1*
X11967Y13409D2*
X12075Y13301D1*
X12741Y12635D2*
X15208Y10168D1*
X15972Y9404D2*
X17257Y8119D1*
X17809Y7567D2*
X21036Y4340D1*
X9724Y14945D2*
X11029Y13640D1*
X12034Y12635D2*
X13910Y10759D1*
X17456Y7213D2*
X20329Y4340D1*
X11326Y12635D2*
X11932Y12030D1*
X15304Y8658D2*
X16550Y7412D1*
X17102Y6860D2*
X19622Y4340D1*
X8468Y14787D2*
X8847Y14408D1*
X10581Y12674D2*
X11225Y12030D1*
X14890Y8365D2*
X16197Y7058D1*
X16748Y6506D2*
X18915Y4340D1*
X7013Y15534D2*
X8139Y14408D1*
X8805Y13743D2*
X10518Y12030D1*
X11282Y11265D2*
X11429Y11119D1*
X14182Y8365D2*
X15843Y6705D1*
X16395Y6153D2*
X18207Y4340D1*
X6874Y14967D2*
X7457Y14383D1*
X8097Y13743D2*
X9811Y12030D1*
X10575Y11265D2*
X10722Y11119D1*
X12365Y9476D2*
X12636Y9204D1*
X13660Y8180D2*
X15490Y6351D1*
X16041Y5799D2*
X17500Y4340D1*
X5599Y15534D2*
X5739Y15394D1*
X6363Y14771D2*
X9103Y12030D1*
X9868Y11265D2*
X10015Y11119D1*
X11031Y10103D2*
X11424Y9710D1*
X13580Y7553D2*
X15045Y6089D1*
X15688Y5446D2*
X16793Y4340D1*
X4892Y15534D2*
X8396Y12030D1*
X9161Y11265D2*
X9391Y11036D1*
X10277Y10150D2*
X11164Y9262D1*
X13580Y6846D2*
X14365Y6061D1*
X15102Y5324D2*
X16086Y4340D1*
X4340Y15380D2*
X5640Y14079D1*
X6578Y13141D2*
X7689Y12030D1*
X8454Y11265D2*
X8750Y10969D1*
X10520Y9199D2*
X10750Y8969D1*
X11161Y8558D2*
X11725Y7994D1*
X13580Y6139D2*
X13995Y5724D1*
X14580Y5139D2*
X14774Y4945D1*
X15265Y4454D2*
X15379Y4340D1*
X4340Y14672D2*
X5101Y13911D1*
X6413Y12599D2*
X6982Y12030D1*
X7747Y11265D2*
X8043Y10969D1*
X8609Y10404D2*
X8910Y10102D1*
X9321Y9691D2*
X9383Y9629D1*
X10782Y8230D2*
X11642Y7370D1*
X13370Y5642D2*
X13816Y5196D1*
X4340Y13965D2*
X4786Y13519D1*
X6020Y12285D2*
X6303Y12002D1*
X7040Y11265D2*
X7170Y11135D1*
X7901Y10404D2*
X8557Y9748D1*
X8968Y9337D2*
X9385Y8920D1*
X10520Y7785D2*
X11288Y7017D1*
X12379Y5926D2*
X12457Y5848D1*
X13017Y5288D2*
X13545Y4760D1*
X4340Y13258D2*
X4784Y12814D1*
X5313Y12285D2*
X5927Y11671D1*
X7598Y10000D2*
X8068Y9530D1*
X8606Y8992D2*
X9385Y8213D1*
X10520Y7078D2*
X10852Y6746D1*
X11879Y5719D2*
X12103Y5495D1*
X12663Y4935D2*
X12838Y4760D1*
X4340Y12551D2*
X5574Y11317D1*
X6891Y10000D2*
X7361Y9530D1*
X7926Y8964D2*
X9385Y7506D1*
X11556Y5335D2*
X11766Y5125D1*
X4340Y11844D2*
X5220Y10964D1*
X6148Y10036D2*
X6654Y9530D1*
X7219Y8964D2*
X9175Y7008D1*
X10437Y5747D2*
X10540Y5644D1*
X4340Y11137D2*
X4866Y10610D1*
X5418Y10058D2*
X5946Y9530D1*
X6512Y8964D2*
X8703Y6774D1*
X9990Y5487D2*
X10358Y5119D1*
X4340Y10430D2*
X4513Y10257D1*
X5070Y9699D2*
X5209Y9561D1*
X5805Y8964D2*
X8015Y6754D1*
X5070Y8992D2*
X7386Y6677D1*
X5070Y8285D2*
X6491Y6865D1*
X8272Y5084D2*
X8593Y4763D1*
X4838Y7810D2*
X5858Y6790D1*
X4340Y7601D2*
X5156Y6785D1*
X4340Y6894D2*
X4419Y6815D1*
X6415Y4819D2*
X6894Y4340D1*
X5697Y4830D2*
X6187Y4340D1*
X4971Y4849D2*
X5480Y4340D1*
X4340Y4773D2*
X4773Y4340D1*
X22235Y8554D2*
X22186Y8439D1*
X22109Y8341D1*
X22008Y8268D1*
X21892Y8224D1*
X21767Y8212D1*
X21645Y8234D1*
X21532Y8288D1*
X21438Y8370D1*
X21369Y8473D1*
X21330Y8592D1*
X21324Y8716D1*
X21351Y8838D1*
X21409Y8948D1*
X21495Y9039D1*
X21601Y9103D1*
X21721Y9137D1*
X21846Y9138D1*
X21966Y9106D1*
X22074Y9043D1*
X22161Y8954D1*
X22221Y8845D1*
X22250Y8724D1*
X22252Y8677D1*
X22235Y8554D1*
X6857Y15555D2*
Y14787D1*
X5757D1*
Y15549D1*
X4677Y15552D1*
X4322D1*
Y6720D1*
X4412Y6785D1*
X4525Y6839D1*
X4646Y6870D1*
X4770Y6877D1*
X4894Y6858D1*
X5011Y6816D1*
X5132Y6738D1*
X5200Y6785D1*
X5312Y6839D1*
X5433Y6870D1*
X5558Y6877D1*
X5681Y6858D1*
X5799Y6816D1*
X5920Y6738D1*
X5987Y6785D1*
X6100Y6839D1*
X6220Y6870D1*
X6345Y6877D1*
X6469Y6858D1*
X6586Y6816D1*
X6693Y6752D1*
X6796Y6652D1*
X6837Y6683D1*
X6950Y6734D1*
X7073Y6756D1*
X7197Y6748D1*
X7316Y6710D1*
X7422Y6645D1*
X7496Y6569D1*
X7526Y6605D1*
X7624Y6683D1*
X7738Y6734D1*
X7860Y6756D1*
X7985Y6748D1*
X8104Y6710D1*
X8210Y6645D1*
X8283Y6569D1*
X8314Y6605D1*
X8412Y6683D1*
X8525Y6734D1*
X8648Y6756D1*
X8798Y6740D1*
X8970Y6914D1*
X9079Y6979D1*
X9157Y6992D1*
X9198D1*
X9404Y7199D1*
X9402Y8712D1*
Y9810D1*
X8654Y9060D1*
X8548Y8995D1*
X8467Y8982D1*
X5533Y8988D1*
X5407Y9009D1*
X5295Y9063D1*
X5210Y9154D1*
X5164Y9269D1*
X5162Y9394D1*
X5205Y9510D1*
X5286Y9604D1*
X5396Y9662D1*
X5520Y9676D1*
X5640Y9645D1*
X5741Y9573D1*
X5782Y9512D1*
X8357D1*
X9266Y10420D1*
X7874Y10422D1*
X7877Y10017D1*
X6777D1*
Y10256D1*
X6754Y10220D1*
X6664Y10133D1*
X6558Y10068D1*
X6440Y10029D1*
X6315Y10017D1*
X6192Y10034D1*
X6075Y10078D1*
X5971Y10148D1*
X5886Y10239D1*
X5823Y10347D1*
X5788Y10462D1*
X5050Y9723D1*
X5052Y8167D1*
X5031Y8044D1*
X4970Y7936D1*
X4876Y7855D1*
X4760Y7809D1*
X4636Y7806D1*
X4517Y7844D1*
X4419Y7920D1*
X4351Y8024D1*
X4322Y8167D1*
Y9877D1*
X4343Y10000D1*
X4414Y10119D1*
X6199Y11905D1*
X6301Y11977D1*
X6435Y12011D1*
X12397Y12012D1*
X12520Y11991D1*
X12639Y11920D1*
X13315Y11245D1*
X13387Y11143D1*
X13421Y11009D1*
X13422Y10686D1*
X13476Y10744D1*
X13586Y10802D1*
X13710Y10816D1*
X13830Y10785D1*
X13890Y10743D1*
X14136Y10744D1*
X14246Y10802D1*
X14370Y10816D1*
X14490Y10785D1*
X14591Y10713D1*
X14660Y10610D1*
X14687Y10477D1*
X14664Y10355D1*
X14599Y10249D1*
X14500Y10174D1*
X14429Y10153D1*
X18604Y10152D1*
X19413Y10959D1*
X19412Y11857D1*
X19433Y11980D1*
X19504Y12099D1*
X19699Y12295D1*
X19801Y12367D1*
X19920Y12400D1*
X20044Y12391D1*
X20158Y12341D1*
X20249Y12256D1*
X20306Y12145D1*
X20322Y12022D1*
X20295Y11900D1*
X20215Y11779D1*
X20141Y11704D1*
X20142Y10970D1*
X21019Y11845D1*
X20927Y11944D1*
X20217Y12654D1*
X18963Y12652D1*
X18845Y12570D1*
X18725Y12536D1*
X18601Y12537D1*
X18481Y12574D1*
X18370Y12651D1*
X10717Y12652D1*
X10595Y12676D1*
X10494Y12744D1*
X9475Y13763D1*
X7783Y13762D1*
X7691Y13739D1*
X7567Y13749D1*
X7455Y13803D1*
X7370Y13894D1*
X7324Y14009D1*
X7322Y14134D1*
X7365Y14250D1*
X7446Y14344D1*
X7556Y14402D1*
X7680Y14416D1*
X7774Y14392D1*
X9520D1*
X9119Y14790D1*
X9055Y14848D1*
X8951Y14918D1*
X8866Y15009D1*
X8805Y15113D1*
X8734Y14990D1*
X8644Y14903D1*
X8538Y14838D1*
X8420Y14799D1*
X8295Y14787D1*
X8172Y14804D1*
X8055Y14848D1*
X7951Y14918D1*
X7866Y15009D1*
X7803Y15117D1*
X7767Y15236D1*
X7758Y15360D1*
X7777Y15483D1*
X7805Y15552D1*
X6853D1*
X9807Y15114D2*
X9734Y14990D1*
X9703Y14960D1*
X10290Y14369D1*
X11038Y13620D1*
X11406Y13624D1*
X11516Y13682D1*
X11640Y13696D1*
X11760Y13665D1*
X11861Y13593D1*
X11930Y13490D1*
X11957Y13357D1*
X11944Y13284D1*
X12967Y13282D1*
X18369D1*
X18497Y13367D1*
X18617Y13399D1*
X18742Y13396D1*
X18860Y13357D1*
X18965Y13283D1*
X19593Y13282D1*
X18599Y14272D1*
X14887D1*
X14765Y14296D1*
X14664Y14364D1*
X13976Y15052D1*
X13905Y15093D1*
X13820Y15184D1*
X13774Y15299D1*
X13772Y15424D1*
X13827Y15555D1*
X13177Y15552D1*
X10814D1*
X10851Y15415D1*
X10857Y15337D1*
X10843Y15213D1*
X10801Y15096D1*
X10734Y14990D1*
X10644Y14903D1*
X10538Y14838D1*
X10420Y14799D1*
X10295Y14787D1*
X10172Y14804D1*
X10055Y14848D1*
X9951Y14918D1*
X9866Y15009D1*
X9805Y15113D1*
X12337Y5933D2*
Y5737D1*
X11466D1*
X11509Y5660D1*
X11543Y5540D1*
X11550Y5460D1*
X11535Y5336D1*
X11490Y5219D1*
X11398Y5100D1*
X11780Y5102D1*
X12001Y5325D1*
X12041Y5393D1*
X12792Y6146D1*
X12790Y6365D1*
X12401Y5976D1*
X10718Y5855D2*
X10645Y5925D1*
X10536Y5823D1*
X10425Y5767D1*
X10304Y5739D1*
X10179Y5742D1*
X10059Y5775D1*
X9950Y5836D1*
X9857Y5925D1*
X9787Y5856D1*
X9871Y5768D1*
X9934Y5660D1*
X9969Y5540D1*
X9975Y5460D1*
X9966Y5386D1*
X10029Y5300D1*
X10070Y5183D1*
X10076Y5103D1*
X10679Y5102D1*
X10647Y5134D1*
X10579Y5239D1*
X10540Y5357D1*
X10530Y5482D1*
X10550Y5605D1*
X10600Y5719D1*
X10676Y5818D1*
X10716Y5849D1*
X10650Y6571D2*
X10676Y6605D1*
X10774Y6683D1*
X10887Y6734D1*
X11010Y6756D1*
X11061Y6753D1*
X11742Y7437D1*
X11741Y8579D1*
X11617Y8589D1*
X11500Y8644D1*
X11381Y8609D1*
X11257Y8619D1*
X11205Y8645D1*
X11117Y8552D1*
X11094Y8465D1*
X11029Y8359D1*
X10930Y8284D1*
X10811Y8249D1*
X10687Y8259D1*
X10575Y8313D1*
X10504Y8390D1*
X10502Y6691D1*
X10572Y6645D1*
X10645Y6569D1*
X5131Y4969D2*
X5085Y4932D1*
X4975Y4874D1*
X4855Y4840D1*
X4730Y4829D1*
X4606Y4844D1*
X4488Y4882D1*
X4379Y4943D1*
X4323Y4992D1*
X4322Y4322D1*
X7584D1*
X7018Y4893D1*
X6909Y4987D1*
X6798Y5051D1*
X6660Y4932D1*
X6549Y4874D1*
X6430Y4840D1*
X6305Y4829D1*
X6181Y4844D1*
X6063Y4882D1*
X5954Y4943D1*
X5921Y4971D1*
X5873Y4932D1*
X5762Y4874D1*
X5642Y4840D1*
X5518Y4829D1*
X5394Y4844D1*
X5275Y4882D1*
X5166Y4943D1*
X5134Y4971D1*
X8284Y5140D2*
X8174Y5036D1*
X8157Y5027D1*
X8155Y4956D1*
X8367Y4741D1*
X8612Y4742D1*
X8540Y4894D1*
X8507Y4977D1*
X8375Y5048D1*
X8282Y5137D1*
X6902Y11117D2*
X7877D1*
Y10949D1*
X8697Y10952D1*
X9276Y10954D1*
X9386Y11012D1*
X9510Y11026D1*
X9630Y10995D1*
X9731Y10923D1*
X9746Y10901D1*
X9870Y11024D1*
X9976Y11089D1*
X10057Y11102D1*
X11690Y11104D1*
X11644Y11219D1*
X11643Y11285D1*
X10522Y11282D1*
X6612D1*
X6431Y11104D1*
X6485Y11094D1*
X6599Y11044D1*
X6700Y10971D1*
X6779Y10879D1*
X6777Y11117D1*
X6902D1*
X11442Y10420D2*
X11424Y10325D1*
X11359Y10219D1*
X11260Y10144D1*
X11141Y10109D1*
X11017Y10119D1*
X10897Y10182D1*
X10252D1*
X10301Y10068D1*
X10424Y9944D1*
X10489Y9838D1*
X10502Y9757D1*
Y8784D1*
X10566Y8854D1*
X10676Y8912D1*
X10734Y8919D1*
X10950Y9134D1*
X11058Y9200D1*
X11136Y9214D1*
X11246Y9272D1*
X11370Y9286D1*
X11441Y9268D1*
X11442Y10390D1*
X15264Y4505D2*
X15199Y4399D1*
X15097Y4322D1*
X22552D1*
Y15552D1*
X14392D1*
X14421Y15496D1*
X15018Y14902D1*
X18730D1*
X18851Y14878D1*
X18952Y14810D1*
X21468Y12297D1*
X21541Y12337D1*
X21660Y12370D1*
X21784Y12361D1*
X21898Y12311D1*
X21989Y12226D1*
X22046Y12115D1*
X22062Y11992D1*
X22035Y11870D1*
X21988Y11794D1*
X21972Y11690D1*
X21925Y11574D1*
X21850Y11475D1*
X21753Y11397D1*
X21638Y11348D1*
X21534Y11331D1*
X20259Y10053D1*
X15655Y5449D1*
X15553Y5377D1*
X15419Y5343D1*
X14674Y5342D1*
X14561Y5225D1*
X14562Y5017D1*
X14548Y4937D1*
X14651Y4863D1*
X14675Y4828D1*
X14736Y4894D1*
X14846Y4952D1*
X14970Y4966D1*
X15090Y4935D1*
X15191Y4863D1*
X15260Y4760D1*
X15287Y4627D1*
X15264Y4505D1*
X22213Y5582D2*
X22188Y5460D1*
X22146Y5342D1*
X22089Y5232D1*
X22017Y5129D1*
X21931Y5038D1*
X21835Y4959D1*
X21728Y4895D1*
X21613Y4845D1*
X21493Y4811D1*
X21369Y4794D1*
X21244D1*
X21121Y4811D1*
X21000Y4845D1*
X20886Y4895D1*
X20779Y4960D1*
X20682Y5039D1*
X20597Y5130D1*
X20525Y5232D1*
X20468Y5343D1*
X20426Y5461D1*
X20400Y5583D1*
X20392Y5707D1*
X20401Y5832D1*
X20426Y5954D1*
X20468Y6072D1*
X20525Y6183D1*
X20598Y6285D1*
X20683Y6376D1*
X20780Y6455D1*
X20887Y6520D1*
X21001Y6569D1*
X21121Y6603D1*
X21245Y6620D1*
X21370D1*
X21494Y6603D1*
X21614Y6569D1*
X21729Y6519D1*
X21835Y6454D1*
X21932Y6375D1*
X22017Y6284D1*
X22089Y6182D1*
X22147Y6071D1*
X22188Y5953D1*
X22214Y5831D1*
X22222Y5707D1*
X22213Y5582D1*
X6553Y13022D2*
X6528Y12900D1*
X6486Y12782D1*
X6429Y12672D1*
X6357Y12569D1*
X6271Y12478D1*
X6175Y12399D1*
X6068Y12335D1*
X5953Y12285D1*
X5833Y12251D1*
X5709Y12234D1*
X5584D1*
X5461Y12251D1*
X5340Y12285D1*
X5226Y12335D1*
X5119Y12400D1*
X5022Y12479D1*
X4937Y12570D1*
X4865Y12672D1*
X4808Y12783D1*
X4766Y12901D1*
X4740Y13023D1*
X4732Y13147D1*
X4741Y13272D1*
X4766Y13394D1*
X4808Y13512D1*
X4865Y13623D1*
X4938Y13725D1*
X5023Y13816D1*
X5120Y13895D1*
X5227Y13960D1*
X5341Y14009D1*
X5461Y14043D1*
X5585Y14060D1*
X5710D1*
X5834Y14043D1*
X5954Y14009D1*
X6069Y13959D1*
X6175Y13894D1*
X6272Y13815D1*
X6357Y13724D1*
X6429Y13622D1*
X6487Y13511D1*
X6528Y13393D1*
X6554Y13271D1*
X6562Y13147D1*
X6553Y13022D1*
X13396Y5701D2*
X12438Y4743D1*
X13956Y4742D1*
X13929Y4770D1*
X13861Y4874D1*
X13832Y5017D1*
Y5377D1*
X13853Y5500D1*
X13924Y5619D1*
X14269Y5965D1*
X14371Y6037D1*
X14505Y6071D1*
X15250Y6072D1*
X16288Y7114D1*
X16804Y7631D1*
X15378Y9057D1*
X15332Y8937D1*
Y8827D1*
X15303Y8706D1*
X15254Y8640D1*
X15074Y8460D1*
X14968Y8395D1*
X14887Y8382D1*
X13828D1*
X13559Y8114D1*
X13562Y7477D1*
Y5977D1*
X13533Y5856D1*
X13484Y5790D1*
X13396Y5701D1*
X12577Y9609D2*
X12523Y9559D1*
X12410Y9506D1*
X12275Y9495D1*
X12272Y8799D1*
X12648Y9175D1*
X12681Y9249D1*
X12692Y9317D1*
Y9594D1*
X17251Y8077D2*
X18594Y9420D1*
X16382Y9422D1*
X15797Y9416D1*
X17164Y8049D1*
X17195Y8061D1*
D23*
X21787Y8677D3*
D24*
X20787D3*
D27*
X6307Y15337D3*
D28*
X7307D3*
X8307D3*
X9307D3*
X10307D3*
D29*
X11827Y6247D3*
D30*
X11040D3*
X10252D3*
X9465D3*
X8677D3*
X7890D3*
X7103D3*
X6315D3*
X5528D3*
X4740D3*
Y5460D3*
X5528D3*
X6315D3*
X7103D3*
X7890D3*
X8677D3*
X9465D3*
X10252D3*
X11040D3*
X11827D3*
D27*
X7327Y10567D3*
D28*
X6327D3*
M02*
