G04 DipTrace 2.4.0.2*
%INTop.gbr*%
%MOIN*%
%ADD14C,0.01*%
%ADD15C,0.0079*%
%ADD16C,0.02*%
%ADD17C,0.015*%
%ADD18C,0.03*%
%ADD20C,0.025*%
%ADD21R,0.0433X0.0394*%
%ADD22R,0.0394X0.0433*%
%ADD23C,0.05*%
%ADD24R,0.05X0.05*%
%ADD26R,0.0256X0.0413*%
%ADD27R,0.0669X0.0669*%
%ADD28C,0.0669*%
%ADD29R,0.0591X0.0591*%
%ADD30C,0.0591*%
%ADD32R,0.063X0.0079*%
%ADD33R,0.0079X0.063*%
%ADD34R,0.0394X0.1083*%
%ADD35R,0.2185X0.2421*%
%ADD36R,0.0787X0.0236*%
%ADD37R,0.0709X0.063*%
%FSLAX44Y44*%
G04*
G70*
G90*
G75*
G01*
%LNTop*%
%LPD*%
X8827Y5077D2*
D14*
Y5310D1*
X8677Y5460D1*
X15011Y8380D2*
D15*
Y8744D1*
D14*
Y9131D1*
X15067Y9187D1*
X13188Y5624D2*
X13050D1*
X12517Y6157D1*
Y6937D1*
X12367Y7087D1*
X7387D1*
X7147Y6847D1*
Y6291D1*
X7103Y6247D1*
X14917Y5407D2*
X14467D1*
X14347Y5287D1*
X12907D1*
X12337Y5857D1*
Y6847D1*
X12277Y6907D1*
X7957D1*
X7867Y6817D1*
Y6270D1*
X7890Y6247D1*
X18937Y5947D2*
D16*
Y5707D1*
X18187Y4957D1*
X14737D1*
X14407Y4627D1*
X19777Y7687D2*
X19627D1*
Y5797D1*
X18487Y4657D1*
X14917D1*
X14947Y4627D1*
X12255Y8380D2*
D15*
Y8744D1*
D14*
Y9119D1*
X12157Y9217D1*
X11047D1*
Y8467D1*
X9847Y7267D1*
X5917D1*
X5407Y7777D1*
X7533D2*
X7657D1*
X7987Y7447D1*
X9697D1*
X10777Y8527D1*
Y8587D1*
X11468Y8380D2*
D15*
Y8744D1*
D14*
Y8826D1*
X11347Y8947D1*
X11707Y8917D2*
X11677D1*
Y8392D1*
D15*
X11665Y8380D1*
X5497Y9337D2*
D14*
X5467D1*
X5407Y9277D1*
X7533Y8277D2*
X8327D1*
X8377Y8227D1*
X8578D1*
X8887Y8536D1*
X9367D1*
Y10119D1*
X9635Y10387D1*
X9875Y10627D1*
X9487Y10687D2*
D17*
X9635Y10387D1*
X7533Y8777D2*
D14*
X8258D1*
X8377Y8896D1*
X8857Y9058D2*
X8538D1*
X8377Y8896D1*
X8857Y9058D2*
X9076D1*
X9067Y9067D1*
X9187D1*
Y10567D1*
X9127Y10627D1*
X8848D1*
X8647Y10828D1*
X14027Y14521D2*
D15*
Y14156D1*
D14*
Y9137D1*
X13813Y8923D1*
Y8362D1*
D15*
X13830Y8380D1*
Y8015D1*
D14*
Y7464D1*
X13857Y7437D1*
X14887Y6958D2*
Y6787D1*
X14347Y6247D1*
Y6114D1*
X13857Y5624D1*
X18295Y11375D2*
Y11107D1*
X18188Y11000D1*
X17375D1*
X17250Y11125D1*
Y11437D1*
X16717D1*
D15*
X16704Y11450D1*
X8257Y13606D2*
D14*
Y13627D1*
X8377D1*
Y15267D1*
X8307Y15337D1*
X10562Y11057D2*
D15*
X10197D1*
D14*
X10107D1*
X9817Y11347D1*
Y12547D1*
X8737Y13627D1*
X8377D1*
X13239Y8380D2*
D15*
Y8744D1*
D14*
Y9365D1*
X12667Y9937D1*
X12637Y10867D2*
Y11017D1*
X11857D1*
X11557Y11317D1*
Y13297D1*
X11617Y13357D1*
X16732Y7499D2*
D16*
Y7387D1*
X18277D1*
Y6967D1*
Y5956D1*
X18268Y5947D1*
X15405Y8380D2*
D15*
Y8015D1*
D14*
Y7559D1*
X15457Y7507D1*
X16327Y6616D2*
Y6637D1*
X15457Y7507D1*
X19777Y8356D2*
D16*
Y8617D1*
X19207Y9187D1*
X18170D1*
Y9062D1*
X15602Y8380D2*
D15*
Y8015D1*
D14*
Y7961D1*
X16063Y7499D1*
X16095D1*
X17308Y6286D1*
X17407D1*
X15208Y8380D2*
D15*
Y8038D1*
D14*
X14947Y7777D1*
Y7687D1*
X14887Y7627D1*
X14672D1*
X13857Y6812D1*
X15457Y6838D2*
D17*
Y6067D1*
X15577D1*
Y5416D1*
X15586Y5407D1*
X13043Y8380D2*
D15*
Y8744D1*
D14*
Y9111D1*
X12337Y9817D1*
Y9907D1*
X12307Y9877D1*
X10307Y15337D2*
Y14667D1*
X11317Y13657D1*
Y11257D1*
X11947Y10627D1*
X12187D1*
X12307Y10747D1*
X16704Y9088D2*
D15*
X17069D1*
D14*
X17474D1*
X17500Y9062D1*
D16*
Y8705D1*
X17831Y8375D1*
X21938Y9687D2*
X22087D1*
Y8977D1*
X21787Y8677D1*
X8647Y11497D2*
X6817D1*
X6247Y10927D1*
Y10647D1*
X6327Y10567D1*
X10562Y9876D2*
D15*
X10206D1*
D14*
X9967Y9637D1*
X12452Y14521D2*
D15*
Y14132D1*
D14*
X11977Y13657D1*
Y11287D1*
X11107Y10447D2*
X13657D1*
X13687Y10477D1*
X15798Y8380D2*
D15*
Y8744D1*
D14*
Y10316D1*
X15637Y10477D1*
X14347D1*
X9465Y5460D2*
X9667Y5257D1*
Y5107D1*
X14814Y8380D2*
D15*
Y8744D1*
D14*
Y8810D1*
X14707Y8917D1*
X9937Y10057D2*
X10547D1*
D15*
X10562Y10072D1*
X16704Y11844D2*
X17069D1*
D14*
X17250D1*
Y12058D1*
Y12250D1*
X17375Y12375D1*
X18313D1*
Y12018D1*
X18295Y12000D1*
X18170Y13500D2*
Y13875D1*
X16704D1*
Y13813D1*
X13633Y14521D2*
D15*
Y14886D1*
D14*
Y14977D1*
Y15286D1*
X13544Y15375D1*
X15995Y8380D2*
D15*
Y8015D1*
D14*
X16045D1*
X16438Y8407D1*
X13436Y8380D2*
D15*
Y7998D1*
D14*
X13365Y7927D1*
X12740D1*
X12562Y7749D1*
Y7603D1*
X12556Y7597D1*
X11271Y8380D2*
D15*
Y8015D1*
D14*
Y7927D1*
Y7472D1*
X11296Y7447D1*
X12740Y7927D2*
X11271D1*
X21012Y10757D2*
X21377D1*
D18*
X21932Y11312D1*
Y11797D1*
Y10363D1*
X21938Y10356D1*
X21932Y11797D2*
X22177D1*
X22417Y11557D1*
X11040Y5460D2*
D14*
Y5144D1*
X11287Y4897D1*
X14077D1*
X14197Y5017D1*
X21697Y12007D2*
D18*
X21722D1*
X21932Y11797D1*
X7533Y9277D2*
D14*
X7657D1*
X8107Y9727D1*
X11456Y15375D2*
Y15236D1*
X11227Y15007D1*
Y14565D1*
D15*
X11271Y14521D1*
X6307Y15337D2*
D16*
Y14887D1*
X7579Y13615D1*
X7944Y13250D1*
X8257Y12937D1*
X7579Y13615D2*
Y13999D1*
X7657Y14077D1*
X14107Y15367D2*
D14*
X13552D1*
X13544Y15375D1*
X11456D2*
X11854Y14977D1*
X13633D1*
X18170Y13500D2*
D16*
Y13464D1*
X18667Y12967D1*
Y12372D1*
X18295Y12000D1*
X16867Y12007D2*
D14*
X16738D1*
D15*
X16704Y12041D1*
X17250Y12058D2*
D14*
X16721D1*
D15*
X16704Y12041D1*
X17347Y7717D2*
D14*
X17128D1*
X16438Y8407D1*
X7944Y13250D2*
D17*
Y12234D1*
X7567Y11857D1*
X6757D1*
X6487Y11587D1*
X6277D1*
X4957Y10267D1*
Y9817D1*
X5077Y9697D1*
X8077D1*
X8107Y9727D1*
X13436Y8380D2*
D15*
Y8744D1*
D14*
Y8996D1*
X13567Y9127D1*
X19324Y10757D2*
D16*
X19946D1*
X20313Y11125D1*
Y11621D1*
X20137Y11797D1*
X19957Y12037D2*
Y11977D1*
X20137Y11797D1*
X5407Y8277D2*
D18*
X4742D1*
X4687Y8332D1*
X4642D1*
X4447Y8527D1*
X4687Y8167D2*
X4742Y8277D1*
X17625Y12000D2*
D14*
Y11704D1*
Y11375D1*
X16704Y11647D2*
D15*
X17069D1*
D14*
X17568D1*
X17625Y11704D1*
X13633Y8380D2*
D15*
Y8015D1*
D14*
Y7820D1*
X13250Y7437D1*
X13188D1*
X19324Y11860D2*
D16*
Y12725D1*
X21035Y14435D1*
X21012Y11860D2*
Y14412D1*
X21035Y14435D1*
X20947Y14497D2*
X21035Y14435D1*
X16704Y11647D2*
D15*
X16339D1*
D14*
X15907D1*
X15847Y11707D1*
X17677Y11347D2*
X17625D1*
Y11375D1*
X9217Y12397D2*
Y11817D1*
X9501Y11533D1*
X9997Y12787D2*
Y12067D1*
X10025D1*
Y12041D1*
X10562D1*
X10025D2*
Y11647D1*
X10562D1*
Y11450D2*
D15*
X10221D1*
D14*
X10025Y11647D1*
X10562Y11254D2*
D15*
Y11287D1*
X10385D1*
D14*
X10221Y11450D1*
X8857Y9727D2*
X8776D1*
X8107Y10396D1*
Y10417D2*
Y10396D1*
X18937Y6967D2*
Y7938D1*
X18501Y8375D1*
X18937Y6967D2*
Y7237D1*
X18457Y7717D1*
X17797D1*
X17107Y8407D1*
X17767Y5647D2*
X17437D1*
X17407Y5617D1*
X18937Y6967D2*
X18946D1*
X17407Y5617D2*
X16657D1*
X16327Y5947D1*
X12787Y6307D2*
Y6411D1*
X13188Y6812D1*
X12787Y6307D2*
X13578D1*
X13618D1*
X13678Y6247D1*
X13687Y6277D2*
X13578D1*
Y6307D1*
X18757Y14047D2*
X20647D1*
X21035Y14435D1*
X12125Y15375D2*
X12405D1*
X12427Y15397D1*
X12853D1*
X12875Y15375D1*
X12787Y13357D2*
Y12577D1*
X12277Y12067D1*
X9367Y8107D2*
X9127D1*
X8887Y7867D1*
X14947Y6067D2*
X14908D1*
X9367Y8107D2*
X9787D1*
X10507Y8827D1*
X10627Y7447D2*
Y7597D1*
X10777Y7747D1*
X11737Y7567D2*
X11887D1*
Y7597D1*
X11737Y7567D2*
X12037Y7267D1*
X13018D1*
X13188Y7437D1*
Y6812D2*
Y7437D1*
X17500Y13500D2*
Y12664D1*
X17527Y12637D1*
D20*
X9667Y5107D3*
X9937Y10057D3*
X11107Y10447D3*
X13687Y10477D3*
X14347D3*
X14947Y4627D3*
X19957Y12037D3*
X14197Y5017D3*
X21697Y12007D3*
X11977Y11287D3*
X8827Y5077D3*
X15067Y9187D3*
X14707Y8917D3*
X14407Y4627D3*
X9967Y9637D3*
X9487Y10687D3*
X10777Y8587D3*
X11347Y8947D3*
X5497Y9337D3*
X11707Y8917D3*
X4687Y8167D3*
X12307Y9877D3*
X12667Y9937D3*
X12307Y10747D3*
X12637Y10867D3*
X11617Y13357D3*
X7657Y14077D3*
X14107Y15367D3*
X18667Y12967D3*
X17347Y7717D3*
X13567Y9127D3*
X5077Y15097D3*
X20947Y14497D3*
X9217Y12397D3*
X15847Y11707D3*
X17677Y11347D3*
X9997Y12787D3*
X5227Y8917D3*
X8107Y10417D3*
X9367Y8107D3*
X18937Y6967D3*
X17767Y5647D3*
X12787Y6307D3*
X13687Y6277D3*
X14947Y6067D3*
X12427Y15397D3*
X12787Y13357D3*
X18757Y14047D3*
X12277Y12067D3*
X10507Y8827D3*
X10777Y7747D3*
X11737Y7567D3*
X17527Y12637D3*
X5011Y15534D2*
X4338Y14861D1*
X5719Y15534D2*
X4340Y14155D1*
X5739Y14848D2*
X4340Y13448D1*
X7133Y15534D2*
X6874Y15276D1*
X6156Y14558D2*
X5678Y14080D1*
X4715Y13116D2*
X4340Y12741D1*
X7756Y15450D2*
X6990Y14684D1*
X6510Y14204D2*
X6208Y13903D1*
X4891Y12586D2*
X4340Y12034D1*
X7921Y14909D2*
X7344Y14331D1*
X6863Y13851D2*
X6515Y13502D1*
X5292Y12279D2*
X4340Y11327D1*
X8095Y14376D2*
X7977Y14257D1*
X7217Y13497D2*
X6490Y12770D1*
X6024Y12304D2*
X4340Y10620D1*
X9203Y14776D2*
X8658Y14231D1*
X7571Y13144D2*
X6322Y11895D1*
X4648Y10221D2*
X4340Y9913D1*
X9990Y14856D2*
X8954Y13820D1*
X7637Y12503D2*
X7299Y12165D1*
X5767Y10633D2*
X5264Y10130D1*
X4731Y9597D2*
X4340Y9206D1*
X11007Y15166D2*
X10614Y14773D1*
X10203Y14362D2*
X10045Y14204D1*
X9896Y14055D2*
X9307Y13466D1*
X8896Y13055D2*
X8686Y12845D1*
X8330Y12489D2*
X8252Y12411D1*
X5963Y10122D2*
X5845Y10004D1*
X12083Y15534D2*
X11904Y15356D1*
X9894Y13345D2*
X9661Y13113D1*
X9250Y12702D2*
X8495Y11947D1*
X6758Y10210D2*
X6554Y10005D1*
X5474Y8926D2*
X5208Y8660D1*
X4424Y7876D2*
X4340Y7792D1*
X12790Y15534D2*
X12514Y15259D1*
X9534Y12279D2*
X9075Y11820D1*
X8217Y10962D2*
X7893Y10638D1*
X6645Y9390D2*
X5882Y8627D1*
X4781Y7526D2*
X4340Y7084D1*
X9534Y11572D2*
X9075Y11113D1*
X8341Y10379D2*
X8139Y10177D1*
X6908Y8945D2*
X6034Y8072D1*
X5369Y7407D2*
X4849Y6887D1*
X8858Y10188D2*
X8537Y9867D1*
X6908Y8238D2*
X6219Y7550D1*
X5723Y7053D2*
X5565Y6895D1*
X14911Y15534D2*
X14566Y15190D1*
X13230Y13854D2*
X12260Y12884D1*
X10830Y11453D2*
X10706Y11330D1*
X6361Y6984D2*
X6269Y6892D1*
X15618Y15534D2*
X15274Y15190D1*
X13744Y13660D2*
X12260Y12176D1*
X6863Y6780D2*
X6788Y6705D1*
X4930Y4846D2*
X4424Y4340D1*
X16325Y15534D2*
X15981Y15190D1*
X14644Y13854D2*
X14310Y13519D1*
X13744Y12953D2*
X12279Y11489D1*
X9894Y9103D2*
X9650Y8859D1*
X8877Y8086D2*
X8805Y8014D1*
X5609Y4819D2*
X5131Y4340D1*
X17032Y15534D2*
X16387Y14889D1*
X15351Y13854D2*
X14310Y12812D1*
X13744Y12246D2*
X12771Y11273D1*
X11661Y10163D2*
X11230Y9732D1*
X10195Y8697D2*
X9227Y7729D1*
X6311Y4813D2*
X5838Y4340D1*
X17739Y15534D2*
X16387Y14182D1*
X16036Y13831D2*
X14310Y12105D1*
X13744Y11539D2*
X12976Y10770D1*
X11965Y9760D2*
X11705Y9500D1*
X7140Y4935D2*
X6545Y4340D1*
X18446Y15534D2*
X17069Y14157D1*
X16036Y13124D2*
X14310Y11397D1*
X13076Y10163D2*
X12998Y10085D1*
X7844Y4932D2*
X7252Y4340D1*
X19154Y15534D2*
X17776Y14157D1*
X16036Y12417D2*
X14445Y10826D1*
X13744Y10125D2*
X13315Y9696D1*
X8512Y4893D2*
X7959Y4340D1*
X19861Y15534D2*
X18389Y14063D1*
X17721Y13395D2*
X17373Y13046D1*
X16155Y11829D2*
X15086Y10759D1*
X14481Y10155D2*
X14310Y9983D1*
X11971Y7644D2*
X11746Y7420D1*
X10073Y5747D2*
X9965Y5638D1*
X9267Y4940D2*
X8667Y4340D1*
X20568Y15534D2*
X18619Y13585D1*
X18094Y13061D2*
X17690Y12657D1*
X16036Y11003D2*
X15768Y10735D1*
X15227Y10194D2*
X14310Y9276D1*
X10512Y5479D2*
X10089Y5056D1*
X9720Y4686D2*
X9374Y4340D1*
X21275Y15534D2*
X18944Y13204D1*
X17832Y12091D2*
X17519Y11779D1*
X15517Y9777D2*
X15246Y9505D1*
X13388Y7647D2*
X13006Y7265D1*
X12908Y7168D2*
X12785Y7044D1*
X10750Y5009D2*
X10081Y4340D1*
X21982Y15534D2*
X19000Y12552D1*
X17846Y11398D2*
X17729Y11281D1*
X15517Y9070D2*
X15376Y8928D1*
X13407Y6959D2*
X12799Y6351D1*
X12117Y5669D2*
X11628Y5180D1*
X11114Y4667D2*
X10788Y4340D1*
X22534Y15380D2*
X18743Y11588D1*
X17873Y10718D2*
X17373Y10218D1*
X13537Y6382D2*
X13207Y6053D1*
X12470Y5316D2*
X12335Y5180D1*
X11769Y4614D2*
X11495Y4340D1*
X22534Y14672D2*
X20433Y12571D1*
X19666Y11804D2*
X19165Y11303D1*
X18738Y10876D2*
X17373Y9511D1*
X12476Y4614D2*
X12202Y4340D1*
X22534Y13965D2*
X20566Y11997D1*
X18779Y10210D2*
X18063Y9494D1*
X17177Y8608D2*
X16911Y8342D1*
X15028Y6459D2*
X14796Y6227D1*
X13183Y4614D2*
X12909Y4340D1*
X22534Y13258D2*
X21847Y12571D1*
X21318Y12042D2*
X20646Y11370D1*
X19486Y10210D2*
X18892Y9616D1*
X13890Y4614D2*
X13616Y4340D1*
X22534Y12551D2*
X22361Y12378D1*
X21503Y11519D2*
X21287Y11303D1*
X20425Y10442D2*
X19599Y9616D1*
X18757Y8774D2*
X18281Y8298D1*
X17928Y7945D2*
X17704Y7721D1*
X16150Y6166D2*
X16025Y6042D1*
X20901Y10210D2*
X19781Y9091D1*
X19301Y8611D2*
X18395Y7704D1*
X17743Y7053D2*
X17425Y6735D1*
X16937Y6247D2*
X16036Y5346D1*
X22505Y11108D2*
X22314Y10917D1*
X21508Y10111D2*
X20204Y8806D1*
X19348Y7951D2*
X18726Y7329D1*
X17934Y6537D2*
X17837Y6440D1*
X17235Y5838D2*
X16688Y5290D1*
X22534Y10430D2*
X22367Y10262D1*
X21508Y9404D2*
X20207Y8102D1*
X19296Y7191D2*
X18726Y6622D1*
X17818Y5713D2*
X17395Y5290D1*
X22534Y9723D2*
X22419Y9608D1*
X21326Y8514D2*
X20207Y7395D1*
X20050Y7238D2*
X19957Y7146D1*
X19296Y6484D2*
X19187Y6376D1*
X22534Y9016D2*
X22397Y8878D1*
X21715Y8197D2*
X19961Y6442D1*
X22534Y8308D2*
X19944Y5718D1*
X22534Y7601D2*
X21546Y6613D1*
X20401Y5468D2*
X19273Y4340D1*
X22534Y6894D2*
X21991Y6351D1*
X20663Y5023D2*
X19980Y4340D1*
X22534Y6187D2*
X22226Y5879D1*
X21135Y4788D2*
X20687Y4340D1*
X22534Y5480D2*
X21394Y4340D1*
X22534Y4773D2*
X22102Y4340D1*
X21863Y15534D2*
X22536Y14861D1*
X21155Y15534D2*
X22536Y14154D1*
X20448Y15534D2*
X22534Y13448D1*
X19741Y15534D2*
X22534Y12741D1*
X19034Y15534D2*
X21997Y12571D1*
X22361Y12207D2*
X22534Y12034D1*
X18327Y15534D2*
X21503Y12359D1*
X17620Y15534D2*
X21503Y11652D1*
X22314Y10840D2*
X22534Y10620D1*
X16913Y15534D2*
X18517Y13930D1*
X18618Y13829D2*
X19876Y12571D1*
X20566Y11881D2*
X21144Y11304D1*
X22367Y10081D2*
X22534Y9913D1*
X16206Y15534D2*
X17583Y14157D1*
X19000Y12740D2*
X19608Y12132D1*
X22419Y9321D2*
X22534Y9206D1*
X15499Y15534D2*
X15843Y15190D1*
X16387Y14646D2*
X16876Y14157D1*
X17442Y13591D2*
X17721Y13312D1*
X17961Y13072D2*
X18335Y12698D1*
X18903Y12130D2*
X19707Y11326D1*
X20350Y10683D2*
X20425Y10608D1*
X20823Y10210D2*
X21508Y9525D1*
X22311Y8722D2*
X22534Y8499D1*
X14792Y15534D2*
X15136Y15190D1*
X17373Y12953D2*
X17669Y12657D1*
X18743Y11583D2*
X19022Y11304D1*
X19911Y10415D2*
X21378Y8947D1*
X22057Y8269D2*
X22534Y7792D1*
X15765Y13854D2*
X16036Y13582D1*
X17533Y12086D2*
X17846Y11773D1*
X18674Y10945D2*
X18738Y10881D1*
X19408Y10210D2*
X22534Y7084D1*
X15058Y13854D2*
X16036Y12875D1*
X17533Y11379D2*
X17632Y11280D1*
X18193Y10719D2*
X19296Y9616D1*
X19657Y9255D2*
X20105Y8807D1*
X20208Y8704D2*
X22534Y6377D1*
X12670Y15534D2*
X12946Y15259D1*
X14351Y13854D2*
X16036Y12168D1*
X17486Y10719D2*
X18685Y9519D1*
X20207Y7998D2*
X21632Y6572D1*
X22173Y6031D2*
X22534Y5670D1*
X11963Y15534D2*
X12238Y15259D1*
X13644Y13854D2*
X13743Y13755D1*
X14310Y13188D2*
X16036Y11461D1*
X17373Y10125D2*
X18006Y9492D1*
X18643Y8854D2*
X19348Y8149D1*
X20207Y7291D2*
X20931Y6567D1*
X22168Y5330D2*
X22534Y4963D1*
X12937Y13854D2*
X13744Y13046D1*
X14310Y12481D2*
X16036Y10754D1*
X18281Y8509D2*
X19296Y7495D1*
X19961Y6829D2*
X20541Y6249D1*
X21850Y4940D2*
X22450Y4340D1*
X10865Y15218D2*
X10962Y15121D1*
X12406Y13677D2*
X13744Y12339D1*
X14310Y11774D2*
X15324Y10759D1*
X18138Y7945D2*
X18393Y7691D1*
X18579Y7504D2*
X19296Y6787D1*
X19961Y6122D2*
X20376Y5707D1*
X21309Y4774D2*
X21743Y4340D1*
X10589Y14787D2*
X10998Y14378D1*
X12260Y13116D2*
X13744Y11632D1*
X14310Y11067D2*
X14617Y10759D1*
X15182Y10194D2*
X15517Y9859D1*
X16887Y8490D2*
X17301Y8075D1*
X18726Y6650D2*
X19000Y6376D1*
X19842Y5534D2*
X21036Y4340D1*
X9724Y14945D2*
X10029Y14640D1*
X12260Y12409D2*
X13744Y10925D1*
X14514Y10155D2*
X15136Y9533D1*
X15414Y9255D2*
X15517Y9152D1*
X17616Y7053D2*
X17829Y6840D1*
X19489Y5180D2*
X20329Y4340D1*
X9169Y14793D2*
X9893Y14068D1*
X12260Y11702D2*
X12667Y11295D1*
X12956Y11006D2*
X13233Y10729D1*
X14310Y9652D2*
X14688Y9273D1*
X19135Y4827D2*
X19622Y4340D1*
X8658Y14597D2*
X9893Y13361D1*
X13091Y10163D2*
X13744Y9511D1*
X17417Y5838D2*
X17964Y5290D1*
X18781Y4473D2*
X18915Y4340D1*
X7013Y15534D2*
X8095Y14452D1*
X16381Y6167D2*
X17257Y5290D1*
X6874Y14967D2*
X7457Y14383D1*
X8686Y13155D2*
X9534Y12306D1*
X10387Y11453D2*
X10511Y11330D1*
X11677Y10163D2*
X11948Y9892D1*
X16025Y5816D2*
X16550Y5290D1*
X5599Y15534D2*
X5739Y15394D1*
X8644Y12489D2*
X9534Y11599D1*
X11230Y9904D2*
X11634Y9500D1*
X14821Y6313D2*
X15128Y6006D1*
X4892Y15534D2*
X7637Y12790D1*
X8249Y12177D2*
X8479Y11947D1*
X9075Y11351D2*
X9360Y11066D1*
X13006Y7421D2*
X13407Y7019D1*
X4340Y15380D2*
X5640Y14079D1*
X6578Y13141D2*
X7493Y12226D1*
X12799Y6921D2*
X13667Y6053D1*
X4340Y14672D2*
X5101Y13911D1*
X6413Y12599D2*
X6847Y12165D1*
X7849Y11163D2*
X8217Y10795D1*
X8633Y10379D2*
X8905Y10107D1*
X9650Y9362D2*
X9894Y9119D1*
X10316Y8697D2*
X10418Y8594D1*
X4340Y13965D2*
X4786Y13519D1*
X6020Y12285D2*
X6380Y11925D1*
X7893Y10412D2*
X8129Y10177D1*
X8537Y9768D2*
X8797Y9508D1*
X9650Y8655D2*
X10073Y8232D1*
X10647Y7658D2*
X10846Y7459D1*
X13691Y4614D2*
X13965Y4340D1*
X4340Y13258D2*
X4784Y12814D1*
X5313Y12285D2*
X5922Y11676D1*
X9343Y8255D2*
X9720Y7878D1*
X11879Y5719D2*
X12418Y5180D1*
X12984Y4614D2*
X13258Y4340D1*
X4340Y12551D2*
X5568Y11323D1*
X8827Y8064D2*
X9162Y7729D1*
X11556Y5335D2*
X11711Y5180D1*
X12277Y4614D2*
X12551Y4340D1*
X4340Y11844D2*
X5214Y10969D1*
X5659Y10525D2*
X5797Y10386D1*
X6794Y9390D2*
X6908Y9276D1*
X10437Y5747D2*
X10540Y5644D1*
X11570Y4614D2*
X11844Y4340D1*
X4340Y11137D2*
X4861Y10616D1*
X5305Y10172D2*
X5471Y10005D1*
X6087Y9390D2*
X6908Y8569D1*
X9990Y5487D2*
X11136Y4340D1*
X4340Y10430D2*
X4648Y10121D1*
X5844Y8926D2*
X6908Y7862D1*
X9973Y4796D2*
X10429Y4340D1*
X4340Y9723D2*
X4781Y9282D1*
X5137Y8926D2*
X5402Y8660D1*
X6034Y8028D2*
X6513Y7550D1*
X9150Y4912D2*
X9722Y4340D1*
X6371Y6984D2*
X6491Y6865D1*
X8272Y5084D2*
X9015Y4340D1*
X5222Y7426D2*
X5858Y6790D1*
X7642Y5006D2*
X8308Y4340D1*
X4340Y7601D2*
X5156Y6785D1*
X6993Y4948D2*
X7601Y4340D1*
X4340Y6894D2*
X4419Y6815D1*
X6415Y4819D2*
X6894Y4340D1*
X5697Y4830D2*
X6187Y4340D1*
X4971Y4849D2*
X5480Y4340D1*
X4340Y4773D2*
X4773Y4340D1*
X11887Y15549D2*
Y15314D1*
X11966Y15239D1*
X12729Y15242D1*
X13116D1*
X13113Y15553D1*
X11884Y15552D1*
X11024Y15178D2*
Y15553D1*
X10814Y15552D1*
X10851Y15415D1*
X10857Y15337D1*
X10843Y15213D1*
X10801Y15096D1*
X10734Y14990D1*
X10644Y14903D1*
X10575Y14861D1*
X10572Y14778D1*
X11016Y14332D1*
X11017Y14401D1*
X10975Y14484D1*
X10962Y14565D1*
Y15007D1*
X10993Y15130D1*
X10990Y7859D2*
X11009D1*
X11006Y8015D1*
X11010Y8056D1*
X10309Y7354D1*
X10867Y7352D1*
X10865Y7859D1*
X10990D1*
X11728Y7660D2*
Y7355D1*
X12125Y7352D1*
Y7666D1*
X11865Y7662D1*
X11728D1*
X18723Y11787D2*
X18726Y11537D1*
Y10963D1*
X18519D1*
X18375Y10812D1*
X18293Y10756D1*
X18188Y10735D1*
X17354Y10734D1*
X17350Y10485D1*
X17354Y10215D1*
X17350Y10092D1*
X17354Y9822D1*
X17350Y9698D1*
X17354Y9501D1*
Y9476D1*
X17932Y9474D1*
X18039D1*
X18170Y9502D1*
X18775D1*
Y9599D1*
X19639D1*
Y9204D1*
X20007Y8831D1*
X20115Y8788D1*
X20189D1*
X20185Y7925D1*
X20189Y7494D1*
Y7255D1*
X19943D1*
X19942Y5797D1*
X19918Y5675D1*
X19850Y5574D1*
X18710Y4434D1*
X18606Y4365D1*
X18487Y4342D1*
X15132D1*
X15097Y4322D1*
X22552D1*
Y11123D1*
X22341Y11125D1*
X22344Y11041D1*
X22293D1*
X22297Y10785D1*
X22350Y10788D1*
X22346Y9925D1*
X22350Y9857D1*
X22381Y9799D1*
X22402Y9687D1*
Y8977D1*
X22378Y8855D1*
X22310Y8754D1*
X22252Y8696D1*
X22235Y8554D1*
X22186Y8439D1*
X22109Y8341D1*
X22008Y8268D1*
X21892Y8224D1*
X21767Y8212D1*
X21645Y8234D1*
X21532Y8288D1*
X21438Y8370D1*
X21369Y8473D1*
X21330Y8592D1*
X21324Y8716D1*
X21351Y8838D1*
X21409Y8948D1*
X21495Y9039D1*
X21601Y9103D1*
X21721Y9137D1*
X21772Y9138D1*
Y9254D1*
X21527Y9256D1*
X21530Y10119D1*
X21527Y10226D1*
X20443Y10227D1*
Y10809D1*
X20168Y10534D1*
X20065Y10466D1*
X19946Y10442D1*
X19895D1*
X19894Y10227D1*
X18755D1*
Y11287D1*
X19725Y11291D1*
X19722Y11767D1*
X19677Y11833D1*
X19624Y11969D1*
X19622Y12094D1*
X19665Y12210D1*
X19723Y12278D1*
X19725Y12553D1*
X20549D1*
Y11831D1*
X20605Y11740D1*
X20628Y11621D1*
Y11289D1*
X21392Y11287D1*
X21520Y11416D1*
Y11688D1*
X21439Y11749D1*
X21378Y11829D1*
X21342Y11923D1*
X21332Y12023D1*
X21351Y12123D1*
X21396Y12213D1*
X21463Y12287D1*
X21520Y12326D1*
Y12553D1*
X22344D1*
Y12120D1*
X22435Y12055D1*
X22505Y11989D1*
X22556D1*
X22552Y12572D1*
Y15552D1*
X14392D1*
X14420Y15500D1*
X14447Y15367D1*
X14424Y15245D1*
X14377Y15169D1*
X14795Y15171D1*
X15189D1*
X15582D1*
X15976D1*
X16370D1*
Y14066D1*
X16522Y14067D1*
X16584Y14111D1*
X16663Y14137D1*
X17204Y14140D1*
X18170D1*
X18290Y14111D1*
X18384Y14031D1*
X18431Y13912D1*
X18422Y13954D1*
X18488Y13912D1*
X18601D1*
Y13478D1*
X18810Y13275D1*
X18911Y13203D1*
X18980Y13100D1*
X19007Y12967D1*
X18982Y12841D1*
Y12372D1*
X18958Y12250D1*
X18890Y12149D1*
X18727Y11986D1*
X18722Y11588D1*
X17863Y11264D2*
X17867Y11787D1*
X17863Y12108D1*
X17512Y12110D1*
X17515Y11844D1*
X17484Y11721D1*
X17448Y11669D1*
X17438Y11624D1*
X17503Y11519D1*
X17515Y11437D1*
Y11262D1*
X17864Y11265D1*
X18097Y13088D2*
X17738D1*
Y13608D1*
X17353Y13610D1*
X17350Y12848D1*
X17354Y12651D1*
X17375Y12640D1*
X18317Y12639D1*
X18352Y12747D1*
Y12837D1*
X18099Y13090D1*
X12988Y7661D2*
Y7185D1*
X12640D1*
X12704Y7124D1*
X12769Y7018D1*
X12782Y6937D1*
Y6269D1*
X13011Y6038D1*
X13619Y6032D1*
X13898Y6036D1*
X13915Y6085D1*
X13913Y6400D1*
X13425D1*
X13429Y7224D1*
X13425Y7670D1*
X13240Y7662D1*
X12986D1*
X18263Y8650D2*
Y7963D1*
X17579D1*
X17660Y7850D1*
X17685Y7706D1*
X18277Y7702D1*
X18399Y7678D1*
X18502Y7608D1*
X18570Y7504D1*
X18595Y7379D1*
X18709D1*
Y6555D1*
X18595D1*
X18592Y6362D1*
X19316Y6359D1*
X19312Y7047D1*
Y7687D1*
X19339Y7812D1*
X19365Y7880D1*
X19369Y8119D1*
X19365Y8585D1*
X19176Y8773D1*
X18775Y8775D1*
Y8873D1*
X18602Y8872D1*
X18601Y8650D1*
X18261D1*
X17400Y8052D2*
Y8357D1*
X17278Y8483D1*
X17205Y8597D1*
X17182Y8650D1*
X17069D1*
Y8823D1*
X16984Y8834D1*
X16246D1*
X16256Y8819D1*
X16869D1*
Y8346D1*
X17197Y8023D1*
X17246Y8042D1*
X17370Y8056D1*
X17396Y8050D1*
X17249Y6718D2*
X17819D1*
Y5855D1*
X16995D1*
Y6226D1*
X16736Y6483D1*
X16739Y6185D1*
X16008D1*
X16009Y5819D1*
X16018D1*
Y5268D1*
X16737Y5272D1*
X18053D1*
X18321Y5536D1*
X17836Y5535D1*
Y6359D1*
X17965D1*
X17959Y6555D1*
X17845D1*
Y7075D1*
X16898Y7072D1*
X17251Y6717D1*
X7879Y10159D2*
X8519D1*
Y9491D1*
X8926Y9489D1*
X8922Y10204D1*
X8784Y10205D1*
Y10373D1*
X8725Y10393D1*
X8235Y10396D1*
Y11185D1*
X7147Y11182D1*
X6948D1*
X6902Y11117D1*
X7877D1*
Y10160D1*
X9299Y8269D2*
Y8105D1*
X8826D1*
X8789Y8063D1*
Y7795D1*
X8144D1*
X8142Y7716D1*
X8987Y7712D1*
X9585D1*
X10440Y8565D1*
X10442Y8644D1*
X10467Y8713D1*
X9912Y8714D1*
Y9305D1*
X9877Y9309D1*
X9765Y9363D1*
X9680Y9454D1*
X9634Y9569D1*
X9632Y9693D1*
X9687Y9825D1*
X9650Y9874D1*
X9631Y9921D1*
X9632Y8536D1*
X9603Y8416D1*
X9523Y8322D1*
X9404Y8275D1*
X9301Y8271D1*
X9061Y11049D2*
X9470D1*
Y11029D1*
X9529Y11021D1*
X9532Y11049D1*
X9739D1*
X9630Y11160D1*
X9565Y11266D1*
X9552Y11347D1*
Y12437D1*
X8671Y13318D1*
X8665Y13175D1*
X8669Y12744D1*
Y12505D1*
X8234Y12500D1*
Y12234D1*
X8205Y12110D1*
X8227Y12168D1*
X8173Y12056D1*
X7931Y11811D1*
X8235Y11815D1*
Y11929D1*
X9059D1*
X9055Y11065D1*
X9059Y11134D1*
Y11052D1*
X6857Y15555D2*
X6853Y14787D1*
X7372Y14267D1*
X7446Y14344D1*
X7556Y14402D1*
X7680Y14416D1*
X7800Y14385D1*
X7901Y14313D1*
X7970Y14210D1*
X7997Y14077D1*
X7989Y14035D1*
X8115Y14038D1*
X8112Y14826D1*
X8055Y14848D1*
X7951Y14918D1*
X7866Y15009D1*
X7803Y15117D1*
X7767Y15236D1*
X7758Y15360D1*
X7777Y15483D1*
X7805Y15552D1*
X6853D1*
X6009Y14787D2*
X5757D1*
Y15549D1*
X4677Y15552D1*
X4322D1*
X4320Y8959D1*
X4797D1*
X4891Y8944D1*
X4859D1*
X4862Y8652D1*
X5117Y8642D1*
X5407D1*
X5547Y8611D1*
X6016Y8610D1*
X6012Y7944D1*
X6016Y7860D1*
Y7544D1*
X6042Y7532D1*
X6921D1*
X6924Y8110D1*
Y8610D1*
Y9110D1*
Y9409D1*
X6018Y9407D1*
X6016Y8944D1*
X4891D1*
X4798Y8956D1*
Y9565D1*
X4752Y9612D1*
X4689Y9705D1*
X4667Y9817D1*
Y10267D1*
X4696Y10391D1*
X4675Y10333D1*
X4728Y10445D1*
X5813Y11533D1*
X6072Y11792D1*
X6180Y11860D1*
X6124Y11833D1*
X6241Y11875D1*
X6370Y11880D1*
X6552Y12062D1*
X6660Y12130D1*
X6604Y12103D1*
X6721Y12145D1*
X7448Y12147D1*
X7654Y12359D1*
Y13097D1*
X7179Y13569D1*
X6084Y14664D1*
X6012Y14778D1*
X8807Y15114D2*
X8734Y14990D1*
X8641Y14901D1*
X8642Y14037D1*
X8669Y14038D1*
Y13893D1*
X8737Y13892D1*
X8858Y13863D1*
X8924Y13814D1*
X9912Y12829D1*
X9916Y13203D1*
X9912Y13473D1*
X9916Y13596D1*
X9912Y13866D1*
X9916Y13990D1*
X9912Y13938D1*
Y14187D1*
X10416D1*
X10120Y14480D1*
X10055Y14586D1*
X10042Y14667D1*
Y14858D1*
X9951Y14918D1*
X9866Y15009D1*
X9805Y15113D1*
X9734Y14990D1*
X9644Y14903D1*
X9538Y14838D1*
X9420Y14799D1*
X9295Y14787D1*
X9172Y14804D1*
X9055Y14848D1*
X8951Y14918D1*
X8866Y15009D1*
X8805Y15113D1*
X12099Y5737D2*
X11466D1*
X11509Y5660D1*
X11543Y5540D1*
X11550Y5460D1*
X11535Y5336D1*
X11490Y5219D1*
X11447Y5159D1*
X12537Y5162D1*
X12658D1*
X12147Y5673D1*
X10718Y5855D2*
X10645Y5925D1*
X10536Y5823D1*
X10425Y5767D1*
X10304Y5739D1*
X10179Y5742D1*
X10059Y5775D1*
X9950Y5836D1*
X9857Y5925D1*
X9787Y5856D1*
X9871Y5768D1*
X9934Y5660D1*
X9969Y5540D1*
X9975Y5460D1*
X9966Y5386D1*
X10029Y5300D1*
X10070Y5183D1*
X10077Y5107D1*
X10058Y4984D1*
X10003Y4872D1*
X9917Y4782D1*
X9808Y4722D1*
X9686Y4697D1*
X9562Y4711D1*
X9448Y4760D1*
X9354Y4842D1*
X9289Y4948D1*
X9271Y4987D1*
X9166Y5047D1*
X9144Y4955D1*
X9079Y4849D1*
X8980Y4774D1*
X8861Y4739D1*
X8737Y4749D1*
X8625Y4803D1*
X8540Y4894D1*
X8507Y4977D1*
X8375Y5048D1*
X8282Y5137D1*
X8174Y5036D1*
X8063Y4980D1*
X7941Y4952D1*
X7817Y4955D1*
X7697Y4987D1*
X7588Y5048D1*
X7495Y5137D1*
X7387Y5036D1*
X7276Y4980D1*
X7154Y4952D1*
X7029Y4955D1*
X6909Y4987D1*
X6798Y5051D1*
X6660Y4932D1*
X6549Y4874D1*
X6430Y4840D1*
X6305Y4829D1*
X6181Y4844D1*
X6063Y4882D1*
X5954Y4943D1*
X5921Y4971D1*
X5873Y4932D1*
X5762Y4874D1*
X5642Y4840D1*
X5518Y4829D1*
X5394Y4844D1*
X5275Y4882D1*
X5166Y4943D1*
X5134Y4971D1*
X5085Y4932D1*
X4975Y4874D1*
X4855Y4840D1*
X4730Y4829D1*
X4606Y4844D1*
X4488Y4882D1*
X4379Y4943D1*
X4323Y4992D1*
X4322Y4322D1*
X14256D1*
X14205Y4353D1*
X14120Y4444D1*
X14074Y4559D1*
X14073Y4633D1*
X11287Y4632D1*
X11166Y4661D1*
X11100Y4710D1*
X10850Y4961D1*
X10647Y5134D1*
X10579Y5239D1*
X10540Y5357D1*
X10530Y5482D1*
X10550Y5605D1*
X10600Y5719D1*
X10676Y5818D1*
X10716Y5849D1*
X6797Y6651D2*
X6883Y6703D1*
X6882Y6847D1*
X6913Y6970D1*
X6847Y7002D1*
X5917D1*
X5796Y7031D1*
X5730Y7080D1*
X5368Y7441D1*
X4798Y7444D1*
Y7823D1*
X4763Y7810D1*
X4681Y7802D1*
X4600Y7812D1*
X4523Y7841D1*
X4455Y7885D1*
X4398Y7944D1*
X4356Y8014D1*
X4330Y8094D1*
X4322Y7927D1*
Y6720D1*
X4412Y6785D1*
X4525Y6839D1*
X4646Y6870D1*
X4770Y6877D1*
X4894Y6858D1*
X5011Y6816D1*
X5132Y6738D1*
X5200Y6785D1*
X5312Y6839D1*
X5433Y6870D1*
X5558Y6877D1*
X5681Y6858D1*
X5799Y6816D1*
X5920Y6738D1*
X5987Y6785D1*
X6100Y6839D1*
X6220Y6870D1*
X6345Y6877D1*
X6469Y6858D1*
X6586Y6816D1*
X6693Y6752D1*
X6796Y6652D1*
X7693Y10017D2*
X6777D1*
Y10256D1*
X6754Y10220D1*
X6664Y10133D1*
X6558Y10068D1*
X6440Y10029D1*
X6315Y10017D1*
X6192Y10034D1*
X6075Y10078D1*
X5971Y10148D1*
X5886Y10239D1*
X5823Y10347D1*
X5787Y10466D1*
X5778Y10590D1*
X5794Y10694D1*
X5247Y10142D1*
Y9990D1*
X6702Y9987D1*
X7698D1*
X14610Y5819D2*
X15146D1*
X15145Y6407D1*
X15045Y6406D1*
Y6527D1*
X14986Y6511D1*
X14779Y6304D1*
Y5835D1*
X14439D1*
X14485Y5819D1*
X14610D1*
X11052Y11470D2*
X10083D1*
X10093Y11446D1*
X10217Y11322D1*
X10282Y11311D1*
X11053D1*
X11052Y11472D1*
X11212Y10127D2*
X11208Y10092D1*
X11212Y9678D1*
Y9484D1*
X12157Y9482D1*
X12269Y9457D1*
X12344Y9404D1*
X12443Y9306D1*
X12495Y9231D1*
X12520Y9119D1*
X12524Y9029D1*
X12753D1*
X12234Y9546D1*
X12105Y9603D1*
X12020Y9694D1*
X11974Y9809D1*
X11972Y9934D1*
X12015Y10050D1*
X12096Y10144D1*
X12157Y10182D1*
X11317D1*
X11260Y10144D1*
X11212Y10129D1*
X11208Y9895D1*
X11212Y9485D1*
Y9534D1*
X14266Y9029D2*
X14384D1*
X14415Y9090D1*
X14496Y9184D1*
X14606Y9242D1*
X14734Y9255D1*
X14775Y9360D1*
X14856Y9454D1*
X14966Y9512D1*
X15090Y9526D1*
X15210Y9495D1*
X15311Y9423D1*
X15380Y9320D1*
X15407Y9187D1*
X15384Y9065D1*
X15319Y8959D1*
X15273Y8924D1*
X15329Y8909D1*
X15462Y8906D1*
X15537Y8909D1*
X15533Y9619D1*
Y10209D1*
X14762Y10212D1*
X14563D1*
X14500Y10174D1*
X14381Y10139D1*
X14292Y10146D1*
X14291Y9132D1*
X14296Y9029D1*
X14386D1*
X16054Y10389D2*
X16058Y10447D1*
X16054Y10717D1*
X16058Y10840D1*
X16054Y11110D1*
X16058Y11234D1*
X16054Y11504D1*
Y11628D1*
X16175D1*
X16178Y11705D1*
X16174Y11867D1*
X16054Y11863D1*
X16058Y12612D1*
X16054Y12882D1*
X16058Y13006D1*
X16054Y13276D1*
X16058Y13400D1*
X16054Y13670D1*
X16058Y13793D1*
X16054Y13741D1*
X16048Y13871D1*
X15424Y13875D1*
X15154Y13871D1*
X15030Y13875D1*
X14760Y13871D1*
X14637Y13875D1*
X14291Y13871D1*
X14292Y10809D1*
X14370Y10816D1*
X14490Y10785D1*
X14550Y10743D1*
X15637Y10742D1*
X15758Y10713D1*
X15824Y10664D1*
X15986Y10503D1*
X16051Y10394D1*
X16054Y10644D1*
Y11037D1*
Y11431D1*
X16058D1*
X16056Y12060D2*
X16054Y12809D1*
Y13203D1*
Y13596D1*
X16053Y13871D1*
X15621Y13875D1*
X15351Y13871D1*
X15227Y13875D1*
X14957Y13871D1*
X14834Y13875D1*
X14564Y13871D1*
X14440Y13875D1*
X14295Y13871D1*
X13763D2*
X13456Y13875D1*
X13186Y13871D1*
X13062Y13875D1*
X12792Y13871D1*
X12668Y13875D1*
X12566Y13871D1*
X12244Y13550D1*
X12242Y12532D1*
Y11497D1*
X12290Y11420D1*
X12316Y11283D1*
X12637Y11282D1*
X12757Y11253D1*
X12853Y11169D1*
X12950Y11000D1*
X12977Y10867D1*
X12954Y10745D1*
X12936Y10715D1*
X13439Y10712D1*
X13476Y10744D1*
X13586Y10802D1*
X13710Y10816D1*
X13759Y10804D1*
X13762Y11762D1*
Y13875D1*
X13417Y13873D1*
X13220Y13871D1*
X12648D1*
X13762Y10151D2*
X13721Y10139D1*
X13597Y10149D1*
X13531Y10181D1*
X12903Y10182D1*
X12980Y10070D1*
X13001Y9975D1*
X13427Y9552D1*
X13590Y9466D1*
X13710Y9435D1*
X13764Y9397D1*
X13762Y10149D1*
X22213Y5582D2*
X22188Y5460D1*
X22146Y5342D1*
X22089Y5232D1*
X22017Y5129D1*
X21931Y5038D1*
X21835Y4959D1*
X21728Y4895D1*
X21613Y4845D1*
X21493Y4811D1*
X21369Y4794D1*
X21244D1*
X21121Y4811D1*
X21000Y4845D1*
X20886Y4895D1*
X20779Y4960D1*
X20682Y5039D1*
X20597Y5130D1*
X20525Y5232D1*
X20468Y5343D1*
X20426Y5461D1*
X20400Y5583D1*
X20392Y5707D1*
X20401Y5832D1*
X20426Y5954D1*
X20468Y6072D1*
X20525Y6183D1*
X20598Y6285D1*
X20683Y6376D1*
X20780Y6455D1*
X20887Y6520D1*
X21001Y6569D1*
X21121Y6603D1*
X21245Y6620D1*
X21370D1*
X21494Y6603D1*
X21614Y6569D1*
X21729Y6519D1*
X21835Y6454D1*
X21932Y6375D1*
X22017Y6284D1*
X22089Y6182D1*
X22147Y6071D1*
X22188Y5953D1*
X22214Y5831D1*
X22222Y5707D1*
X22213Y5582D1*
X6553Y13022D2*
X6528Y12900D1*
X6486Y12782D1*
X6429Y12672D1*
X6357Y12569D1*
X6271Y12478D1*
X6175Y12399D1*
X6068Y12335D1*
X5953Y12285D1*
X5833Y12251D1*
X5709Y12234D1*
X5584D1*
X5461Y12251D1*
X5340Y12285D1*
X5226Y12335D1*
X5119Y12400D1*
X5022Y12479D1*
X4937Y12570D1*
X4865Y12672D1*
X4808Y12783D1*
X4766Y12901D1*
X4740Y13023D1*
X4732Y13147D1*
X4741Y13272D1*
X4766Y13394D1*
X4808Y13512D1*
X4865Y13623D1*
X4938Y13725D1*
X5023Y13816D1*
X5120Y13895D1*
X5227Y13960D1*
X5341Y14009D1*
X5461Y14043D1*
X5585Y14060D1*
X5710D1*
X5834Y14043D1*
X5954Y14009D1*
X6069Y13959D1*
X6175Y13894D1*
X6272Y13815D1*
X6357Y13724D1*
X6429Y13622D1*
X6487Y13511D1*
X6528Y13393D1*
X6554Y13271D1*
X6562Y13147D1*
X6553Y13022D1*
D21*
X12125Y15375D3*
X11456D3*
X10627Y7447D3*
X11296D3*
X17625Y11375D3*
X18295D3*
X17625Y12000D3*
X18295D3*
X12875Y15375D3*
X13544D3*
X17500Y13500D3*
X18170D3*
D22*
X22417Y11557D3*
Y10888D3*
D21*
X11887Y7597D3*
X12556D3*
X18501Y8375D3*
X17831D3*
X13188Y6812D3*
X13857D3*
X17107Y8407D3*
X16438D3*
X13188Y7437D3*
X13857D3*
D22*
X17407Y5617D3*
Y6286D3*
X16327Y5947D3*
Y6616D3*
X4447Y8527D3*
Y9196D3*
X8107Y9727D3*
Y10396D3*
X8887Y7867D3*
Y8536D3*
X8857Y9727D3*
Y9058D3*
X8377Y8227D3*
Y8896D3*
D23*
X21787Y8677D3*
D24*
X20787D3*
D26*
X9127Y10627D3*
X9875D3*
X9501Y11533D3*
D27*
X6307Y15337D3*
D28*
X7307D3*
X8307D3*
X9307D3*
X10307D3*
D29*
X11827Y6247D3*
D30*
X11040D3*
X10252D3*
X9465D3*
X8677D3*
X7890D3*
X7103D3*
X6315D3*
X5528D3*
X4740D3*
Y5460D3*
X5528D3*
X6315D3*
X7103D3*
X7890D3*
X8677D3*
X9465D3*
X10252D3*
X11040D3*
X11827D3*
D27*
X7327Y10567D3*
D28*
X6327D3*
D22*
X8257Y12937D3*
Y13606D3*
X21938Y9687D3*
Y10356D3*
D21*
X14917Y5407D3*
X15586D3*
X15577Y6067D3*
X14908D3*
X18937Y5947D3*
X18268D3*
X18277Y6967D3*
X18946D3*
X16063Y7499D3*
X16732D3*
D22*
X15457Y7507D3*
Y6838D3*
D21*
X17500Y9062D3*
X18170D3*
X13188Y5624D3*
X13857D3*
X14347Y6247D3*
X13678D3*
D22*
X14887Y7627D3*
Y6958D3*
X19777Y7687D3*
Y8356D3*
D21*
X19207Y9187D3*
X19876D3*
D22*
X8647Y11497D3*
Y10828D3*
D32*
X10562Y13813D3*
Y13616D3*
Y13419D3*
Y13222D3*
Y13025D3*
Y12828D3*
Y12631D3*
Y12435D3*
Y12238D3*
Y12041D3*
Y11844D3*
Y11647D3*
Y11450D3*
Y11254D3*
Y11057D3*
Y10860D3*
Y10663D3*
Y10466D3*
Y10269D3*
Y10072D3*
Y9876D3*
Y9679D3*
Y9482D3*
Y9285D3*
Y9088D3*
D33*
X11271Y8380D3*
X11468D3*
X11665D3*
X11861D3*
X12058D3*
X12255D3*
X12452D3*
X12649D3*
X12846D3*
X13043D3*
X13239D3*
X13436D3*
X13633D3*
X13830D3*
X14027D3*
X14224D3*
X14421D3*
X14617D3*
X14814D3*
X15011D3*
X15208D3*
X15405D3*
X15602D3*
X15798D3*
X15995D3*
D32*
X16704Y9088D3*
Y9285D3*
Y9482D3*
Y9679D3*
Y9876D3*
Y10072D3*
Y10269D3*
Y10466D3*
Y10663D3*
Y10860D3*
Y11057D3*
Y11254D3*
Y11450D3*
Y11647D3*
Y11844D3*
Y12041D3*
Y12238D3*
Y12435D3*
Y12631D3*
Y12828D3*
Y13025D3*
Y13222D3*
Y13419D3*
Y13616D3*
Y13813D3*
D33*
X15995Y14521D3*
X15798D3*
X15602D3*
X15405D3*
X15208D3*
X15011D3*
X14814D3*
X14617D3*
X14421D3*
X14224D3*
X14027D3*
X13830D3*
X13633D3*
X13436D3*
X13239D3*
X13043D3*
X12846D3*
X12649D3*
X12452D3*
X12255D3*
X12058D3*
X11861D3*
X11665D3*
X11468D3*
X11271D3*
D34*
X20137Y11797D3*
X21932D3*
D35*
X21035Y14435D3*
D36*
X5407Y9277D3*
Y8777D3*
Y8277D3*
Y7777D3*
X7533D3*
Y8277D3*
Y8777D3*
Y9277D3*
D37*
X21012Y11860D3*
Y10757D3*
X19324Y11860D3*
Y10757D3*
M02*
