G04 DipTrace 2.4.0.2*
%INTopAssy.gbr*%
%MOIN*%
%ADD10C,0.0098*%
%ADD12C,0.003*%
%FSLAX44Y44*%
G04*
G70*
G90*
G75*
G01*
%LNTopAssy*%
%LPD*%
X5315Y15935D2*
D10*
X11299D1*
X7312Y16318D2*
D12*
Y16117D1*
X7399D1*
X7427Y16127D1*
X7437Y16137D1*
X7446Y16156D1*
Y16184D1*
X7437Y16204D1*
X7427Y16213D1*
X7399Y16223D1*
X7427Y16232D1*
X7437Y16242D1*
X7446Y16261D1*
Y16280D1*
X7437Y16299D1*
X7427Y16309D1*
X7399Y16318D1*
X7312D1*
Y16223D2*
X7399D1*
X7566Y16318D2*
X7546Y16309D1*
X7527Y16290D1*
X7518Y16271D1*
X7508Y16242D1*
Y16194D1*
X7518Y16165D1*
X7527Y16146D1*
X7546Y16127D1*
X7566Y16117D1*
X7604D1*
X7623Y16127D1*
X7642Y16146D1*
X7652Y16165D1*
X7661Y16194D1*
Y16242D1*
X7652Y16271D1*
X7642Y16290D1*
X7623Y16309D1*
X7604Y16318D1*
X7566D1*
X7876Y16117D2*
X7799Y16318D1*
X7723Y16117D1*
X7752Y16184D2*
X7847D1*
X7938Y16223D2*
X8024D1*
X8052Y16232D1*
X8062Y16242D1*
X8072Y16261D1*
Y16280D1*
X8062Y16299D1*
X8052Y16309D1*
X8024Y16318D1*
X7938D1*
Y16117D1*
X8005Y16223D2*
X8072Y16117D1*
X8133Y16318D2*
Y16117D1*
X8200D1*
X8229Y16127D1*
X8248Y16146D1*
X8258Y16165D1*
X8267Y16194D1*
Y16242D1*
X8258Y16271D1*
X8248Y16290D1*
X8229Y16309D1*
X8200Y16318D1*
X8133D1*
X8648D2*
X8524D1*
Y16117D1*
X8648D1*
X8524Y16223D2*
X8600D1*
X8710Y16318D2*
Y16117D1*
X8777D1*
X8805Y16127D1*
X8825Y16146D1*
X8834Y16165D1*
X8844Y16194D1*
Y16242D1*
X8834Y16271D1*
X8825Y16290D1*
X8805Y16309D1*
X8777Y16318D1*
X8710D1*
X9049Y16271D2*
X9039Y16290D1*
X9020Y16309D1*
X9001Y16318D1*
X8963D1*
X8944Y16309D1*
X8925Y16290D1*
X8915Y16271D1*
X8905Y16242D1*
Y16194D1*
X8915Y16165D1*
X8925Y16146D1*
X8944Y16127D1*
X8963Y16117D1*
X9001D1*
X9020Y16127D1*
X9039Y16146D1*
X9049Y16165D1*
Y16194D1*
X9001D1*
X9235Y16318D2*
X9111D1*
Y16117D1*
X9235D1*
X9111Y16223D2*
X9187D1*
M02*
