G04 DipTrace 2.4.0.2*
%INTopDimension.gbr*%
%MOIN*%
%ADD13C,0.0014*%
%ADD70C,0.0062*%
%FSLAX44Y44*%
G04*
G70*
G90*
G75*
G01*
%LNTopDimension*%
%LPD*%
X3937Y15937D2*
D13*
Y17154D1*
X22937Y15937D2*
Y17154D1*
X13437Y16957D2*
X4331D1*
G36*
X3937D2*
X4331Y17036D1*
Y16878D1*
X3937Y16957D1*
G37*
X13437D2*
D13*
X22543D1*
G36*
X22937D2*
X22543Y16878D1*
Y17036D1*
X22937Y16957D1*
G37*
X3937Y15937D2*
D13*
X1340D1*
X3937Y3937D2*
X1340D1*
X1537Y9937D2*
Y15543D1*
G36*
Y15937D2*
X1616Y15543D1*
X1458D1*
X1537Y15937D1*
G37*
Y9937D2*
D13*
Y4331D1*
G36*
Y3937D2*
X1458Y4331D1*
X1616D1*
X1537Y3937D1*
G37*
X12710Y17404D2*
D70*
X12749Y17424D1*
X12806Y17481D1*
Y17079D1*
X12949Y17118D2*
X12930Y17098D1*
X12949Y17079D1*
X12968Y17098D1*
X12949Y17118D1*
X13341Y17347D2*
X13321Y17290D1*
X13283Y17251D1*
X13226Y17232D1*
X13207D1*
X13149Y17251D1*
X13111Y17290D1*
X13092Y17347D1*
Y17366D1*
X13111Y17424D1*
X13149Y17462D1*
X13207Y17481D1*
X13226D1*
X13283Y17462D1*
X13321Y17424D1*
X13341Y17347D1*
Y17251D1*
X13321Y17156D1*
X13283Y17098D1*
X13226Y17079D1*
X13188D1*
X13130Y17098D1*
X13111Y17137D1*
X13853Y17481D2*
X13872Y17462D1*
X13891Y17481D1*
X13872Y17500D1*
X13853Y17481D1*
X13872Y17347D2*
Y17079D1*
X14015Y17347D2*
Y17079D1*
Y17271D2*
X14072Y17328D1*
X14111Y17347D1*
X14168D1*
X14206Y17328D1*
X14225Y17271D1*
Y17079D1*
X1090Y9201D2*
X1070Y9239D1*
X1013Y9297D1*
X1415D1*
X1376Y9439D2*
X1396Y9420D1*
X1415Y9439D1*
X1396Y9459D1*
X1376Y9439D1*
X1109Y9602D2*
X1090D1*
X1051Y9621D1*
X1032Y9640D1*
X1013Y9678D1*
Y9755D1*
X1032Y9793D1*
X1051Y9812D1*
X1090Y9831D1*
X1128D1*
X1166Y9812D1*
X1223Y9774D1*
X1415Y9582D1*
Y9850D1*
X1013Y10363D2*
X1032Y10382D1*
X1013Y10401D1*
X994Y10382D1*
X1013Y10363D1*
X1147Y10382D2*
X1415D1*
X1147Y10525D2*
X1415D1*
X1223D2*
X1166Y10582D1*
X1147Y10620D1*
Y10677D1*
X1166Y10716D1*
X1223Y10735D1*
X1415D1*
M02*
