G04 DipTrace 2.4.0.2*
%INTopSilk.gbr*%
%MOIN*%
%ADD10C,0.0098*%
%ADD25C,0.0154*%
%ADD31O,0.0179X0.0184*%
%ADD69C,0.0046*%
%FSLAX44Y44*%
G04*
G70*
G90*
G75*
G01*
%LNTopSilk*%
%LPD*%
X20287Y7928D2*
D10*
Y9426D1*
X20289Y7925D2*
G03X20289Y9429I998J752D01*
G01*
D25*
X8819Y10480D3*
X8911Y10981D2*
D10*
X10092D1*
Y11178D1*
X8911D1*
Y10981D1*
X5807Y15837D2*
X10807D1*
Y14837D1*
X5807D1*
Y15837D1*
X12299Y4987D2*
X4268D1*
Y6719D1*
X12299D1*
Y4987D1*
X5827Y10067D2*
X7827D1*
Y11067D1*
X5827D1*
Y10067D1*
X11133Y13950D2*
X16133D1*
Y8950D1*
X11133D1*
Y13950D1*
G36*
X11094Y13990D2*
Y13514D1*
X11570Y13990D1*
X11094D1*
G37*
D31*
X10544Y14046D3*
X19735Y12506D2*
D10*
X22334D1*
X19735Y15262D2*
Y12506D1*
Y15262D2*
X19814D1*
X22334D2*
Y12506D1*
Y15262D2*
X22255D1*
D25*
X19745Y11356D3*
X5958Y9511D2*
D10*
Y7543D1*
X6982Y9511D2*
Y7543D1*
X5958D2*
X6982D1*
X6273Y9511D2*
X5958D1*
X6667D2*
X6982D1*
X6273D2*
G03X6667Y9511I197J0D01*
G01*
X20697Y11352D2*
X21327D1*
X20697Y11426D2*
X21327D1*
X20697D2*
Y11191D1*
X21327Y11426D2*
Y11191D1*
X19010Y11352D2*
X19639D1*
X19010Y11426D2*
X19639D1*
X19010D2*
Y11191D1*
X19639Y11426D2*
Y11191D1*
X11816Y15940D2*
D69*
X11801Y15968D1*
X11772Y15997D1*
X11744Y16011D1*
X11687D1*
X11658Y15997D1*
X11629Y15968D1*
X11615Y15940D1*
X11600Y15897D1*
Y15825D1*
X11615Y15782D1*
X11629Y15753D1*
X11658Y15725D1*
X11687Y15710D1*
X11744D1*
X11772Y15725D1*
X11801Y15753D1*
X11816Y15782D1*
X11908Y15954D2*
X11937Y15968D1*
X11980Y16011D1*
Y15710D1*
X10922Y8012D2*
X10908Y8040D1*
X10879Y8069D1*
X10851Y8083D1*
X10793D1*
X10765Y8069D1*
X10736Y8040D1*
X10722Y8012D1*
X10707Y7968D1*
Y7896D1*
X10722Y7854D1*
X10736Y7825D1*
X10765Y7796D1*
X10793Y7782D1*
X10851D1*
X10879Y7796D1*
X10908Y7825D1*
X10922Y7854D1*
X11030Y8011D2*
Y8025D1*
X11044Y8054D1*
X11058Y8069D1*
X11087Y8083D1*
X11144D1*
X11173Y8069D1*
X11187Y8054D1*
X11202Y8025D1*
Y7997D1*
X11187Y7968D1*
X11159Y7925D1*
X11015Y7782D1*
X11216D1*
X17921Y11939D2*
X17907Y11968D1*
X17878Y11997D1*
X17849Y12011D1*
X17792D1*
X17763Y11997D1*
X17735Y11968D1*
X17720Y11939D1*
X17706Y11896D1*
Y11824D1*
X17720Y11782D1*
X17735Y11753D1*
X17763Y11724D1*
X17792Y11710D1*
X17849D1*
X17878Y11724D1*
X17907Y11753D1*
X17921Y11782D1*
X18042Y12011D2*
X18200D1*
X18114Y11896D1*
X18157D1*
X18186Y11882D1*
X18200Y11867D1*
X18215Y11824D1*
Y11796D1*
X18200Y11753D1*
X18171Y11724D1*
X18128Y11710D1*
X18085D1*
X18042Y11724D1*
X18028Y11738D1*
X18014Y11767D1*
X17914Y12564D2*
X17900Y12593D1*
X17871Y12622D1*
X17842Y12636D1*
X17785D1*
X17756Y12622D1*
X17727Y12593D1*
X17713Y12564D1*
X17699Y12521D1*
Y12449D1*
X17713Y12407D1*
X17727Y12378D1*
X17756Y12349D1*
X17785Y12335D1*
X17842D1*
X17871Y12349D1*
X17900Y12378D1*
X17914Y12407D1*
X18150Y12335D2*
Y12636D1*
X18006Y12435D1*
X18222D1*
X13178Y15940D2*
X13163Y15968D1*
X13135Y15997D1*
X13106Y16011D1*
X13049D1*
X13020Y15997D1*
X12991Y15968D1*
X12977Y15940D1*
X12963Y15897D1*
Y15825D1*
X12977Y15782D1*
X12991Y15753D1*
X13020Y15725D1*
X13049Y15710D1*
X13106D1*
X13135Y15725D1*
X13163Y15753D1*
X13178Y15782D1*
X13442Y15968D2*
X13428Y15997D1*
X13385Y16011D1*
X13357D1*
X13313Y15997D1*
X13285Y15954D1*
X13270Y15882D1*
Y15810D1*
X13285Y15753D1*
X13313Y15724D1*
X13357Y15710D1*
X13371D1*
X13414Y15724D1*
X13442Y15753D1*
X13457Y15796D1*
Y15810D1*
X13442Y15854D1*
X13414Y15882D1*
X13371Y15896D1*
X13357D1*
X13313Y15882D1*
X13285Y15854D1*
X13270Y15810D1*
X17796Y14065D2*
X17782Y14093D1*
X17753Y14122D1*
X17724Y14136D1*
X17667D1*
X17638Y14122D1*
X17610Y14093D1*
X17595Y14065D1*
X17581Y14021D1*
Y13950D1*
X17595Y13907D1*
X17610Y13878D1*
X17638Y13849D1*
X17667Y13835D1*
X17724D1*
X17753Y13849D1*
X17782Y13878D1*
X17796Y13907D1*
X17946Y13835D2*
X18090Y14136D1*
X17889D1*
X21852Y11190D2*
X21824Y11176D1*
X21795Y11147D1*
X21781Y11119D1*
Y11061D1*
X21795Y11032D1*
X21824Y11004D1*
X21852Y10989D1*
X21896Y10975D1*
X21968D1*
X22010Y10989D1*
X22039Y11004D1*
X22068Y11032D1*
X22082Y11061D1*
Y11119D1*
X22068Y11147D1*
X22039Y11176D1*
X22010Y11190D1*
X21881Y11470D2*
X21924Y11455D1*
X21953Y11427D1*
X21968Y11383D1*
Y11369D1*
X21953Y11326D1*
X21924Y11298D1*
X21881Y11283D1*
X21867D1*
X21824Y11298D1*
X21795Y11326D1*
X21781Y11369D1*
Y11383D1*
X21795Y11427D1*
X21824Y11455D1*
X21881Y11470D1*
X21953D1*
X22025Y11455D1*
X22068Y11427D1*
X22082Y11383D1*
Y11355D1*
X22068Y11312D1*
X22039Y11298D1*
X12100Y8162D2*
X12086Y8190D1*
X12057Y8219D1*
X12029Y8233D1*
X11971D1*
X11942Y8219D1*
X11914Y8190D1*
X11899Y8162D1*
X11885Y8118D1*
Y8046D1*
X11899Y8004D1*
X11914Y7975D1*
X11942Y7946D1*
X11971Y7932D1*
X12029D1*
X12057Y7946D1*
X12086Y7975D1*
X12100Y8004D1*
X12193Y8175D2*
X12222Y8190D1*
X12265Y8233D1*
Y7932D1*
X12444Y8233D2*
X12401Y8219D1*
X12372Y8175D1*
X12357Y8104D1*
Y8061D1*
X12372Y7989D1*
X12401Y7946D1*
X12444Y7932D1*
X12472D1*
X12515Y7946D1*
X12544Y7989D1*
X12558Y8061D1*
Y8104D1*
X12544Y8175D1*
X12515Y8219D1*
X12472Y8233D1*
X12444D1*
X12544Y8175D2*
X12372Y7989D1*
X18109Y8939D2*
X18095Y8968D1*
X18066Y8996D1*
X18037Y9011D1*
X17980D1*
X17951Y8996D1*
X17923Y8968D1*
X17908Y8939D1*
X17894Y8896D1*
Y8824D1*
X17908Y8781D1*
X17923Y8752D1*
X17951Y8724D1*
X17980Y8709D1*
X18037D1*
X18066Y8724D1*
X18095Y8752D1*
X18109Y8781D1*
X18202Y8953D2*
X18230Y8968D1*
X18274Y9010D1*
Y8709D1*
X18366Y8953D2*
X18395Y8968D1*
X18438Y9010D1*
Y8709D1*
X13401Y7376D2*
X13386Y7405D1*
X13358Y7434D1*
X13329Y7448D1*
X13272D1*
X13243Y7434D1*
X13214Y7405D1*
X13200Y7376D1*
X13185Y7333D1*
Y7261D1*
X13200Y7219D1*
X13214Y7190D1*
X13243Y7161D1*
X13272Y7147D1*
X13329D1*
X13358Y7161D1*
X13386Y7190D1*
X13401Y7219D1*
X13493Y7390D2*
X13522Y7405D1*
X13565Y7448D1*
Y7147D1*
X13672Y7376D2*
Y7390D1*
X13687Y7419D1*
X13701Y7433D1*
X13730Y7448D1*
X13787D1*
X13816Y7433D1*
X13830Y7419D1*
X13845Y7390D1*
Y7362D1*
X13830Y7333D1*
X13801Y7290D1*
X13658Y7147D1*
X13859D1*
X16651Y8972D2*
X16637Y9000D1*
X16608Y9029D1*
X16579Y9043D1*
X16522D1*
X16493Y9029D1*
X16465Y9000D1*
X16450Y8972D1*
X16436Y8928D1*
Y8856D1*
X16450Y8814D1*
X16465Y8785D1*
X16493Y8756D1*
X16522Y8742D1*
X16579D1*
X16608Y8756D1*
X16637Y8785D1*
X16651Y8814D1*
X16744Y8985D2*
X16772Y9000D1*
X16815Y9043D1*
Y8742D1*
X16937Y9043D2*
X17094D1*
X17009Y8928D1*
X17052D1*
X17080Y8914D1*
X17094Y8900D1*
X17109Y8856D1*
Y8828D1*
X17094Y8785D1*
X17066Y8756D1*
X17023Y8742D1*
X16980D1*
X16937Y8756D1*
X16923Y8771D1*
X16908Y8799D1*
X13394Y8001D2*
X13379Y8030D1*
X13350Y8059D1*
X13322Y8073D1*
X13265D1*
X13236Y8059D1*
X13207Y8030D1*
X13193Y8001D1*
X13178Y7958D1*
Y7886D1*
X13193Y7844D1*
X13207Y7815D1*
X13236Y7786D1*
X13265Y7772D1*
X13322D1*
X13350Y7786D1*
X13379Y7815D1*
X13394Y7844D1*
X13486Y8015D2*
X13515Y8030D1*
X13558Y8073D1*
Y7772D1*
X13794D2*
Y8073D1*
X13651Y7872D1*
X13866D1*
X16842Y5830D2*
X16814Y5816D1*
X16785Y5787D1*
X16771Y5759D1*
Y5701D1*
X16785Y5672D1*
X16814Y5644D1*
X16842Y5629D1*
X16886Y5615D1*
X16958D1*
X17000Y5629D1*
X17029Y5644D1*
X17058Y5672D1*
X17072Y5701D1*
Y5759D1*
X17058Y5787D1*
X17029Y5816D1*
X17000Y5830D1*
X16829Y5923D2*
X16814Y5952D1*
X16771Y5995D1*
X17072D1*
X16771Y6260D2*
Y6116D1*
X16900Y6102D1*
X16886Y6116D1*
X16871Y6159D1*
Y6202D1*
X16886Y6245D1*
X16914Y6274D1*
X16958Y6288D1*
X16986D1*
X17029Y6274D1*
X17058Y6245D1*
X17072Y6202D1*
Y6159D1*
X17058Y6116D1*
X17043Y6102D1*
X17015Y6087D1*
X15762Y6167D2*
X15734Y6153D1*
X15705Y6124D1*
X15691Y6096D1*
Y6038D1*
X15705Y6010D1*
X15734Y5981D1*
X15762Y5967D1*
X15806Y5952D1*
X15878D1*
X15920Y5967D1*
X15949Y5981D1*
X15978Y6010D1*
X15992Y6038D1*
Y6096D1*
X15978Y6124D1*
X15949Y6153D1*
X15920Y6167D1*
X15749Y6260D2*
X15734Y6289D1*
X15691Y6332D1*
X15992D1*
X15734Y6597D2*
X15705Y6583D1*
X15691Y6539D1*
Y6511D1*
X15705Y6468D1*
X15749Y6439D1*
X15820Y6425D1*
X15892D1*
X15949Y6439D1*
X15978Y6468D1*
X15992Y6511D1*
Y6525D1*
X15978Y6568D1*
X15949Y6597D1*
X15906Y6611D1*
X15892D1*
X15849Y6597D1*
X15820Y6568D1*
X15806Y6525D1*
Y6511D1*
X15820Y6468D1*
X15849Y6439D1*
X15892Y6425D1*
X3882Y8740D2*
X3854Y8726D1*
X3825Y8697D1*
X3811Y8669D1*
Y8611D1*
X3825Y8582D1*
X3854Y8554D1*
X3882Y8539D1*
X3926Y8525D1*
X3998D1*
X4040Y8539D1*
X4069Y8554D1*
X4098Y8582D1*
X4112Y8611D1*
Y8669D1*
X4098Y8697D1*
X4069Y8726D1*
X4040Y8740D1*
X3869Y8833D2*
X3854Y8862D1*
X3811Y8905D1*
X4112D1*
Y9055D2*
X3811Y9198D1*
Y8997D1*
X7542Y9940D2*
X7514Y9926D1*
X7485Y9897D1*
X7471Y9869D1*
Y9811D1*
X7485Y9782D1*
X7514Y9754D1*
X7542Y9739D1*
X7586Y9725D1*
X7658D1*
X7700Y9739D1*
X7729Y9754D1*
X7758Y9782D1*
X7772Y9811D1*
Y9869D1*
X7758Y9897D1*
X7729Y9926D1*
X7700Y9940D1*
X7529Y10033D2*
X7514Y10062D1*
X7471Y10105D1*
X7772D1*
X7471Y10269D2*
X7485Y10226D1*
X7514Y10212D1*
X7543D1*
X7571Y10226D1*
X7586Y10255D1*
X7600Y10312D1*
X7614Y10355D1*
X7643Y10384D1*
X7672Y10398D1*
X7715D1*
X7743Y10384D1*
X7758Y10370D1*
X7772Y10327D1*
Y10269D1*
X7758Y10226D1*
X7743Y10212D1*
X7715Y10198D1*
X7672D1*
X7643Y10212D1*
X7614Y10241D1*
X7600Y10283D1*
X7586Y10341D1*
X7571Y10370D1*
X7543Y10384D1*
X7514D1*
X7485Y10370D1*
X7471Y10327D1*
Y10269D1*
X8322Y8087D2*
X8294Y8073D1*
X8265Y8044D1*
X8251Y8016D1*
Y7958D1*
X8265Y7929D1*
X8294Y7901D1*
X8322Y7886D1*
X8366Y7872D1*
X8438D1*
X8480Y7886D1*
X8509Y7901D1*
X8538Y7929D1*
X8552Y7958D1*
Y8016D1*
X8538Y8044D1*
X8509Y8073D1*
X8480Y8087D1*
X8309Y8180D2*
X8294Y8209D1*
X8251Y8252D1*
X8552D1*
X8351Y8531D2*
X8394Y8517D1*
X8423Y8488D1*
X8438Y8445D1*
Y8431D1*
X8423Y8388D1*
X8394Y8359D1*
X8351Y8345D1*
X8337D1*
X8294Y8359D1*
X8265Y8388D1*
X8251Y8431D1*
Y8445D1*
X8265Y8488D1*
X8294Y8517D1*
X8351Y8531D1*
X8423D1*
X8495Y8517D1*
X8538Y8488D1*
X8552Y8445D1*
Y8416D1*
X8538Y8373D1*
X8509Y8359D1*
X8292Y9206D2*
X8264Y9192D1*
X8235Y9163D1*
X8221Y9135D1*
Y9077D1*
X8235Y9049D1*
X8264Y9020D1*
X8292Y9005D1*
X8336Y8991D1*
X8408D1*
X8450Y9005D1*
X8479Y9020D1*
X8508Y9049D1*
X8522Y9077D1*
Y9135D1*
X8508Y9163D1*
X8479Y9192D1*
X8450Y9206D1*
X8293Y9314D2*
X8279D1*
X8250Y9328D1*
X8235Y9342D1*
X8221Y9371D1*
Y9428D1*
X8235Y9457D1*
X8250Y9471D1*
X8279Y9486D1*
X8307D1*
X8336Y9471D1*
X8379Y9443D1*
X8522Y9299D1*
Y9500D1*
X8221Y9679D2*
X8235Y9636D1*
X8279Y9607D1*
X8350Y9593D1*
X8393D1*
X8465Y9607D1*
X8508Y9636D1*
X8522Y9679D1*
Y9707D1*
X8508Y9750D1*
X8465Y9779D1*
X8393Y9794D1*
X8350D1*
X8279Y9779D1*
X8235Y9750D1*
X8221Y9707D1*
Y9679D1*
X8279Y9779D2*
X8465Y9607D1*
X7812Y8440D2*
X7784Y8426D1*
X7755Y8397D1*
X7741Y8369D1*
Y8311D1*
X7755Y8282D1*
X7784Y8254D1*
X7812Y8239D1*
X7856Y8225D1*
X7928D1*
X7970Y8239D1*
X7999Y8254D1*
X8028Y8282D1*
X8042Y8311D1*
Y8369D1*
X8028Y8397D1*
X7999Y8426D1*
X7970Y8440D1*
X7813Y8547D2*
X7799D1*
X7770Y8562D1*
X7755Y8576D1*
X7741Y8605D1*
Y8662D1*
X7755Y8691D1*
X7770Y8705D1*
X7799Y8720D1*
X7827D1*
X7856Y8705D1*
X7899Y8676D1*
X8042Y8533D1*
Y8734D1*
X7799Y8826D2*
X7784Y8855D1*
X7741Y8898D1*
X8042D1*
X21165Y10366D2*
Y10065D1*
X21265D1*
X21308Y10079D1*
X21337Y10108D1*
X21351Y10137D1*
X21366Y10179D1*
Y10251D1*
X21351Y10295D1*
X21337Y10323D1*
X21308Y10352D1*
X21265Y10366D1*
X21165D1*
X21473Y10294D2*
Y10308D1*
X21487Y10337D1*
X21502Y10352D1*
X21530Y10366D1*
X21588D1*
X21616Y10352D1*
X21631Y10337D1*
X21645Y10308D1*
Y10280D1*
X21631Y10251D1*
X21602Y10208D1*
X21458Y10065D1*
X21659D1*
X9169Y12179D2*
Y11877D1*
X9270D1*
X9313Y11892D1*
X9342Y11920D1*
X9356Y11949D1*
X9370Y11992D1*
Y12064D1*
X9356Y12107D1*
X9342Y12135D1*
X9313Y12164D1*
X9270Y12179D1*
X9169D1*
X9635Y12178D2*
X9492D1*
X9477Y12049D1*
X9492Y12063D1*
X9535Y12078D1*
X9578D1*
X9621Y12063D1*
X9650Y12035D1*
X9664Y11992D1*
Y11963D1*
X9650Y11920D1*
X9621Y11891D1*
X9578Y11877D1*
X9535D1*
X9492Y11891D1*
X9477Y11906D1*
X9463Y11934D1*
X7871Y16826D2*
Y16524D1*
Y16682D2*
X7842Y16711D1*
X7813Y16725D1*
X7770D1*
X7742Y16711D1*
X7713Y16682D1*
X7699Y16639D1*
Y16610D1*
X7713Y16567D1*
X7742Y16539D1*
X7770Y16524D1*
X7813D1*
X7842Y16539D1*
X7871Y16567D1*
X7963Y16639D2*
X8135D1*
Y16668D1*
X8121Y16697D1*
X8107Y16711D1*
X8078Y16725D1*
X8035D1*
X8006Y16711D1*
X7978Y16682D1*
X7963Y16639D1*
Y16610D1*
X7978Y16567D1*
X8006Y16539D1*
X8035Y16524D1*
X8078D1*
X8107Y16539D1*
X8135Y16567D1*
X8228Y16826D2*
Y16524D1*
Y16682D2*
X8257Y16711D1*
X8285Y16725D1*
X8329D1*
X8357Y16711D1*
X8386Y16682D1*
X8400Y16639D1*
Y16610D1*
X8386Y16567D1*
X8357Y16539D1*
X8329Y16524D1*
X8285D1*
X8257Y16539D1*
X8228Y16567D1*
X8493Y16725D2*
Y16581D1*
X8507Y16539D1*
X8536Y16524D1*
X8579D1*
X8608Y16539D1*
X8651Y16581D1*
Y16725D2*
Y16524D1*
X8915Y16711D2*
Y16481D1*
X8901Y16438D1*
X8887Y16424D1*
X8858Y16409D1*
X8815D1*
X8786Y16424D1*
X8915Y16668D2*
X8887Y16696D1*
X8858Y16711D1*
X8815D1*
X8786Y16696D1*
X8758Y16668D1*
X8743Y16625D1*
Y16596D1*
X8758Y16553D1*
X8786Y16524D1*
X8815Y16510D1*
X8858D1*
X8887Y16524D1*
X8915Y16553D1*
X8273Y7159D2*
Y6929D1*
X8259Y6886D1*
X8244Y6872D1*
X8216Y6857D1*
X8187D1*
X8158Y6872D1*
X8144Y6886D1*
X8130Y6929D1*
Y6958D1*
X8366Y7101D2*
X8395Y7116D1*
X8438Y7158D1*
Y6857D1*
X6745Y11506D2*
Y11277D1*
X6731Y11234D1*
X6716Y11219D1*
X6688Y11205D1*
X6659D1*
X6630Y11219D1*
X6616Y11234D1*
X6601Y11277D1*
Y11305D1*
X6981Y11205D2*
Y11506D1*
X6838Y11305D1*
X7053D1*
X7764Y13089D2*
Y13218D1*
X7750Y13261D1*
X7736Y13276D1*
X7707Y13290D1*
X7678D1*
X7650Y13276D1*
X7635Y13261D1*
X7621Y13218D1*
Y13089D1*
X7922D1*
X7764Y13189D2*
X7922Y13290D1*
X7679Y13382D2*
X7664Y13411D1*
X7621Y13454D1*
X7922D1*
X21446Y9775D2*
Y9904D1*
X21431Y9947D1*
X21417Y9961D1*
X21388Y9975D1*
X21360D1*
X21331Y9961D1*
X21316Y9947D1*
X21302Y9904D1*
Y9775D1*
X21604D1*
X21446Y9875D2*
X21604Y9975D1*
X21374Y10083D2*
X21360D1*
X21331Y10097D1*
X21317Y10111D1*
X21303Y10140D1*
Y10197D1*
X21317Y10226D1*
X21331Y10240D1*
X21360Y10255D1*
X21388D1*
X21417Y10240D1*
X21460Y10212D1*
X21604Y10068D1*
Y10269D1*
X15004Y5900D2*
X15133D1*
X15176Y5914D1*
X15191Y5928D1*
X15205Y5957D1*
Y5986D1*
X15191Y6014D1*
X15176Y6029D1*
X15133Y6043D1*
X15004D1*
Y5742D1*
X15105Y5900D2*
X15205Y5742D1*
X15327Y6043D2*
X15484D1*
X15398Y5928D1*
X15442D1*
X15470Y5914D1*
X15484Y5900D1*
X15499Y5856D1*
Y5828D1*
X15484Y5785D1*
X15456Y5756D1*
X15413Y5742D1*
X15370D1*
X15327Y5756D1*
X15313Y5771D1*
X15298Y5799D1*
X14988Y6560D2*
X15117D1*
X15160Y6574D1*
X15175Y6588D1*
X15189Y6617D1*
Y6646D1*
X15175Y6674D1*
X15160Y6689D1*
X15117Y6703D1*
X14988D1*
Y6402D1*
X15088Y6560D2*
X15189Y6402D1*
X15425D2*
Y6703D1*
X15282Y6502D1*
X15497D1*
X18355Y6440D2*
X18484D1*
X18527Y6454D1*
X18542Y6468D1*
X18556Y6497D1*
Y6526D1*
X18542Y6554D1*
X18527Y6569D1*
X18484Y6583D1*
X18355D1*
Y6282D1*
X18456Y6440D2*
X18556Y6282D1*
X18821Y6583D2*
X18678D1*
X18663Y6454D1*
X18678Y6468D1*
X18721Y6483D1*
X18763D1*
X18807Y6468D1*
X18835Y6440D1*
X18850Y6396D1*
Y6368D1*
X18835Y6325D1*
X18807Y6296D1*
X18763Y6282D1*
X18721D1*
X18678Y6296D1*
X18663Y6311D1*
X18649Y6339D1*
X18372Y7460D2*
X18501D1*
X18544Y7474D1*
X18558Y7488D1*
X18573Y7517D1*
Y7546D1*
X18558Y7574D1*
X18544Y7589D1*
X18501Y7603D1*
X18372D1*
Y7302D1*
X18472Y7460D2*
X18573Y7302D1*
X18837Y7560D2*
X18823Y7589D1*
X18780Y7603D1*
X18751D1*
X18708Y7589D1*
X18680Y7545D1*
X18665Y7474D1*
Y7402D1*
X18680Y7345D1*
X18708Y7316D1*
X18751Y7302D1*
X18766D1*
X18809Y7316D1*
X18837Y7345D1*
X18852Y7388D1*
Y7402D1*
X18837Y7445D1*
X18809Y7474D1*
X18766Y7488D1*
X18751D1*
X18708Y7474D1*
X18680Y7445D1*
X18665Y7402D1*
X16150Y7992D2*
X16279D1*
X16322Y8007D1*
X16337Y8021D1*
X16351Y8049D1*
Y8078D1*
X16337Y8107D1*
X16322Y8121D1*
X16279Y8136D1*
X16150D1*
Y7834D1*
X16251Y7992D2*
X16351Y7834D1*
X16501D2*
X16645Y8135D1*
X16444D1*
X14964Y6925D2*
Y7054D1*
X14950Y7097D1*
X14936Y7112D1*
X14907Y7126D1*
X14878D1*
X14850Y7112D1*
X14835Y7097D1*
X14821Y7054D1*
Y6925D1*
X15122D1*
X14964Y7026D2*
X15122Y7126D1*
X14821Y7290D2*
X14835Y7248D1*
X14864Y7233D1*
X14893D1*
X14921Y7248D1*
X14936Y7276D1*
X14950Y7334D1*
X14964Y7377D1*
X14993Y7405D1*
X15022Y7419D1*
X15065D1*
X15093Y7405D1*
X15108Y7391D1*
X15122Y7348D1*
Y7290D1*
X15108Y7248D1*
X15093Y7233D1*
X15065Y7219D1*
X15022D1*
X14993Y7233D1*
X14964Y7262D1*
X14950Y7305D1*
X14936Y7362D1*
X14921Y7391D1*
X14893Y7405D1*
X14864D1*
X14835Y7391D1*
X14821Y7348D1*
Y7290D1*
X17595Y9555D2*
X17724D1*
X17767Y9569D1*
X17782Y9584D1*
X17796Y9612D1*
Y9641D1*
X17782Y9669D1*
X17767Y9684D1*
X17724Y9698D1*
X17595D1*
Y9397D1*
X17695Y9555D2*
X17796Y9397D1*
X18075Y9598D2*
X18061Y9555D1*
X18032Y9526D1*
X17989Y9512D1*
X17975D1*
X17932Y9526D1*
X17903Y9555D1*
X17889Y9598D1*
Y9612D1*
X17903Y9655D1*
X17932Y9684D1*
X17975Y9698D1*
X17989D1*
X18032Y9684D1*
X18061Y9655D1*
X18075Y9598D1*
Y9526D1*
X18061Y9454D1*
X18032Y9411D1*
X17989Y9397D1*
X17961D1*
X17917Y9411D1*
X17903Y9440D1*
X13257Y6117D2*
X13386D1*
X13429Y6131D1*
X13444Y6146D1*
X13458Y6174D1*
Y6203D1*
X13444Y6232D1*
X13429Y6246D1*
X13386Y6260D1*
X13257D1*
Y5959D1*
X13358Y6117D2*
X13458Y5959D1*
X13551Y6203D2*
X13580Y6217D1*
X13623Y6260D1*
Y5959D1*
X13715Y6203D2*
X13744Y6217D1*
X13787Y6260D1*
Y5959D1*
X13683Y6740D2*
X13812D1*
X13855Y6754D1*
X13869Y6768D1*
X13884Y6797D1*
Y6826D1*
X13869Y6854D1*
X13855Y6869D1*
X13812Y6883D1*
X13683D1*
Y6582D1*
X13783Y6740D2*
X13884Y6582D1*
X13976Y6825D2*
X14005Y6840D1*
X14048Y6883D1*
Y6582D1*
X14156Y6811D2*
Y6825D1*
X14170Y6854D1*
X14184Y6869D1*
X14213Y6883D1*
X14270D1*
X14299Y6869D1*
X14313Y6854D1*
X14328Y6825D1*
Y6797D1*
X14313Y6768D1*
X14285Y6725D1*
X14141Y6582D1*
X14342D1*
X14394Y6963D2*
Y7092D1*
X14380Y7135D1*
X14366Y7149D1*
X14337Y7164D1*
X14308D1*
X14280Y7149D1*
X14265Y7135D1*
X14251Y7092D1*
Y6963D1*
X14552D1*
X14394Y7063D2*
X14552Y7164D1*
X14309Y7256D2*
X14294Y7285D1*
X14251Y7328D1*
X14552D1*
X14251Y7450D2*
Y7607D1*
X14366Y7521D1*
Y7565D1*
X14380Y7593D1*
X14394Y7607D1*
X14438Y7622D1*
X14466D1*
X14509Y7607D1*
X14538Y7579D1*
X14552Y7536D1*
Y7493D1*
X14538Y7450D1*
X14523Y7436D1*
X14495Y7421D1*
X19284Y7685D2*
Y7814D1*
X19270Y7857D1*
X19256Y7872D1*
X19227Y7886D1*
X19198D1*
X19170Y7872D1*
X19155Y7857D1*
X19141Y7814D1*
Y7685D1*
X19442D1*
X19284Y7785D2*
X19442Y7886D1*
X19199Y7979D2*
X19184Y8007D1*
X19141Y8051D1*
X19442D1*
Y8287D2*
X19141D1*
X19342Y8143D1*
Y8358D1*
X19212Y9680D2*
X19341D1*
X19384Y9694D1*
X19399Y9708D1*
X19413Y9737D1*
Y9766D1*
X19399Y9794D1*
X19384Y9809D1*
X19341Y9823D1*
X19212D1*
Y9522D1*
X19313Y9680D2*
X19413Y9522D1*
X19506Y9765D2*
X19535Y9780D1*
X19578Y9823D1*
Y9522D1*
X19842Y9823D2*
X19699D1*
X19685Y9694D1*
X19699Y9708D1*
X19742Y9723D1*
X19785D1*
X19828Y9708D1*
X19857Y9680D1*
X19871Y9636D1*
Y9608D1*
X19857Y9565D1*
X19828Y9536D1*
X19785Y9522D1*
X19742D1*
X19699Y9536D1*
X19685Y9551D1*
X19670Y9579D1*
X8154Y10833D2*
Y10962D1*
X8140Y11005D1*
X8126Y11019D1*
X8097Y11034D1*
X8068D1*
X8040Y11019D1*
X8025Y11005D1*
X8011Y10962D1*
Y10833D1*
X8312D1*
X8154Y10933D2*
X8312Y11034D1*
X8069Y11126D2*
X8054Y11155D1*
X8011Y11198D1*
X8312D1*
Y11348D2*
X8011Y11492D1*
Y11291D1*
X13450Y15276D2*
Y15060D1*
X13465Y15017D1*
X13493Y14989D1*
X13537Y14974D1*
X13565D1*
X13608Y14989D1*
X13637Y15017D1*
X13651Y15060D1*
Y15276D1*
X13744Y15218D2*
X13773Y15232D1*
X13816Y15275D1*
Y14974D1*
X20753Y16085D2*
Y15870D1*
X20768Y15826D1*
X20797Y15798D1*
X20840Y15783D1*
X20868D1*
X20911Y15798D1*
X20940Y15826D1*
X20954Y15870D1*
Y16085D1*
X21062Y16013D2*
Y16027D1*
X21076Y16056D1*
X21090Y16070D1*
X21119Y16084D1*
X21176D1*
X21205Y16070D1*
X21219Y16056D1*
X21234Y16027D1*
Y15999D1*
X21219Y15970D1*
X21191Y15927D1*
X21047Y15783D1*
X21248D1*
X6223Y9951D2*
Y9735D1*
X6237Y9692D1*
X6266Y9664D1*
X6309Y9649D1*
X6337D1*
X6381Y9664D1*
X6409Y9692D1*
X6424Y9735D1*
Y9951D1*
X6545Y9950D2*
X6703D1*
X6617Y9836D1*
X6660D1*
X6688Y9821D1*
X6703Y9807D1*
X6717Y9764D1*
Y9735D1*
X6703Y9692D1*
X6674Y9663D1*
X6631Y9649D1*
X6588D1*
X6545Y9663D1*
X6531Y9678D1*
X6516Y9707D1*
X20290Y11122D2*
X20262Y11108D1*
X20233Y11079D1*
X20218Y11051D1*
Y10993D1*
X20233Y10965D1*
X20262Y10936D1*
X20290Y10921D1*
X20333Y10907D1*
X20405D1*
X20448Y10921D1*
X20477Y10936D1*
X20505Y10965D1*
X20520Y10993D1*
Y11051D1*
X20505Y11079D1*
X20477Y11108D1*
X20448Y11122D1*
X20290Y11230D2*
X20276D1*
X20247Y11244D1*
X20233Y11258D1*
X20219Y11287D1*
Y11344D1*
X20233Y11373D1*
X20247Y11387D1*
X20276Y11402D1*
X20305D1*
X20334Y11387D1*
X20376Y11359D1*
X20520Y11215D1*
Y11416D1*
X20290Y11523D2*
X20276D1*
X20247Y11537D1*
X20233Y11552D1*
X20219Y11581D1*
Y11638D1*
X20233Y11666D1*
X20247Y11681D1*
X20276Y11695D1*
X20305D1*
X20334Y11681D1*
X20376Y11652D1*
X20520Y11509D1*
Y11710D1*
X18602Y11122D2*
X18574Y11108D1*
X18545Y11079D1*
X18531Y11051D1*
Y10993D1*
X18545Y10965D1*
X18574Y10936D1*
X18602Y10921D1*
X18645Y10907D1*
X18717D1*
X18760Y10921D1*
X18789Y10936D1*
X18818Y10965D1*
X18832Y10993D1*
Y11051D1*
X18818Y11079D1*
X18789Y11108D1*
X18760Y11122D1*
X18603Y11230D2*
X18588D1*
X18560Y11244D1*
X18545Y11258D1*
X18531Y11287D1*
Y11344D1*
X18545Y11373D1*
X18560Y11387D1*
X18588Y11402D1*
X18617D1*
X18646Y11387D1*
X18689Y11359D1*
X18832Y11215D1*
Y11416D1*
X18531Y11537D2*
Y11695D1*
X18646Y11609D1*
Y11652D1*
X18660Y11681D1*
X18674Y11695D1*
X18717Y11710D1*
X18746D1*
X18789Y11695D1*
X18818Y11666D1*
X18832Y11623D1*
Y11580D1*
X18818Y11537D1*
X18803Y11523D1*
X18775Y11509D1*
M02*
